<?xml  version="1.0" encoding="UTF-8"?>
<!DOCTYPE svg PUBLIC "-//W3C//DTD SVG 1.0//EN" "http://www.w3.org/TR/2001/REC-SVG-20010904/DTD/svg10.dtd" >
<svg xmlns="http://www.w3.org/2000/svg" >
<metadata>
<version>1.0</version>
<id><![CDATA[ITC Berranger Hand W01 Rg]]></id>
<vendor>Monotype Imaging Inc.</vendor>
<credits>
<name>Fonts.com WebFonts</name>
<URL>http://webfonts.fonts.com</URL>
<role>Home of the Web fonts</role>
</credits>
<license>
<URL>http://webfonts.fonts.com/Legal</URL>
</license>
<copyright><![CDATA[Copyright 1999 International Typeface Corporation. All rights reserved.]]></copyright>
<trademark><![CDATA["ITC" is a trademark of International Typeface Corporation Registered in the U.S. Patent and Trademark Office and may be registered in certain jurisdictions;"Berranger Hand" is a trademark of International Typeface Corporation and may be registered in certain jurisdictions.]]></trademark>
<licensee>
<name></name>
</licensee>
</metadata>
<defs >
<font horiz-adv-x="535" id="f2ee7ee8-8603-4af1-baf7-931e1d41ccb4">
<font-face font-family="" panose-1="2 0 5 3 4 0 0 2 0 4" ascent="724" descent="-276" units-per-em="1000" alphabetic="0">
</font-face>
<missing-glyph horiz-adv-x="0" />

<glyph unicode="&#xA;" />
<glyph unicode="&#xD;" horiz-adv-x="260" />
<glyph unicode=" " horiz-adv-x="260" />
<glyph unicode="!" horiz-adv-x="387" d="M364 744Q364 734 360 722T349 696T335 670T323 647Q318 637 316 626T312 602T307 579T297 560Q289 530 284 514T275 485T265 452T250 397Q244 372 238 355T228 325T221 298T218 266Q218 261 218 256T219 243Q213 243 205 241T188 236T172 232T163 230Q145 230 128 241T110 275Q110 281 116 293T129 317Q141 363 148 396T161 455T170 502T177 544T186 590T198 647Q202 664 208 692T225 748T254 796T299 816Q315 816 327 810T347 793T359 770T364 744ZM224 68Q224 64 222 46T213 6T190 -31T150 -48Q122 -48 106 -41T81 -20T70 12T67 52Q67 81 72 96Q75 104 78 109Q93 118 101 125T116 137T130 144T150 147Q173 147 187 139T210 119T221 93T224 68Z"  />
<glyph unicode="&quot;" horiz-adv-x="389" d="M341 677Q341 662 340 643T337 604T332 569T325 546Q321 539 315 529T303 509T290 492T280 485H279Q275 486 271 497T263 522T257 549T254 571Q254 577 254 591T253 621Q253 640 254 658T258 685Q261 693 273 706T301 720Q308 720 315 719T328 714T337 701T341 677ZM184 687Q184 681 181 662T173 621T163 580T155 553Q152 546 147 533T135 507T123 485T110 475Q104 475 99 483T90 502T83 527T80 551V600Q80 616 80 633T81 664T83 690T86 705Q92 716 98 724T116 733Q126 733 138 728T160 716T177 701T184 687Z"  />
<glyph unicode="#" horiz-adv-x="773" d="M719 428Q719 408 709 397T684 381T649 374T611 372H581Q567 372 557 371T542 366Q528 354 522 344T512 325T506 308T496 292V283Q504 278 512 278T529 277H560Q563 277 573 279T594 285T614 291T628 294Q633 294 642 293T659 288T674 279T681 264Q681 254 677 242T666 218T651 200T634 192Q628 192 619 190T601 187Q598 187 583 188T545 189Q525 189 502 188T459 182Q452 168 444 143T436 99Q436 81 434 61T425 24T406 -4T374 -15H372Q352 -15 341 -8T324 10T317 34T316 61V71Q316 87 316 90T320 98T330 112T349 150Q343 150 336 150T320 151Q303 151 286 150T254 147Q247 123 243 97T233 48T217 7T187 -19Q168 -19 149 0T129 58Q129 77 138 104T152 149Q140 152 125 152Q111 152 96 151T66 150Q39 150 18 159T-6 201V206Q-6 224 3 236T26 255T55 265T83 268Q85 268 93 266T110 261T128 256T140 253H143Q156 253 166 254T184 263T200 285T216 328Q213 337 205 337Q197 337 187 333T171 328Q165 328 151 331T123 341T97 359T86 387Q86 391 88 401T96 422T115 442T148 455Q150 456 155 456Q162 456 173 455T202 453Q216 453 233 454T273 461Q276 462 283 476T299 512T320 558T346 604T378 640T414 654Q431 654 447 640T464 603Q464 600 459 587T444 555T424 515T400 476V466H399Q399 465 405 465H431Q435 465 448 468T465 480Q466 483 471 497T483 530T501 570T523 609T548 639T575 651Q587 651 600 649T623 641T641 623T648 594Q648 577 642 563T626 535T608 509T594 484Q598 483 608 483Q625 483 641 486T663 489Q691 489 705 470T719 428ZM336 351H335Q324 351 317 339T304 311T295 281T291 264L354 258H360Q378 258 388 268T404 292T412 321T417 349L336 351Z"  />
<glyph unicode="$" horiz-adv-x="536" d="M479 217Q479 214 478 205T474 186T469 168T466 157Q460 144 442 128T402 96T358 71T321 59Q318 61 312 63Q323 42 332 14T342 -40Q342 -65 328 -82T277 -99Q261 -99 247 -92T221 -72T202 -45T195 -14Q195 -4 196 6T200 26T203 43T205 53Q205 57 202 57Q199 57 196 55T191 52Q182 51 174 51T156 50Q118 50 84 60T16 96Q12 103 11 110T10 126Q10 152 28 172T72 192Q87 192 97 185T118 169T142 153T178 146Q191 146 208 149Q209 169 209 187T210 225Q210 247 210 269T208 316Q187 328 165 342T122 374T87 412T67 460Q70 464 70 470Q70 482 61 491Q70 517 84 541T118 588T159 629T205 662Q208 661 214 661Q224 661 227 669T230 691Q230 705 229 722T227 758Q227 772 229 785T237 809T255 825T284 831Q306 831 320 824T341 804T351 775T354 741Q354 724 353 708T351 677Q373 677 392 675T425 666T448 645T456 604Q456 590 452 576T440 550T419 531T392 523Q378 523 369 526T354 535T343 549T331 567Q325 554 323 540T319 512T315 483T307 455Q307 445 307 437T306 419Q306 412 306 406T308 392Q341 376 372 363T427 331T465 286T479 217ZM217 553Q195 535 184 521T172 492Q172 467 217 438V553ZM352 221Q352 231 346 238T332 249T314 257T297 265Q294 248 291 230T288 194Q288 180 291 165Q301 168 312 172T332 183T346 199T352 221Z"  />
<glyph unicode="%" horiz-adv-x="695" d="M672 227Q672 204 662 166T629 92T575 30T499 3Q493 3 483 6T462 14T442 25T431 39Q431 38 432 38V39Q432 40 432 41T433 44Q433 49 425 65T416 107Q416 113 418 123T424 147T432 174T442 201Q447 211 449 232T461 269Q473 285 485 301T512 332T544 355T584 364Q609 364 625 349T652 312T667 267T672 227ZM272 605Q272 580 264 551T243 494T210 440T169 397Q164 393 154 388T134 378T114 370T99 366H72Q61 366 52 378T35 404T24 432T20 447Q20 469 27 497T46 554T75 612T113 662T157 698T206 712Q226 712 239 701T259 674T269 640T272 605ZM498 648Q498 637 487 608T460 546T429 479T407 427Q400 393 386 350T353 260T317 168T283 83Q290 65 290 47Q290 28 283 12T266 -15T242 -33T217 -40Q204 -40 193 -33T173 -16T159 8T154 33Q154 53 165 73T190 115T217 158T237 201Q243 224 258 256T285 326Q299 362 308 389T325 438T337 480T346 522T356 570T369 633Q371 635 376 647T391 674T411 700T435 712Q468 712 483 692T498 648ZM597 231Q597 235 595 237T590 243Q588 240 574 225T543 192T514 156T501 129Q501 123 502 116T504 102Q520 105 536 118T566 151T588 191T597 231ZM188 601Q177 593 167 581T148 556T135 529T130 503Q130 497 131 488T133 473Q138 478 146 491T164 520T181 549T192 571L188 601Z"  />
<glyph unicode="&amp;" horiz-adv-x="558" d="M519 325Q519 310 508 288T480 240T444 190T408 143T380 108T369 90Q369 81 373 75T384 64T398 54T411 43Q414 37 416 28T419 11Q421 6 424 -2T430 -20T435 -36T437 -45Q437 -60 432 -74T416 -99T394 -117T366 -124Q344 -124 331 -110T312 -78T303 -41T301 -14Q300 -10 296 5T282 34Q271 30 251 24T210 11T168 1T138 -4H119Q94 -4 76 6T45 32T26 67T20 107Q20 141 39 177T86 249T143 316T192 374Q194 376 194 381T195 395Q195 404 193 414Q193 421 194 427T196 440V443Q195 459 195 473T194 500Q194 525 197 548T210 604Q214 619 231 639T269 677T312 707T349 720Q372 720 393 711T429 685T454 649T464 606Q464 577 440 542T386 470T332 401T307 345Q307 297 312 258T327 197Q336 209 346 222T364 247T378 270T385 289Q406 309 415 325T430 352T443 368T469 374Q477 374 485 370T501 360T514 344T519 325ZM354 594Q354 597 352 597Q328 597 315 585T295 556T287 521T285 491V479Q285 475 288 469Q289 465 291 462Q294 466 304 482T326 519T345 559T354 590V594ZM245 128Q238 165 231 194T216 256Q204 245 189 228T161 191T139 152T130 117Q130 110 133 103T147 96Q153 96 160 100T172 105Q177 105 182 105T193 106Q200 106 215 114T245 128Z"  />
<glyph unicode="&apos;" horiz-adv-x="246" d="M184 687Q184 681 180 661T169 618T157 574T148 546Q145 539 140 526T128 500T115 477T102 467Q96 467 91 475T82 494T75 519T72 543Q72 553 73 578T76 629T80 677T86 705Q92 716 98 724T116 733Q126 733 138 728T160 716T177 701T184 687Z"  />
<glyph unicode="(" horiz-adv-x="441" d="M373 27Q373 19 366 12T350 -2T332 -12T317 -16Q313 -16 312 -15T306 -13Q300 -13 301 -14T296 -15Q262 -15 230 2T172 43T126 97T100 150Q96 159 90 177T77 219T67 268T63 316Q63 351 68 397T83 491T109 587T149 671T202 730T269 753Q276 753 286 750T305 742T321 728T328 709Q328 705 326 704T323 697Q321 681 310 668T285 641T258 615T240 587Q239 582 234 577T225 566Q211 537 206 505T195 445Q192 429 188 401T183 351Q182 346 182 341T182 331Q182 320 182 309T183 288Q183 283 181 277T178 267Q178 262 180 262T183 260Q188 231 195 203T210 150Q212 146 219 134T238 109T264 86T296 76Q302 76 313 81T336 86Q345 86 352 77T363 57T370 37T373 27Z"  />
<glyph unicode=")" horiz-adv-x="407" d="M321 326Q321 322 317 304T308 263T298 219T291 188Q265 108 223 55T136 -28Q124 -28 113 -24T94 -12T82 3T77 18Q84 34 95 48T117 75T140 101T159 129Q165 140 171 155T182 188T190 222T193 254V263Q195 272 196 283T199 304T200 323T201 333Q201 336 201 355T201 397T199 441T197 469V473Q197 487 194 502T188 531Q180 570 171 586T152 618Q134 645 107 666T54 716Q58 732 70 741T97 756T128 762T155 764Q162 764 174 755T201 733T228 703T249 673Q256 661 264 643T280 606T294 567T304 531Q306 520 309 498T314 453T319 412T321 392V326Z"  />
<glyph unicode="*" horiz-adv-x="403" d="M365 705Q365 697 362 686T346 663Q329 647 308 637T263 605Q269 600 277 595T292 583T305 571T312 558Q314 552 315 544T316 534Q316 525 311 518T298 507T283 500T273 498Q255 498 248 503T238 515T233 526T222 532Q216 532 216 529Q216 521 224 505T232 476Q232 452 219 444T191 436Q178 436 170 442T156 458T148 479T141 500Q125 489 119 479T110 460T101 446T80 440Q64 440 56 449T37 481Q41 492 52 504T73 525Q78 531 82 537T92 551Q97 559 106 568T116 581Q116 584 103 592T73 612T44 637T30 662Q30 680 43 692T72 705Q75 705 86 700T110 687T134 674T149 666Q150 684 150 701T152 733T161 756T182 765Q198 765 206 753T220 727T230 700T240 688Q246 688 255 697T275 718T297 738T318 748Q341 748 353 736T365 705Z"  />
<glyph unicode="+" horiz-adv-x="591" d="M553 336Q553 327 548 320T536 306T519 296T503 291Q449 286 412 275T337 253Q337 239 335 220T333 193Q333 190 337 167T348 116T358 65T363 38Q363 31 358 17T345 -10T326 -34T302 -44Q278 -44 262 -36T235 -13T221 20T216 56Q216 57 219 65T226 83T233 106T237 128V139Q237 150 237 165T234 195T226 220T212 230Q205 230 187 226T155 220Q147 218 139 217T121 216Q107 216 93 218T67 228Q67 242 63 253T58 270Q58 297 78 313T124 337T178 348T219 353Q217 367 213 389T204 432T196 469T192 489Q192 494 194 503T197 522Q197 528 196 531Q200 534 209 542T228 558T249 573T268 580Q290 580 303 572T325 551T336 520T339 484Q339 455 335 429T331 390Q331 384 332 383Q335 374 341 372T355 370H364Q368 370 378 370T401 370T423 371T436 371Q444 371 444 377T451 383Q457 383 456 381T462 379Q468 379 479 386T496 393Q504 393 514 387T532 371T547 352T553 336Z"  />
<glyph unicode="&#x2c;" horiz-adv-x="311" d="M274 105Q274 100 262 73T230 7T186 -75T140 -155T99 -216T72 -241Q61 -241 53 -232T39 -210T32 -181T29 -153Q29 -147 39 -131T62 -93T85 -46T96 3Q96 12 95 16Q102 45 111 75T133 130T164 171T210 187Q226 187 238 179T258 159T270 132T274 105Z"  />
<glyph unicode="-" horiz-adv-x="527" d="M462 279Q462 277 459 267T452 244T444 221T435 211Q431 211 431 213Q431 215 426 215Q420 215 416 206T404 197Q398 197 395 199T385 201Q382 201 363 197T320 187T271 178T234 173Q218 173 209 172T192 171T179 169T164 168Q156 168 140 170T107 178T78 197T65 229Q65 278 94 295T164 312Q167 312 175 311T194 307T212 304T224 302Q240 302 254 302T286 303Q314 303 329 307T357 315T382 324T419 328Q423 328 430 322T445 308T457 292T462 279Z"  />
<glyph unicode="." horiz-adv-x="284" d="M227 59Q227 41 217 24T193 -7T161 -29T129 -37Q112 -37 99 -27T76 -2T62 28T57 52Q57 100 73 115T117 133Q123 133 127 138T138 143Q146 143 148 137T157 131Q161 131 162 131T163 133T164 134T168 135Q181 135 191 125T210 103T222 78T227 59Z"  />
<glyph unicode="/" horiz-adv-x="451" d="M464 724Q464 704 451 679T421 628T387 582T365 549Q338 497 322 469T296 425T278 397T262 366T239 312T202 216Q192 189 190 167T177 124Q172 116 166 103T160 76Q160 70 162 61T164 42V38Q159 15 150 -17T135 -71Q134 -78 131 -88T123 -110Q104 -124 94 -126T69 -128Q54 -128 43 -122T25 -106T14 -85T10 -64Q10 -61 12 -49T17 -20T25 14T33 45Q37 58 44 67T58 85T73 104T85 129Q106 201 119 246T148 325Q168 367 178 394T196 444T211 491T230 552Q258 596 272 637T301 711T337 764T403 784Q409 784 419 778T439 763T456 744T464 724Z"  />
<glyph unicode="0" horiz-adv-x="573" d="M508 321Q508 276 501 238T483 167T457 109T429 64Q418 48 393 30T339 -3T282 -28T235 -38Q203 -38 174 -19T122 30T87 94T74 159Q74 164 74 168T76 178V180Q76 190 73 199T65 218T57 238T53 260Q53 274 63 284T87 304T115 325T138 352Q143 361 152 369T170 385T187 399T197 412Q203 413 210 416T224 423T238 428T248 431Q254 431 270 429T293 427Q297 427 311 432T345 444T388 456T436 462Q461 462 475 444T497 401T506 353T508 321ZM421 347Q413 347 407 349T392 351Q366 351 333 333T259 291Q257 289 246 275T223 243T201 206T191 177Q191 170 194 156T205 128T224 102T251 91Q291 91 323 119T376 186T409 269T421 345V347Z"  />
<glyph unicode="1" horiz-adv-x="354" d="M304 552Q304 515 293 465T267 363T241 265T229 192Q229 181 235 170T249 147T263 123T270 99Q270 84 264 59T247 10T221 -31T186 -49Q169 -49 156 -35T133 -3T119 31T114 52Q114 75 119 118T133 212T151 314T167 404V405Q167 407 160 407Q154 407 149 398T134 379T107 359T61 350Q35 350 18 361T0 405Q0 412 4 421T14 437T26 450T39 455Q78 471 115 502T171 573Q189 582 195 588T206 599T216 606T239 608Q265 608 284 591T304 552Z"  />
<glyph unicode="2" horiz-adv-x="512" d="M470 68Q470 55 465 40T450 11T426 -12T394 -21H360Q356 -21 340 -16T306 -4T271 8T252 14Q226 14 210 6T182 -12T158 -30T129 -38Q117 -38 105 -31T83 -13T67 11T61 37Q61 67 76 83T112 113T150 144T175 196Q194 230 210 275T239 363T260 443T273 498H274Q274 499 267 499Q232 499 208 477T165 428T128 379T91 357Q77 357 64 365T47 379Q42 387 40 396T38 415Q38 429 41 441T46 461Q76 496 114 529T190 589T263 632T322 648Q340 648 353 635T376 602T389 564T394 534Q394 523 391 515T384 498T377 477T373 442L259 165Q260 161 271 157T295 150T321 145T339 143Q342 143 351 143T370 145T389 146T402 147Q413 147 425 137T447 114T463 88T470 68Z"  />
<glyph unicode="3" horiz-adv-x="486" d="M441 -116Q441 -118 438 -127T431 -149T421 -173T411 -193Q408 -197 402 -203T388 -217T372 -231T355 -243Q350 -246 322 -258T258 -285T188 -311T138 -322Q120 -322 103 -316T73 -299T52 -272T44 -237Q44 -228 48 -215T59 -190T78 -168T104 -159Q107 -159 120 -163T149 -171T179 -180T196 -184Q213 -184 233 -178T270 -158T300 -127T312 -86Q312 -71 305 -46T286 3T255 45T213 63Q210 63 199 61T174 56T150 51T135 48Q118 48 107 56T88 78T77 105T73 131Q73 134 74 141T77 156T83 171T92 182Q108 195 131 214T175 255T210 302T225 351Q223 354 221 355T211 356Q201 356 189 349T162 334T133 318T100 311Q87 311 77 318T59 336T47 359T43 381Q43 404 65 426T118 467T178 496T225 507Q257 507 282 496T324 465T351 420T361 366Q361 330 350 303T326 256T302 223T291 200Q291 197 301 188T325 165T353 137T376 106Q387 87 398 61T419 6T435 -55T441 -116Z"  />
<glyph unicode="4" horiz-adv-x="523" d="M484 182Q484 159 467 140T429 101T391 61T374 15Q374 2 380 -12T393 -39T406 -64T412 -82Q412 -93 404 -106T384 -130T357 -150T331 -158Q305 -158 291 -149T269 -124T260 -91T258 -54V-24Q258 -12 257 -2T253 14Q245 14 241 12T229 10Q193 10 163 24T110 61T74 110T56 162V250Q60 257 61 266T62 285Q62 292 62 298T61 312Q61 322 62 326Q70 338 75 355T83 389T87 424T89 456Q89 464 89 470T88 480Q101 505 105 533T115 584T135 622T184 637Q205 637 221 627T247 603T262 573T267 544Q267 538 262 523T255 496Q246 487 231 454T201 378T176 295T165 231Q165 219 167 201T178 166T203 136T248 124Q260 124 265 138T272 175T277 223T285 271T305 307T342 322Q359 322 372 314T394 294T407 269T412 245Q412 242 410 235T406 219T401 203T399 192Q399 186 400 184T407 181Q410 181 418 185T434 194T450 203T461 207Q472 207 478 200T484 182Z"  />
<glyph unicode="5" horiz-adv-x="529" d="M573 508Q568 488 564 474T552 446Q538 427 516 420T467 404Q450 399 431 396T396 390T367 386T350 385Q344 385 333 387T315 389Q285 389 261 378T219 347T192 305T182 256Q182 226 207 194T263 125T319 43T345 -57Q345 -81 342 -103T335 -144T325 -177T316 -197Q299 -223 275 -252T224 -306T168 -347T111 -364Q86 -364 65 -352T29 -322T6 -284T-3 -246Q-3 -236 6 -229T26 -216T46 -208T58 -205Q74 -205 79 -212T87 -227T96 -242T119 -249Q140 -249 161 -232T200 -191T229 -144T240 -109Q240 -68 227 -37T194 22T151 75T108 130T75 194T61 275Q61 311 71 338T95 390T121 439T136 493Q144 501 157 507T176 514L408 507H413Q435 507 451 512T482 524T508 535T532 541Q539 541 543 538T552 530T560 519T573 508Z"  />
<glyph unicode="6" horiz-adv-x="459" d="M403 582Q403 578 399 563T387 532T372 504T354 491H350Q349 491 349 492Q349 493 349 493T350 494Q350 495 346 495Q336 495 323 481T297 446T270 400T246 353T229 316T221 298Q224 295 224 294T232 293Q238 293 253 300T282 307Q314 307 335 295T369 264T387 218T393 165Q393 138 378 105T341 42T291 -8T240 -28H216Q200 -28 184 -18T155 7T133 36T121 59Q107 61 92 64T63 75T42 94T33 125Q33 150 45 166T72 197T99 225T112 261L179 472Q195 497 213 527T252 584T299 629T354 647Q367 647 376 638T391 618T400 596T403 582ZM279 202Q277 202 273 204Q271 205 270 206H264Q235 206 221 185T206 135Q206 128 209 120T215 104T223 92T231 87Q240 87 249 93T266 108T279 128T284 152V158L279 202Z"  />
<glyph unicode="7" horiz-adv-x="467" d="M447 173Q447 153 443 143T431 127T414 120T395 114Q392 113 381 112T356 109T329 107T308 106Q297 99 291 87Q288 68 287 40T286 -17Q286 -49 286 -73T287 -102Q287 -105 287 -113T286 -132Q286 -143 287 -152T293 -165Q287 -175 284 -191T279 -226T273 -265T261 -301T239 -327T200 -337Q182 -337 170 -320T150 -281T139 -240T135 -216Q135 -195 146 -173T170 -123T195 -60T206 25V37Q206 50 204 66T195 83Q192 83 184 82T165 80T146 77T134 76Q100 76 89 83T77 109V114Q77 147 94 165T143 184Q149 184 159 181T177 177Q183 177 198 180T225 189Q228 203 231 222T236 260T239 292T240 309Q240 311 240 328T236 364T227 400T211 416Q207 416 187 404T143 376T95 349T63 336Q31 336 18 359T5 412Q5 427 18 445T44 470Q55 476 78 489T126 517T175 542T210 553Q243 553 268 541T311 508T338 462T347 408Q347 399 345 373T338 316T328 256T316 211Q322 208 327 205T339 201H363Q371 201 371 203Q371 205 370 206T369 210Q369 212 376 214T411 217Q424 217 431 212T441 201T446 187T447 173Z"  />
<glyph unicode="8" horiz-adv-x="503" d="M448 143Q448 129 444 114T433 84T420 57T407 37Q399 26 384 12T352 -10Q338 -16 319 -23T281 -37T248 -48T231 -53H195Q174 -53 157 -44T129 -21T112 10T106 45Q106 78 115 108T136 166T161 222T179 275Q185 278 191 284T197 296Q197 305 173 320T120 359T67 418T43 499Q43 525 63 555T115 615T184 672T257 719T319 752T357 765H359Q367 765 376 764T395 759T413 744T428 715Q429 709 429 703T429 691Q429 650 417 606T387 518T352 434T323 360Q334 353 355 326T396 266T432 198T448 143ZM342 639Q323 628 297 617T244 591T195 559T159 514Q174 503 188 489T215 463Q221 459 229 454T246 440Q266 461 280 486T307 537T330 589T356 639H342ZM331 143Q331 155 324 169T308 196T289 218T277 227Q275 224 266 203T247 155T229 105T221 71Q221 63 226 60T239 56Q253 56 269 64T299 84T322 112T331 143Z"  />
<glyph unicode="9" horiz-adv-x="587" d="M514 64Q511 27 508 -9T496 -81T471 -150T427 -219Q421 -235 407 -250T373 -279T334 -305T297 -328Q282 -335 262 -342T222 -356T188 -367T169 -371Q166 -371 148 -372T110 -374T72 -377T51 -378Q48 -378 32 -375T-1 -361T-33 -333T-48 -284Q-48 -263 -43 -249T-29 -225T-12 -212T4 -207L16 -210Q40 -249 71 -264T125 -280Q160 -280 196 -268T265 -235T324 -188T365 -135Q375 -115 384 -85T399 -25T408 31T412 68Q412 85 410 112T402 168T390 220T374 253Q370 247 357 232T325 198T283 158T235 120T186 91T141 80H124Q101 80 84 94T55 128T39 167T33 196Q33 220 47 249T83 308T132 367T185 420T234 461T270 485Q279 490 287 500T304 510Q306 510 306 510T308 509H309Q309 507 313 507Q316 507 321 509T333 515T345 520T354 523Q357 523 365 520T382 513T399 506T411 503Q414 503 414 504Q414 505 414 505T413 506Q413 507 416 507Q422 507 433 501T452 491Q474 480 479 463T484 422V397Q484 389 484 381T486 363Q495 353 498 332T502 286T505 233T514 182V64ZM339 385Q339 391 334 393T325 395Q303 395 276 375T225 326T182 268T157 220V197H159Q170 197 187 208T225 236T265 274T302 317T328 356T339 385Z"  />
<glyph unicode=":" horiz-adv-x="285" d="M217 355Q217 339 212 321T197 286T171 260T134 249Q99 249 78 272T57 325Q57 348 66 372T95 410Q102 415 115 424T134 433Q148 433 162 426T189 408T209 383T217 355ZM229 102Q229 86 223 67T204 30T175 1T136 -11Q122 -11 108 -5T83 11T65 31T58 49Q58 52 61 62T68 85T77 112T85 136Q99 144 112 149T126 165Q127 164 143 159T179 145T213 126T229 102Z"  />
<glyph unicode=";" horiz-adv-x="339" d="M279 325Q279 315 270 303T247 279T221 261T200 253Q182 253 164 261T133 281T111 310T102 344Q102 350 106 356T112 368Q113 379 113 391T121 412Q130 415 141 418T163 425T183 430T196 432Q219 432 235 421T260 394T274 359T279 325ZM253 42Q253 37 243 14T216 -42T179 -110T139 -178T103 -229T78 -249Q62 -249 51 -242T31 -223T19 -199T15 -173Q15 -167 26 -152T51 -116T76 -71T88 -22Q88 -14 87 -10Q96 8 102 31T119 75T145 110T188 124Q204 124 216 116T236 96T248 69T253 42Z"  />
<glyph unicode="&lt;" horiz-adv-x="591" d="M85 239V367L506 542V409L234 302V300L506 194V62L85 239Z"  />
<glyph unicode="=" horiz-adv-x="652" d="M546 387Q546 368 536 358T509 343T474 337T437 333T406 327T389 311Q344 308 300 300T205 277Q196 275 183 270T163 265Q129 265 106 281T82 340Q82 353 91 366T113 389T138 406T159 413Q163 413 178 412T212 411T246 409T265 408Q271 408 286 410T318 412Q326 412 334 416T349 421Q355 421 361 419T375 417Q397 417 414 422T444 435T466 447T484 453Q499 453 510 446T530 428T542 406T546 387ZM601 134Q601 131 601 125T598 111T593 98T584 88Q575 84 549 77T486 59T406 39T321 20T243 6T182 0H171Q162 0 150 1T128 6T110 19T102 43Q102 54 108 70T123 100T146 125T174 135Q180 135 182 133T192 130Q198 130 210 132T242 134H250Q254 133 264 133Q278 133 294 134T326 138Q362 141 402 142T481 150Q488 151 498 156T519 168T537 179T548 184Q554 184 563 180T580 168T595 152T601 134Z"  />
<glyph unicode="&gt;" horiz-adv-x="591" d="M85 62V195L357 301V303L85 410V542L506 367V239L85 62Z"  />
<glyph unicode="?" horiz-adv-x="459" d="M427 552Q424 525 411 499T380 449T340 402T301 360T271 323T257 292V291Q257 287 262 287Q265 287 267 288T272 289Q283 289 288 292T298 298T309 305T327 308Q350 308 359 297T368 270V263Q366 243 348 226T306 196T261 176T230 169Q204 169 186 177T156 199T139 228T134 261Q134 264 134 267T135 273Q139 309 166 341T225 407T284 478T317 563Q317 565 317 568T318 574Q318 588 312 604T289 620Q268 620 254 609T230 582T211 546T194 511T174 483T148 472Q125 472 106 486T86 527V533Q89 565 111 602T166 670T237 723T311 744Q343 744 365 725T401 678T421 620T428 566Q428 562 428 559T427 552ZM283 69Q283 66 277 51T261 20T239 -10T215 -24H201Q192 -24 180 -20T157 -8T139 12T131 39V45Q132 58 139 73T159 102T187 125T223 134Q241 134 253 128T271 112T280 93T283 74V69Z"  />
<glyph unicode="@" horiz-adv-x="1119" d="M1061 619Q1061 524 1051 434T1010 275T920 163T763 121Q742 121 724 127T690 146T657 180T621 233Q606 219 581 198T528 157T470 123T418 109Q389 109 369 120T334 150T314 189T307 231Q307 236 315 252T336 289T364 333T394 378T420 414T437 435Q448 445 462 457T493 484Q493 484 505 490T537 507T580 528T626 549T665 565T691 572Q704 572 718 567T745 553T766 530T774 500Q774 483 772 477T766 467T760 462T755 453Q752 436 749 413T744 369T741 331T740 311Q740 267 756 249T793 231Q819 231 852 243T908 282Q931 309 944 340T963 406T970 478T971 552Q971 619 949 661T892 728T817 762T741 771Q710 771 681 766T626 755T582 742T551 734Q522 728 502 722T465 708T434 694T404 677Q353 648 312 610T240 529T190 445T162 366Q159 334 156 301T152 239Q152 229 152 220T154 203Q163 142 175 101T207 34T260 -2T340 -13Q381 -13 416 -6T484 12T547 38T610 68Q615 65 618 58T621 44Q621 29 599 10T549 -29T493 -62T456 -81Q451 -83 437 -86T403 -93T364 -98T326 -101H294Q240 -101 198 -75T127 -8T83 81T68 171Q68 257 70 310T83 392Q88 406 95 424T112 462Q147 530 180 579T255 667T354 738T495 802Q566 830 644 836T820 843Q847 843 883 832T953 800T1013 745T1047 667Q1048 664 1050 658T1055 644T1059 630T1061 619ZM639 453Q613 453 579 432T513 378T461 310T440 244Q440 239 440 235T442 227Q452 233 464 238T491 252T523 276T563 316Q601 359 621 385T641 437Q641 441 641 444T639 453Z"  />
<glyph unicode="A" horiz-adv-x="633" d="M579 11Q578 3 571 -16T553 -56T528 -93T499 -109Q479 -109 467 -96T447 -62T437 -17T433 29T432 66T431 83Q429 98 428 109T426 134T423 162T416 201Q389 193 359 189T297 181T238 169T186 147Q173 139 165 122T150 84T135 40T116 -2T90 -33T52 -45Q38 -45 26 -37T3 -17T-12 8T-18 31V33Q-16 63 -1 85T35 130T75 179T106 243Q111 254 124 266T147 292Q152 299 156 310T165 334T175 360T186 383Q198 403 217 436T259 506T306 582T353 650T394 700T424 719Q449 719 463 710T485 684T494 643T496 591Q496 566 496 547T495 509Q495 484 497 453T504 371Q504 364 508 361T518 357T530 355T542 351Q555 341 559 323T563 295V292Q562 274 555 266T538 252T521 239T512 215Q512 212 514 203T518 182T524 157T531 133Q533 123 545 112T563 90Q567 81 570 69T575 46T578 25T579 11ZM419 423Q414 463 411 492T400 551Q388 537 377 521T355 488Q351 482 342 468T321 434T297 393T274 352T257 318T250 298Q250 290 256 288T271 286H281Q284 286 286 287Q295 288 315 294T356 308T393 322T412 330L419 423Z"  />
<glyph unicode="B" horiz-adv-x="613" d="M564 193Q561 148 531 107T461 33T376 -18T298 -37Q290 -37 291 -35T285 -33Q279 -33 270 -38T254 -44Q251 -44 236 -38T203 -24T170 -10T152 -3Q146 -3 136 -11T120 -19Q99 -19 84 -12T60 8T46 37T41 71V83Q42 104 48 119T61 146T73 165T80 181L94 318Q94 321 94 324T95 333Q95 348 94 367T90 405T87 443T85 473Q85 477 85 480T86 485V491Q86 505 81 517T75 537V538Q77 565 86 576T108 594T137 611T166 643Q181 667 209 683T269 710T334 726T391 731Q426 731 451 718T492 683T515 636T523 585V575Q521 549 513 530T494 493T471 456T448 409Q482 398 505 375T541 324T559 266T565 212Q565 207 565 203T564 193ZM406 538Q407 540 407 544T407 553Q407 561 406 571T401 589T391 604T374 610Q327 610 296 597T245 563T216 515T205 461V447Q205 432 207 414T215 390Q222 393 231 397T251 404T269 410T281 413H283Q288 411 291 411T300 411Q321 411 339 423T372 454T395 495T406 538ZM450 219Q450 248 427 269T353 291Q332 291 315 286T285 274T261 262T243 256H219Q211 256 204 263T190 275Q184 246 183 232T181 210V201Q181 198 180 190T178 171Q178 160 181 152T197 144Q201 144 202 143T204 139T206 135T211 133Q221 133 228 124T242 104T259 84T283 75Q316 75 345 85T396 114T433 157T450 211V219Z"  />
<glyph unicode="C" horiz-adv-x="515" d="M496 158Q496 155 489 148T474 133T458 118T447 106Q426 76 399 52T343 10T285 -17T231 -27Q210 -27 186 -23T138 -8T95 20T63 61Q59 69 56 81T50 105T46 127T44 140Q46 170 52 207T67 285T87 364T111 436T135 495T158 531Q177 551 198 573T243 613T294 644T352 656Q367 656 390 648T434 625T472 592T488 550V546Q487 528 476 512T451 484T420 466T393 459Q377 459 366 465T346 477T331 490T321 496Q293 496 270 477T229 427T198 361T176 292T163 234T158 200V191Q158 146 179 114T246 82Q276 82 298 91T339 115T372 145T400 175T428 198T459 208Q466 208 472 201T484 184T492 166T496 158Z"  />
<glyph unicode="D" horiz-adv-x="541" d="M516 419Q516 416 514 402T507 370T500 331T493 296Q483 240 446 195T359 113T258 49T167 4Q164 4 161 1T153 -7T145 -16T137 -21Q126 -23 110 -26T87 -29Q81 -29 74 -24T58 -18Q41 -12 26 -6T0 9T-17 30T-24 60V67Q-22 76 -16 87T-10 110Q-10 114 -12 120Q-7 121 -1 126T12 137T24 147T34 152Q40 152 44 148T55 144Q69 144 77 159T91 194T97 232T99 254L92 472Q95 509 116 549T171 621T244 675T324 696Q380 696 417 667T476 597T507 511T516 433V419ZM402 382Q402 392 401 410T397 447T391 482T383 504Q379 510 372 517T358 530T344 541T334 546Q330 546 330 544Q330 542 326 542Q318 542 311 549T296 557Q278 557 265 544T243 510T228 467T219 422T215 387T214 371Q212 357 207 326T197 261T187 200T182 167Q182 164 185 157T192 142T201 130T209 124Q239 124 271 148T331 205T376 271T394 323V326Q393 329 393 335Q393 347 396 360T402 378V382Z"  />
<glyph unicode="E" horiz-adv-x="527" d="M514 669Q513 663 511 654T505 636T498 621T488 613Q447 603 421 598T376 589T345 586T318 585H295Q289 585 275 585T250 584Q247 570 248 551T243 515Q240 506 236 499T228 481T221 458T215 424V421Q215 410 223 407T234 404Q241 404 248 402T262 400Q293 400 314 405T349 419T374 438T394 456T415 470T442 476Q455 476 466 466T484 443T496 418T500 400Q498 387 491 375T475 352T457 334T442 325Q428 320 406 318T367 309Q362 307 350 301T324 287T294 275T268 269Q264 269 263 269T262 270T261 271T257 272Q251 272 246 268T234 261H216Q208 261 200 260T182 254Q177 251 174 241T170 220T168 198T167 181Q167 177 167 171T166 158Q166 148 167 137T173 117T186 101T209 95Q249 95 282 102T342 117T392 133T432 140Q462 140 475 130T488 96Q488 92 489 89T490 80Q490 72 484 63T455 39Q429 23 401 17T344 8T288 -1T238 -21Q229 -23 218 -24T196 -27T177 -29T166 -30Q137 -30 114 -17T75 16T51 62T42 113V121Q43 125 46 144T52 187T58 232T63 260Q72 307 76 335T84 385T88 424T90 469Q92 517 101 544T122 584T143 603T152 614V615Q152 623 146 630T139 651V654Q141 674 151 687T175 708T206 719T238 723Q241 723 255 721T285 716T315 711T332 709Q358 709 371 710T394 712T418 714T457 715Q480 715 497 708T514 671V669Z"  />
<glyph unicode="F" horiz-adv-x="552" d="M630 653Q630 633 623 621T605 603T581 596T555 594H452Q442 594 419 588T369 574T317 560T279 553Q273 553 273 554T264 556Q256 556 249 553T234 548Q244 532 244 503Q244 473 237 442T228 392Q236 388 247 384T267 379Q273 379 276 381T286 383Q294 383 310 378T334 373Q337 373 351 376T382 384T413 391T432 395Q445 395 455 389T472 374T484 357T488 345V344Q487 327 479 312T459 285T433 268T404 261Q401 261 379 261T325 259T260 257T201 254Q196 245 191 232T183 207T177 184T174 171Q174 167 180 158T192 134T205 100T211 56V44Q210 27 197 12T165 -16T129 -36T102 -44Q85 -44 74 -37T55 -18T45 8T41 34V40Q41 45 47 67T62 124T78 203T90 298L97 398Q100 436 101 462T107 508T126 543T166 572Q163 582 161 593T158 613V616Q159 627 167 636T192 662Q213 666 243 672T308 685T377 699T442 712T494 721T524 725Q532 725 542 723T561 717Q584 710 598 707T619 698T628 683T630 653Z"  />
<glyph unicode="G" horiz-adv-x="584" d="M643 381Q643 375 639 358T629 328Q626 321 619 317T602 310T585 305T572 302Q569 302 564 295T552 288Q549 288 542 289T528 291T514 294T504 296Q498 296 485 290T461 277Q459 234 439 183T384 86T306 11T211 -19Q175 -19 141 -1T79 47T36 113T19 185V192Q20 195 22 205T27 228T32 255T37 279Q38 282 41 290T48 309T56 328T63 344Q75 365 99 401T149 475T200 548T239 605Q243 611 259 625T295 656T331 684T351 696Q366 696 381 691T408 676T427 652T435 620V614Q434 607 424 594T397 563T361 527T324 491T295 461T279 440Q268 436 253 421T235 393Q240 392 245 392T256 391Q268 391 279 392T295 393Q298 393 308 395T329 401T351 406T364 409Q368 409 377 408T398 407T419 405T432 404Q459 404 480 411T519 427T548 443T567 450Q576 450 589 445T614 430T634 408T643 384V381ZM340 238Q340 251 327 257T295 266T253 273T211 287Q200 293 190 302T173 313Q169 309 163 298T149 274T136 245T129 219V217Q129 203 135 184T153 149T180 121T215 109Q231 109 252 122T292 155T324 196T340 235V238Z"  />
<glyph unicode="H" horiz-adv-x="644" d="M605 379Q603 354 596 344T579 329T557 323T535 315T518 293T508 245Q508 240 508 235T507 225Q507 195 513 174T526 136T539 103T545 68V61Q544 48 534 33T508 4T477 -18T450 -27Q435 -27 421 -21T397 -4T380 21T374 51V57Q374 61 377 76T383 109T390 142T394 162Q395 175 396 192T397 227Q397 247 396 264T391 292Q345 286 288 277T177 249Q177 244 176 232T172 208T169 185T167 171Q167 168 171 159T182 140T192 120T197 106Q197 99 193 83T180 49T156 19T116 6Q84 6 63 29T41 82V87Q42 108 47 137T58 197T67 261T72 321Q72 347 73 378T77 441T85 504T101 560Q107 576 116 598T138 642T169 677T212 692Q224 692 236 687T257 672T273 650T279 626V625Q278 621 267 593T242 531T217 462T205 412Q205 408 205 406T206 402Q206 399 205 398H215Q234 398 256 399T299 401T334 403T351 404Q357 404 371 407T394 417Q398 424 400 446T404 498T412 560T426 620T452 664T492 682Q524 682 537 668T551 629Q551 627 551 624T550 618Q550 615 546 593T537 543T527 493T523 466V458Q523 447 529 447Q535 447 537 451T546 455Q551 455 565 448T590 436Q595 434 598 428T602 415T604 400T605 386V379Z"  />
<glyph unicode="I" horiz-adv-x="299" d="M253 527Q253 524 247 495T233 426T217 345T205 277Q198 228 196 203T193 171V169Q193 149 202 124T212 69V59Q211 47 201 32T177 5T149 -16T124 -25Q121 -25 113 -22T96 -13T78 -1T64 14Q61 18 58 30T52 57T47 86T45 110Q47 116 56 127T68 147Q82 244 89 316T99 435L106 541Q107 553 115 566T135 590T162 609T189 616Q208 616 220 606T239 582T250 554T253 530V527Z"  />
<glyph unicode="J" horiz-adv-x="504" d="M527 625Q531 612 531 597Q531 568 513 553T468 528T413 514T366 503Q386 443 398 388T428 296L419 169Q416 133 388 94T321 22T239 -32T162 -53Q148 -53 136 -50T109 -41T79 -29T40 -15Q35 -2 31 6T24 21T20 33T18 48V52Q19 68 22 76T30 90T40 103T52 124H62Q83 124 97 118T121 103T139 85T154 71Q159 70 163 70T171 69Q196 69 219 81T261 112T290 153T303 197Q303 203 302 219T299 249Q291 257 290 266T287 280Q283 291 275 310T257 350T241 388T230 413Q225 427 218 443T203 474Q200 477 191 477H182Q175 477 159 476T135 474Q106 474 91 493T75 534V541Q75 546 74 549T73 556Q73 564 83 575T128 606Q132 609 146 611T179 615T216 619T249 625Q252 626 258 626Q266 626 274 625T293 624H308Q319 624 332 624T360 623Q369 623 378 623T398 625Q401 626 407 630T423 639T445 647T472 651Q479 651 497 642T527 625Z"  />
<glyph unicode="K" horiz-adv-x="647" d="M609 472Q608 461 603 450T589 429T569 414T545 408Q539 408 532 410T517 412Q506 412 482 401T433 376T388 348T362 328Q368 316 392 290T451 235T524 179T598 136Q600 120 600 111T601 96Q601 91 601 87T600 78Q599 60 590 46T567 23T540 8T513 3Q505 3 489 6T465 18Q458 25 453 41T441 68Q436 77 423 89T394 113T361 138T331 158Q325 161 312 170T284 190T258 208T244 216Q240 216 230 213T209 204T189 193T180 181V169Q180 139 188 125T196 103V101Q196 84 194 64T182 25T154 -6T104 -19Q83 -19 70 -10T49 14T38 43T35 71Q35 74 35 77T36 82Q36 84 42 101T57 141T73 186T81 219Q84 249 88 279T99 353T119 464T151 632Q170 656 185 666T221 677Q253 677 268 662T283 620Q283 618 283 616T282 610Q282 608 278 593T269 557T256 512T244 466T234 430T230 413L229 389Q228 389 228 388Q228 387 229 387H234Q238 387 260 399T315 428T384 466T455 504T515 534T549 546Q577 546 593 526T609 477V472Z"  />
<glyph unicode="L" horiz-adv-x="488" d="M456 114Q455 99 446 86T425 62T399 45T374 38Q368 38 358 40T340 42Q327 42 304 37T253 23T196 4T140 -14T93 -28T63 -34Q54 -34 46 -22T30 4T19 32T14 49Q16 55 22 74T33 109Q44 113 54 131T72 177T88 236T100 299T110 358T115 402Q123 419 123 443T126 485Q130 517 143 552T169 625Q176 626 185 629T203 635T219 640T230 643Q248 643 260 636T280 618T290 593T293 567V560Q292 549 287 540T276 522T265 504T256 485Q252 469 244 440T226 376T206 304T187 237T174 186T168 165Q168 163 168 162T167 159Q167 154 168 150T169 140Q172 137 172 136T179 135Q193 135 224 143T288 162T348 180T380 189Q397 189 411 182T435 165T450 141T456 117V114Z"  />
<glyph unicode="M" horiz-adv-x="885" d="M821 465Q821 464 818 455T812 434T806 412T803 398Q803 396 801 376T796 328T791 267T788 207Q788 178 791 162Q792 157 796 144T806 116T815 86T819 62V61Q819 55 810 38T789 4T761 -28T731 -42Q717 -42 701 -32T672 -5T649 29T640 64V68Q640 70 644 82T653 109T663 136T667 152Q667 158 665 167T662 182Q664 204 667 237T673 304T680 372T685 427L678 432Q654 406 628 374T576 309T522 245T468 189T417 150T370 135Q357 135 346 152T327 190T313 230T307 253Q304 259 301 276T294 315T287 356T279 387Q254 365 235 328T200 249T169 163T137 84T97 26T44 3Q29 3 18 12T-2 35T-14 62T-19 85V86Q-19 96 -10 111T11 143T34 173T49 197Q73 220 93 258T132 338T165 417T192 474Q214 498 227 522T254 565T282 597T321 609Q337 609 348 602T367 583T379 556T383 526Q383 508 379 495Q382 489 386 462T397 403T412 347T431 322Q439 322 452 334T480 366T511 407T541 451T567 487T584 507Q605 524 620 543T651 581T684 613T728 635Q738 638 755 638Q762 638 768 638T777 637Q786 637 795 628T811 608T824 584T829 566V565L821 465Z"  />
<glyph unicode="N" horiz-adv-x="771" d="M776 537Q775 516 765 504T742 483T718 470T705 457Q697 440 691 408T679 338T668 265T659 205Q655 185 655 160T651 112Q645 92 636 71T613 29Q607 20 594 5T566 -23T540 -47T525 -57H474Q444 -57 422 -49T384 -24T354 16T328 71Q326 77 322 90T315 118T308 147T302 171Q299 185 297 211T290 266T278 319T258 356Q243 325 230 285T204 205T177 132T148 80Q148 69 142 53T125 22T97 -4T57 -15H40Q33 -15 25 -5T8 17T-5 40T-11 53Q-10 74 2 95T30 137T58 174T76 205Q89 221 103 251T132 318T161 395T187 470T210 533T227 572Q230 576 238 581T257 590T278 598T294 601Q314 601 327 591T349 564T362 527T369 489T373 456T378 435Q380 430 385 403T397 337T413 256T432 177T455 117T481 93Q496 93 510 120T538 189T562 279T580 370T592 442T597 474V475Q597 479 596 488T592 509T589 532T587 550V552Q588 564 594 580T612 611T641 636T682 647Q695 647 711 634T742 604T766 568T776 538V537Z"  />
<glyph unicode="O" horiz-adv-x="566" d="M536 533Q534 504 527 464T510 380T489 290T466 205T444 137T426 97Q418 83 401 61T340 10Q328 2 313 -4T281 -14T248 -21T219 -23Q188 -23 166 -10T128 23T103 68T87 115T77 156T69 181Q72 187 74 190T77 200V202Q77 207 74 214T71 227Q74 234 74 242Q74 244 74 245T73 249Q70 253 70 266Q70 280 73 302T81 348T91 398T103 444T113 479T120 495Q130 505 149 521T177 560Q188 586 205 602T236 618Q239 618 247 619T264 621T282 623T293 624Q305 624 317 627T346 635T386 644T445 648Q466 648 482 637T511 609T529 573T536 538V533ZM421 498Q416 505 408 512T390 523T373 531T361 534Q312 534 279 504T226 427T198 327T189 224Q189 220 191 202T200 163T216 126T244 109Q269 109 292 131T334 188T370 267T397 354T415 436T421 498Z"  />
<glyph unicode="P" horiz-adv-x="580" d="M546 538Q542 491 515 456T448 394T363 343T278 296T212 248T182 189V185Q182 171 188 161T201 141T215 118T221 85V78Q221 70 211 54T187 21T157 -8T125 -21Q110 -21 96 -14T71 6T53 34T46 67V72Q46 75 48 81T54 96T59 112T62 126Q62 135 57 136L73 381Q80 393 84 408T93 439T106 468T126 488Q131 490 143 491T164 503Q167 524 180 544T198 586Q234 607 261 626T312 661T362 684T421 693Q452 693 475 677T514 638T538 590T546 545V538ZM406 527Q406 538 398 549T375 560Q367 560 350 549T311 521T266 488T221 461L220 442Q227 436 227 425Q227 417 224 409T217 393H240Q242 394 255 401T287 420T325 444T363 472T393 500T406 525V527Z"  />
<glyph unicode="Q" horiz-adv-x="637" d="M625 44Q625 10 600 -15T529 -40Q474 -40 440 -36T381 -28T330 -19T268 -15Q260 -15 247 -17T227 -19Q221 -19 214 -14T201 -8Q198 -8 182 -9T148 -13T115 -17T95 -19Q81 -19 67 -12T43 6T26 33T19 65V67Q20 73 27 80T43 93T60 105T73 112Q70 140 70 166Q70 212 77 251T94 324T115 383T136 431Q155 474 186 518T256 599T341 659T435 682Q451 682 465 675T489 658T506 635T515 614Q515 610 517 600T522 582Q527 550 530 528T535 488T537 453T538 414Q538 368 530 325T507 243T474 170T435 106V96Q445 93 458 92T485 90Q508 90 539 98T591 115Q603 104 614 87T625 44ZM433 438Q433 443 432 461T428 500T417 537T399 553Q343 553 304 508T232 389Q229 382 223 366T211 331T199 297T192 273Q184 242 181 217T178 186Q178 165 186 152T210 132T245 123T288 120Q313 120 333 138T370 184T398 248T417 319T429 386T433 438Z"  />
<glyph unicode="R" horiz-adv-x="673" d="M654 83Q653 63 645 45T623 12T592 -10T556 -19Q549 -19 525 -6T468 28T398 71T326 115T265 148T226 162H201Q198 159 198 157T197 148Q197 145 199 136T204 115T209 92T212 75V72Q212 69 205 58T187 32T164 1T139 -29Q136 -33 122 -35T101 -37Q86 -37 74 -29T53 -7T39 19T34 44V45Q36 50 41 66T49 93Q50 95 50 100Q50 104 50 108T49 117Q49 126 53 133Q66 160 70 177T76 208T78 237T83 272Q89 299 94 340T109 424T134 503T173 557H175Q184 557 202 568T245 598T297 636T355 674T412 703T465 715Q493 715 513 702T546 670T565 626T571 581V571Q568 530 543 489T483 408T409 334T340 272Q345 268 352 262T366 251T380 241T390 237Q394 237 394 239Q394 241 398 241Q406 241 408 234T413 224Q421 218 430 217T446 212Q449 208 454 200T465 189Q472 184 482 179T502 169T520 161T533 158Q537 158 546 161T563 165Q579 165 595 159T624 141T645 116T654 86V83ZM447 554Q447 563 443 575T423 587Q412 587 398 577T370 553T346 530T334 519H331Q313 519 292 495T253 440T223 379T211 336V321H254Q275 336 307 363T370 424T423 490T447 549V554Z"  />
<glyph unicode="S" horiz-adv-x="440" d="M423 639Q423 629 417 618T399 605Q381 602 360 598T313 577Q296 566 279 552T248 522T225 487T216 448Q216 425 228 403T260 359T300 314T341 266T372 215T385 159Q385 112 363 79T305 23T223 -12T128 -29Q123 -29 116 -35T102 -42Q96 -42 91 -37T82 -29Q64 -23 53 -14T36 6T29 29T27 52Q27 61 32 71T46 89T64 103T82 109Q104 109 111 106T121 98T130 91T152 87Q170 87 189 92T224 106T250 128T261 159Q261 179 244 203T204 250T160 293T129 322Q124 328 120 332T111 343T103 360T92 385Q90 391 89 400T88 418T87 434T87 443Q87 477 111 523T172 610T257 681T350 710Q382 710 402 690T423 639Z"  />
<glyph unicode="T" horiz-adv-x="571" d="M591 611Q588 591 569 575T526 549T478 533T440 527Q437 527 431 527T417 529T402 530T391 531Q380 531 361 526T335 503Q332 492 331 479T325 450Q324 442 317 431T309 412Q307 406 305 380T300 318T291 246T279 181Q282 175 284 160T289 125T292 88T294 57Q294 47 293 45Q291 35 283 23T263 0T240 -18T221 -25Q202 -25 188 -17T163 5T147 35T141 67Q141 77 142 82Q142 88 146 94T154 110T163 133T170 167L195 494Q192 495 189 495T181 496Q168 496 152 492T119 484T92 476T77 472Q71 472 65 464T52 456Q44 456 32 461T7 475T-13 496T-22 523V528Q-21 541 -1 553T49 578T113 600T177 617T227 629T248 633Q275 636 305 639T367 645T427 653T482 663Q489 663 493 667T503 675T517 682T542 686Q568 686 580 672T593 632Q593 627 593 622T591 611Z"  />
<glyph unicode="U" horiz-adv-x="553" d="M542 561Q542 554 539 538T530 502T519 460T508 420T499 389T495 375Q496 372 496 364Q496 343 488 307T465 227T428 140T377 60T313 2T237 -21Q181 -21 148 6T96 74T72 163T64 253Q65 254 67 279T73 343T78 428T83 519Q86 537 93 556T112 592T141 618T181 629Q188 629 198 625T217 612T232 594T239 571V568Q239 567 236 547T227 496T216 427T204 354T194 288T189 243Q189 240 189 236T188 227Q188 211 190 191T197 152T212 122T237 109Q271 109 298 141T343 215T371 297T383 356Q383 360 383 365T384 376Q384 393 383 417T381 467T379 514T378 550V560Q379 577 385 599T403 642T430 676T466 690Q488 690 500 677T519 648T526 616T527 595V592Q527 584 534 576T542 563V561Z"  />
<glyph unicode="V" horiz-adv-x="584" d="M610 546Q608 516 601 503T579 482T544 463T491 427Q489 425 483 402T470 351T456 297T446 268Q441 260 431 245T409 216Q408 215 408 210V203Q408 199 405 196Q387 173 374 153T351 114T329 75T303 33Q298 24 289 12T268 -12T242 -30T212 -38Q197 -38 182 -15T151 45T120 131T92 231T67 333T47 424T35 494T30 530V531Q31 555 42 570T69 595T103 609T139 613Q153 613 161 599T174 566T180 524T181 487V466Q184 445 186 406T193 324T207 238T235 169Q242 177 258 203T295 264T337 340T378 419T411 487T428 534Q430 542 439 558T460 591T487 620T514 632Q520 632 538 630T572 624Q580 604 587 595T599 581T607 570T610 554V546Z"  />
<glyph unicode="W" horiz-adv-x="773" d="M808 601Q808 598 808 595T809 589Q809 550 782 495Q778 487 768 481T755 465Q744 437 730 395T700 310T671 227T648 165Q632 127 616 93T579 33T533 -8T470 -23Q449 -23 427 -8T387 29T356 76T337 121Q336 132 335 156T333 207T330 258T323 294Q318 288 308 266T285 218T263 170T248 143L255 135Q244 120 234 99T209 58T175 25T126 11Q104 11 91 30T70 76T61 127T58 163V167L83 533Q84 542 89 557T104 587T128 613T160 624Q169 624 179 619T199 607T214 591T221 576V565Q221 538 218 505T210 438T203 372T199 315Q199 307 199 300T201 287Q206 290 219 316T248 375T277 436T297 476Q302 485 310 496T327 517T347 535T369 542Q388 542 408 536T443 508Q449 500 450 489T452 467V446Q457 441 459 428T461 396Q461 375 459 349T454 300T449 257T445 230Q449 219 449 208T450 185T457 162T479 140Q494 152 503 164T520 189T535 216T551 246Q552 247 559 261T576 298T598 347T620 399T636 445T644 476Q644 479 641 491T635 516T628 542T625 557Q625 563 629 576T633 601V603Q649 618 660 627T682 642T702 649T725 651Q736 651 747 645T769 631T789 615T808 601Z"  />
<glyph unicode="X" horiz-adv-x="644" d="M637 100Q637 68 614 46T561 24Q540 24 515 45T464 97T413 165T365 233T326 285T299 306Q287 306 270 290T235 248T199 191T167 132T145 82T136 52Q136 26 146 8T167 -30Q156 -58 126 -75T66 -92Q59 -92 50 -87T34 -72T21 -53T16 -32Q16 2 30 45T66 132T113 219T160 296T198 352T216 378Q195 393 169 424T119 491T80 565T64 632V637Q64 642 72 651T90 670T109 685T121 692Q146 692 160 679T185 647T202 603T221 555T250 513T297 485Q319 509 337 539T374 597T412 643T455 662Q475 662 491 652T508 617V614Q507 603 498 585T474 544T443 499T413 457T390 426T380 413Q380 411 389 395T412 356T443 305T477 253T508 210T531 187Q545 179 563 175T597 164T625 142T637 100Z"  />
<glyph unicode="Y" horiz-adv-x="529" d="M548 613Q545 589 538 576T520 553T496 529T466 491Q464 488 459 483T446 470T432 455T419 440Q398 414 390 396T379 363T377 335T374 307Q369 297 363 287T345 268Q313 235 298 206T274 146T262 84T249 14Q244 6 232 -2T215 -14Q195 -27 188 -30T173 -33H158Q132 -33 113 -19T94 19Q94 21 94 23T95 27Q99 58 117 93T157 167T196 243T216 318Q202 330 186 349T152 388T115 425T76 450Q70 452 63 459T47 475T31 495T15 515Q15 529 12 545T8 568Q9 575 14 585T26 605T44 622T68 629Q71 629 78 629T94 626T110 621T121 613Q134 593 152 575T193 537T239 496T288 451Q289 452 301 470T331 513T371 568T415 623T457 664T491 681Q521 681 535 670T550 632Q550 627 550 623T548 613Z"  />
<glyph unicode="Z" horiz-adv-x="754" d="M739 117Q739 69 708 44T633 19Q618 19 598 26T554 41T502 57T442 64Q374 64 318 47T217 10T142 -27T95 -44Q78 -44 66 -34T46 -9T34 21T30 48Q30 63 37 73T55 91T75 108T90 125Q95 135 111 164T147 234T190 318T232 403T263 475T275 518Q275 529 269 538T245 548Q236 548 212 538T160 517T111 495T86 485Q69 485 59 495T44 520T37 549T35 570Q35 587 55 602T105 631T173 656T244 674T306 686T344 690Q382 690 408 666T435 599Q435 574 423 539T390 462T346 377T297 293T253 217T220 158Q223 155 225 152T235 148Q241 148 261 154T298 163Q336 171 375 174T450 178Q472 178 493 176T537 174Q555 174 575 177Q582 177 593 179T614 183T634 187T647 189Q664 189 680 182T710 165T731 141T739 117Z"  />
<glyph unicode="[" horiz-adv-x="455" d="M418 49Q418 31 409 21T374 -6Q342 -28 306 -37T219 -47Q184 -47 161 -35T121 -3T96 41T82 89T72 134T63 169V249Q63 259 65 278T69 318T73 359T75 392Q75 412 75 442T74 502T73 554T72 579Q72 595 76 612T81 647Q83 649 83 654Q83 660 81 661Q102 682 113 702T135 739T160 764T201 774Q204 774 212 774T230 773T247 772T259 771Q269 771 275 776T291 788T313 799T350 805Q362 805 373 794T392 768T406 740T412 723Q407 720 400 711T383 691T362 674T339 666Q333 666 332 667T325 669Q321 669 313 670T295 671Q289 671 283 670T272 667Q261 663 244 649T219 620Q213 607 211 591T208 557T206 522T200 490Q194 443 190 404T177 316Q177 304 177 298T176 284T174 262T172 219Q181 192 183 162T193 107T218 66T272 49Q298 49 309 57T327 76T339 95T357 104Q367 104 378 99T398 86T412 68T418 49Z"  />
<glyph unicode="\" horiz-adv-x="402" d="M433 90Q441 73 446 55T451 20Q451 -6 439 -27T398 -63Q392 -66 386 -66Q371 -66 355 -53T326 -24T304 6T293 24Q278 57 255 126T205 278T147 447T88 597Q86 600 73 618T45 658T18 697T4 717Q-3 734 -3 747Q-3 774 13 799T52 835Q66 842 79 842Q93 842 105 835T126 818T141 795T153 774Q175 726 191 669T223 552T255 433T296 322Q298 311 303 292T313 252T324 216T330 196Q337 182 351 174T380 159T409 142T431 116Q433 112 433 103T433 90Z"  />
<glyph unicode="]" horiz-adv-x="451" d="M396 64Q392 42 376 22T346 -8Q342 -11 326 -14T287 -20T238 -25T187 -30T143 -34T114 -35H102Q94 -35 86 -35T71 -32Q65 -30 59 -20T49 4T42 28T39 42Q41 53 48 62T64 79T85 91T107 95Q110 95 118 93T136 89T154 84T166 82Q217 82 237 98T262 144L257 378Q260 399 260 434Q260 465 258 500T251 566T241 617T228 638Q219 637 206 634T180 626T157 619T143 616Q117 616 97 632T77 672Q77 674 77 676T78 680Q80 691 94 704T128 731T173 758T219 782T260 798T286 805Q296 805 312 794T342 765T367 729T378 694Q378 685 373 677Q376 664 379 643T382 598Q382 584 381 571T375 548Q376 545 376 537Q376 526 375 512T371 484Q369 463 368 442T367 382Q367 355 367 317T368 222Q368 209 369 195T371 166V157Q371 145 375 135T384 115T393 96T397 74Q397 68 396 64Z"  />
<glyph unicode="^" horiz-adv-x="591" d="M411 298L293 569H290L179 298H18L227 712H355L572 298H411Z"  />
<glyph unicode="_" horiz-adv-x="500" d="M500 -152V-236H0V-152H500Z"  />
<glyph unicode="`" horiz-adv-x="500" d="M319 521Q323 516 323 510Q323 494 298 494Q283 494 264 501T209 538Q209 548 200 552T185 563Q165 586 151 600T127 628T114 659T109 704V714Q129 720 144 729T176 738Q191 738 202 728T223 702T241 670T256 640Q279 599 292 571T319 521Z"  />
<glyph unicode="a" horiz-adv-x="676" d="M728 110Q728 97 716 84T685 57T644 33T602 13T568 -1T549 -6H514Q507 -6 494 1T466 17T440 38T423 59Q409 84 401 100T388 129T378 152T370 174Q343 138 310 98T243 25T174 -31T110 -53Q97 -53 80 -50T48 -38T22 -15T11 21Q11 29 17 46T34 85T57 128T81 170T102 204T115 221Q175 282 220 329T301 408T369 457T432 474Q449 474 466 466T496 445T518 415T527 379Q527 371 521 347T508 295T495 243T489 212Q489 169 510 138T579 106Q599 106 614 110T642 122T665 136T685 148Q692 152 699 152Q707 152 712 147T721 135T726 121T728 110ZM350 311Q338 311 320 299T282 268T242 225T206 177T178 130T163 91Q173 97 183 102T205 118T232 143T270 183Q311 230 330 259T350 306V311Z"  />
<glyph unicode="b" horiz-adv-x="474" d="M437 322Q437 303 437 293T436 276T431 261T422 239Q405 199 372 163T301 96T226 39T164 -8Q160 -11 152 -14T134 -20T116 -25T104 -27Q89 -27 75 -21T49 -6T31 16T24 42Q24 44 26 56T33 86T41 122T49 158T55 187T58 201Q58 204 54 211T43 229T33 251T28 277Q28 291 37 305T57 333T80 359T96 383Q101 394 106 423T117 491T128 573T138 656T144 725T147 769V856Q147 869 152 881T167 904T188 920T216 927Q242 927 257 908T272 870Q272 869 270 858T265 832T259 803T254 783Q239 738 228 684T206 575Q204 564 199 546T189 510T181 478T177 461V447Q178 445 178 445H179Q180 445 180 445T183 446Q183 446 193 449T217 457T244 466T264 470Q291 470 321 460T377 431T420 385T437 322ZM325 294Q325 312 318 328T282 345Q256 345 229 328T178 286T139 231T124 178Q124 178 126 169T134 149T146 129T165 120Q180 120 207 141T260 192T305 250T325 294Z"  />
<glyph unicode="c" horiz-adv-x="392" d="M448 124Q448 105 435 87T383 42Q353 22 320 7T253 -19T190 -36T136 -42Q109 -42 90 -33T57 -7T37 31T30 75Q30 95 33 119T41 168T52 219T66 268Q70 280 82 296T100 330Q106 354 125 383T168 437T220 478T270 495Q281 495 294 491T318 479T337 458T345 427Q345 410 330 395T291 362T240 322T189 271T150 203T134 112Q134 92 143 77T176 61Q233 61 298 85T433 148Q435 149 437 149Q441 149 443 145T446 137T447 128T448 124Z"  />
<glyph unicode="d" horiz-adv-x="589" d="M710 826Q710 816 693 777T649 681T591 555T534 418T490 287T472 182Q472 160 479 147T495 125T511 106T519 83Q519 70 512 51T494 14T469 -16T438 -29Q418 -29 404 -14T381 20T368 57T364 83Q364 84 368 99T378 136T390 185T403 233T413 271T417 287V309Q405 303 395 302T381 294Q368 276 346 248T297 187T238 122T176 63T116 21T64 4H34Q24 4 15 14T-2 37T-13 61T-18 72Q-18 86 -9 101T11 129Q36 156 58 189T103 255T153 316T216 363Q240 375 254 388T283 413T316 432T368 440Q374 440 389 433T416 424Q422 417 426 408T436 389Q458 441 479 499T520 615T559 731T596 841Q598 848 605 855T620 869T637 879T649 883Q656 883 666 879T687 868T703 850T710 826Z"  />
<glyph unicode="e" horiz-adv-x="432" d="M416 398Q416 378 403 354T370 305T323 257T272 214T223 183T184 167Q181 167 176 160T166 143T158 123T154 105Q154 91 161 81T178 71Q196 71 215 82T253 107T288 132T318 144Q324 144 330 139T342 126T351 111T355 99Q355 85 342 69T309 35T264 1T217 -28T177 -49T154 -57Q123 -57 102 -41T68 -1T50 48T44 90Q44 104 46 115T52 135T58 153T61 174Q61 182 57 189T47 203T38 221T33 245Q33 273 41 286T62 304T91 310T122 317T149 333T169 370Q169 370 178 378T202 399T234 425T268 452T298 472T318 480Q357 480 386 459T416 398Z"  />
<glyph unicode="f" horiz-adv-x="457" d="M557 827Q557 816 553 803T541 777T521 756T493 745Q489 750 485 757T472 772Q429 755 397 727T344 654Q332 627 319 597T295 537T277 483T270 442Q270 437 273 434T280 430T287 428T291 427Q295 427 302 429T317 433T332 438T342 440Q347 440 349 439T360 438Q363 438 373 440T394 446T416 452T429 455Q447 455 459 446T479 423T490 397T494 374Q494 365 489 355T475 336T458 321T441 315H418Q414 315 412 318T405 326T389 335T357 339Q338 339 319 339T284 335T254 326T234 308Q226 296 218 262T201 180T183 74T165 -45T147 -168T129 -282Q126 -300 119 -325T98 -374T65 -415T18 -432Q12 -432 6 -425T-10 -412Q-14 -410 -19 -409T-30 -405Q-33 -399 -37 -391T-46 -375T-53 -360T-56 -349Q-56 -334 -49 -316T-30 -284Q-19 -274 -8 -267T21 -248Q26 -228 37 -185T61 -86T90 29T117 142T136 235T144 289V304Q125 311 115 311Q112 311 103 310T84 308T65 305T52 304Q39 304 26 306T3 315T-14 332T-21 360Q-21 378 -12 389T11 405T37 411T57 413Q63 413 77 411T99 409Q104 409 117 411T143 415T167 421T179 428Q189 463 194 490T205 544T219 602T243 677Q261 725 284 767T338 840T404 889T485 907Q502 907 515 899T538 879T552 853T557 827Z"  />
<glyph unicode="g" horiz-adv-x="566" d="M515 345Q515 342 514 331T510 307T506 278T504 250Q502 208 502 140T496 -8T469 -167T410 -312T305 -418T140 -459Q119 -459 91 -456T33 -447T-28 -432T-81 -410T-119 -382T-134 -347Q-134 -339 -133 -326T-126 -299T-113 -272T-90 -249L-84 -251Q-82 -253 -79 -254T-72 -260Q-65 -270 -58 -283T-43 -303Q3 -341 56 -360T167 -379Q209 -379 242 -362T302 -316T346 -252T377 -179T395 -105T402 -42V80Q399 94 398 109T394 140T389 169T378 193Q376 191 361 178T325 148T277 110T227 73T182 45T153 34Q149 34 149 36Q149 38 144 38Q142 38 134 36T115 30T96 24T83 21Q69 21 54 30T27 53T7 82T-1 109Q-1 173 19 221T70 305T137 363T207 402T266 425T298 437Q318 449 344 455T395 461Q406 461 421 452T455 435Q476 427 488 418T506 399T513 379T515 359V345ZM373 336Q368 336 365 336T356 337Q306 337 264 320T190 276T139 216T119 152Q120 149 127 148T144 147Q152 147 159 147T168 148Q190 157 221 180T282 231T337 287T373 336Z"  />
<glyph unicode="h" horiz-adv-x="575" d="M639 99Q639 81 619 62T572 25T520 -3T484 -14Q456 -14 435 3T396 47T366 106T344 169T327 225T313 261H302Q285 248 270 228T243 188T221 151T207 128Q203 123 193 110T169 80T140 44T109 9T81 -17T61 -27Q47 -27 35 -16T15 9T2 37T-3 57Q-3 60 0 70T7 94T15 120T23 143Q45 204 68 263T114 376T155 477T188 561Q190 566 196 582T212 621T233 667T256 711T280 744T302 757Q339 757 362 736T385 678Q385 675 368 647T325 578T270 488T214 392T171 309T154 254Q154 252 154 251T155 249Q179 267 200 291T244 338T288 377T337 393Q375 393 396 372T429 320T447 253T460 185T480 133T518 112Q521 112 533 116T559 125T586 135T605 139Q619 139 629 128T639 99Z"  />
<glyph unicode="i" horiz-adv-x="374" d="M348 739Q348 729 344 717T332 695T315 678T297 671Q291 671 273 673T244 682Q236 685 230 698T215 723Q207 734 200 741T185 756T174 773T170 800Q170 829 191 852T250 876Q271 876 280 872T294 857T307 833T332 798Q335 795 337 787T342 769T346 751T348 739ZM440 178Q440 160 420 135T375 84T325 40T294 14Q292 12 279 4T250 -13T217 -29T193 -37Q190 -37 183 -37T166 -36T150 -35T139 -34Q135 -34 125 -24T105 0T86 25T78 38Q67 64 65 92T61 143V150Q61 169 63 198T71 261T86 328T109 389T139 433T178 450Q186 450 195 441T212 421T225 398T231 383Q231 380 224 355T207 295T190 224T182 165Q182 158 184 147T188 123T192 102T197 91H204Q223 91 244 98T286 116T324 140T355 165Q359 169 368 175T387 188T405 198T416 203Q424 203 432 195T440 178Z"  />
<glyph unicode="j" horiz-adv-x="313" d="M227 753Q227 740 224 724T214 692T192 667T157 656Q141 656 126 660T99 673T80 695T73 728Q73 734 78 750T93 783T114 813T141 826Q147 826 147 823T153 819Q157 819 158 819T159 820T160 821T164 822Q175 822 186 813T207 791T221 768T227 753ZM241 105Q241 49 227 -19T182 -153T100 -273T-23 -359Q-29 -361 -37 -364T-53 -369T-68 -372T-78 -374Q-81 -374 -89 -375T-106 -377T-122 -380T-133 -381Q-161 -381 -188 -373T-236 -347T-271 -303T-287 -241Q-288 -235 -292 -232T-296 -222Q-296 -218 -294 -209T-288 -191T-276 -176T-260 -169Q-244 -169 -237 -177T-225 -199T-216 -228T-203 -256T-178 -278T-133 -287H-110Q-61 -287 -21 -261T49 -195T98 -108T124 -19Q124 -16 127 -11T134 0T141 11T144 19Q144 102 129 162T94 265T60 334T44 378Q44 389 48 404T62 432T86 455T121 465H128Q137 465 152 459T188 427Q197 416 198 405T200 381V375Q200 362 203 352Q210 329 217 299T229 236T238 169T241 105Z"  />
<glyph unicode="k" horiz-adv-x="603" d="M705 45Q705 34 699 23T682 4T660 -10T637 -15Q612 -15 577 -3T503 26T421 64T340 102T268 132T212 144Q206 144 203 138T198 125Q196 116 196 106Q196 93 199 82T206 61Q210 50 216 42Q216 -61 143 -61Q130 -61 119 -53T98 -34T84 -13T78 4Q78 31 81 42T91 66T105 97T123 158Q112 162 97 163T68 169T44 184T34 216Q34 235 48 255T92 275Q98 275 108 272T125 268H131L145 375Q131 368 116 368Q93 368 77 381T61 405Q61 416 68 436T102 470Q109 474 120 474T142 476T164 481T178 495Q181 505 183 525T188 570T195 622T208 673Q211 683 214 708T225 758T247 802T288 822Q302 822 314 813T336 792T350 765T355 739Q355 738 349 722T334 683T315 631T295 577T280 529T274 498Q279 498 293 494T325 481T364 461T401 434T429 399T440 359Q440 332 425 311T389 274T342 247T297 229Q304 225 327 214T383 187T453 155T523 124T581 101T616 92Q636 92 649 96T671 106Q685 95 695 77T705 45ZM338 349Q338 356 332 364T316 379T293 390T264 395Q254 395 249 394L224 279Q234 281 253 290T291 310T324 331T338 346V349Z"  />
<glyph unicode="l" horiz-adv-x="397" d="M462 148Q438 119 403 87T327 29T246 -15T171 -33Q137 -33 112 -19T71 17T47 68T39 125Q39 126 46 154T65 225T90 320T115 422T134 514T142 580Q142 590 141 594Q145 604 148 628T159 676T181 719T221 738Q242 738 258 730T285 709T301 682T307 654Q307 625 293 601T267 552Q265 524 246 473T204 362T163 239T144 125Q144 115 151 107T168 94T185 85T195 82H212Q245 82 281 98T349 133T406 169T441 186Q447 186 453 183T462 174V148Z"  />
<glyph unicode="m" horiz-adv-x="917" d="M978 133Q967 119 943 95T891 47T833 6T783 -11Q763 -11 748 2T720 36T698 84T683 137T674 187T671 226V235L666 243Q649 227 623 194T566 128T507 69T455 44Q429 44 414 59T392 96T382 138T379 171Q379 188 386 214T394 260Q394 273 381 273Q367 273 347 250T301 191T248 116T190 40T128 -18T67 -42Q52 -42 39 -35T16 -17T0 7T-6 34Q-6 47 5 75T28 134T52 190T63 225V227Q72 242 81 265T97 311T109 357T114 393V400Q118 406 123 419T138 446T160 470T193 481Q211 481 224 470T245 445T257 416T261 394Q261 388 251 376T237 355Q233 343 224 320T202 272T179 223T158 188Q158 182 163 177Q176 191 196 214T241 264T291 316T343 364T392 398T432 412Q468 412 484 396T505 355T511 301T514 245Q550 274 574 298T616 342T646 375T672 399T700 414T739 419Q741 419 750 411T762 400Q780 380 786 362T792 326Q792 307 789 288T785 245Q785 231 788 216Q791 203 795 192Q798 183 800 175T803 165Q809 151 821 145T850 138Q866 138 884 143T918 156T947 173T968 191Q969 191 973 190T983 187T992 179T997 167Q997 161 993 153T978 133Z"  />
<glyph unicode="n" horiz-adv-x="692" d="M755 101Q746 89 728 71T690 35T649 2T616 -19Q614 -20 607 -23T591 -29T571 -35T552 -38Q508 -38 476 -15T411 53Q406 72 399 105T384 171T371 226T361 250Q359 250 344 231T305 183T252 120T191 58T132 10T81 -10Q65 -10 52 0T29 26T14 56T8 82Q8 88 19 120T44 193T69 271T81 323V326Q90 349 94 370T105 409T128 436T173 447Q190 447 201 440T220 420T231 394T234 366Q234 352 225 329T203 281T182 235T172 203Q172 195 173 194T177 192Q190 209 211 234T255 286T300 342T335 393Q345 410 360 414T392 419Q425 419 443 395T472 334T488 255T502 176T525 116T567 91Q599 91 623 99T666 119T700 143T730 162Q733 163 735 163T741 164Q753 164 761 156T770 135Q770 127 767 119T755 101Z"  />
<glyph unicode="o" horiz-adv-x="479" d="M455 345Q455 313 448 276T426 203T392 136T345 87Q331 77 318 61T289 33Q280 26 265 18T233 3T197 -9T163 -14Q143 -14 119 -7T72 15T34 50T19 95Q19 129 26 150T44 191T62 232T73 291Q118 333 150 363T213 414T276 443T356 453Q376 453 394 442T425 415T447 380T455 345ZM371 325Q370 331 367 336Q365 340 362 343T354 347Q342 347 333 344T313 335T288 321T254 304Q245 300 234 291T212 271T193 249T184 231Q182 225 180 219T177 210Q168 197 161 190T150 175T143 159T140 131Q140 123 142 117T148 105H178Q188 105 204 112T237 129T267 146T284 158Q294 165 308 186T337 232T361 283T371 325Z"  />
<glyph unicode="p" horiz-adv-x="477" d="M457 352Q457 341 455 325T449 293T443 267T438 253Q436 230 422 198T383 132T329 63T268 3T206 -40T150 -57Q144 -57 130 -51T109 -44Q104 -44 100 -54T90 -79T79 -115T70 -157Q59 -206 49 -269Q49 -277 58 -287T79 -310T99 -336T109 -364Q109 -372 102 -394T82 -439T52 -481T15 -500Q4 -500 -6 -491T-25 -472T-37 -452T-42 -442Q-42 -371 -39 -320T-28 -226T-12 -144T10 -56T37 55T68 205Q79 226 83 242T90 272T97 301T112 333Q115 338 122 342T139 352T160 364T181 378Q188 384 199 393T223 413T245 436T260 461Q281 468 287 473T296 482T307 486T340 488Q370 488 392 475T429 442T450 397T457 352ZM356 326Q355 338 351 348Q348 356 344 363T332 370Q315 370 294 351T251 302T208 237T171 169T145 112T135 80Q135 74 137 71T143 64Q151 64 161 63T177 61Q195 61 222 83T275 136T319 199T338 249Q338 251 338 251T337 254Q337 255 340 264T346 285T353 308T356 326Z"  />
<glyph unicode="q" horiz-adv-x="580" d="M558 336Q558 322 556 314T550 299T538 281T519 253Q503 208 486 161T452 72Q449 51 439 22T422 -33Q419 -46 412 -82T398 -160T386 -236T380 -282Q380 -285 382 -293T388 -312T396 -334T404 -354Q407 -360 411 -369T418 -383Q411 -397 405 -414T390 -445T368 -469T336 -479Q316 -479 303 -468T282 -442T271 -411T268 -383Q268 -377 271 -370T274 -355Q274 -351 272 -345Q283 -342 288 -330T295 -299T298 -260T302 -217Q308 -174 313 -142T325 -80T336 -23T345 40Q348 63 356 87T373 140L370 155Q356 146 336 130T292 95T242 57T190 22T142 -4T102 -14H87Q72 -14 59 -5T35 17T19 46T13 72Q13 86 26 112T64 170T121 238T193 308Q268 373 321 407T399 453Q401 454 406 458T418 462Q453 462 469 455T496 434T519 403T558 364V336ZM394 331L390 333Q384 335 380 335Q374 335 368 332Q356 324 341 312T310 286T276 257T244 226Q202 186 177 159T140 112Q163 112 193 134T275 201Q328 246 361 280T394 329V331Z"  />
<glyph unicode="r" horiz-adv-x="436" d="M483 351Q483 341 477 331T462 314T442 301T422 296Q416 296 408 297T394 299Q386 299 375 308T357 317Q342 317 324 302T290 266T260 226T243 200Q237 190 231 176T219 145T205 112T191 83V79Q191 69 186 52T172 17T149 -12T117 -25Q96 -25 82 -11T61 22T50 59T47 86Q47 92 52 105T62 144Q65 167 67 197T70 253Q70 259 70 264T69 275Q76 297 77 330T83 395T100 449T141 472Q156 472 170 466T195 451T213 429T220 404Q220 398 212 381T198 349L202 322Q204 324 212 333T232 355T257 382T283 408T307 427T326 435Q340 435 366 432T419 419T464 393T483 351Z"  />
<glyph unicode="s" horiz-adv-x="350" d="M385 537Q385 521 382 503T371 472Q352 469 331 465T290 452T255 427T234 381Q228 351 224 317T220 247Q220 235 220 224T222 201Q219 187 216 166T212 128Q212 97 208 64T193 -4T163 -71T114 -136Q101 -143 85 -155T52 -180T20 -202T-4 -211Q-40 -211 -63 -193T-87 -143Q-87 -125 -79 -109T-63 -86Q-55 -87 -47 -88T-28 -89Q-6 -89 17 -80T61 -38Q89 5 98 53T112 148Q113 153 113 158T113 170Q113 193 111 224T109 291Q109 323 112 356T126 423T155 486T205 543Q209 548 213 555T225 568Q229 571 241 575T266 582T292 588T309 590Q321 590 334 587T359 578T378 562T385 537Z"  />
<glyph unicode="t" horiz-adv-x="409" d="M514 575Q514 566 510 555T499 533T481 515T457 507Q451 507 438 508T417 510Q408 510 384 505T333 493T283 479T250 465Q246 461 240 443T226 400T210 343T196 284T184 232T177 197Q175 189 174 173T172 137Q172 122 173 107T179 80T192 61T212 53H243Q266 53 295 66T352 95T401 128T427 152Q432 161 447 163T468 165H470Q473 165 475 161T480 152T484 142T485 136Q485 120 482 110T471 92T454 77T431 59Q406 39 380 19T325 -17T267 -43T203 -53Q162 -53 134 -32T90 20T66 84T59 144Q59 161 63 187T75 242T91 302T108 359T123 405T133 431Q124 438 112 444T88 458T68 478T59 508Q59 551 87 565T167 580Q192 633 209 675T249 764Q263 768 264 779T269 798Q282 808 289 814T301 824T309 828T320 829H336Q350 829 359 819T374 796T382 769T385 750Q385 741 372 719T342 674T311 631T296 610V599Q297 598 297 596V595Q297 594 302 594Q308 594 313 596T326 599Q332 599 335 597T344 595Q357 595 375 599T412 607T445 616T465 620Q489 620 501 605T514 575Z"  />
<glyph unicode="u" horiz-adv-x="565" d="M536 -34Q536 -54 526 -66T503 -86T475 -96T452 -99Q433 -99 419 -84T396 -45T380 6T371 58T366 100T365 121Q365 129 361 142T354 171Q351 171 350 173T345 178Q336 167 319 150T281 112T237 72T190 35T146 8T110 -3Q71 -3 46 23T20 86Q20 109 25 140T39 206T58 274T77 335T92 380T100 400Q104 406 112 410T128 418T143 422T155 424Q165 424 175 420T194 407T207 389T213 366Q213 355 203 326T179 265T156 206T145 173V163L149 158Q221 205 274 250T357 341Q360 347 368 351T385 359T404 364T421 366Q443 366 455 357T474 334T481 301T482 265V251Q482 244 482 238T483 226Q485 201 485 171T485 110Q486 109 488 105T493 97Q493 87 491 78T489 59Q489 47 496 34Q502 23 509 16T522 2T532 -13T536 -34Z"  />
<glyph unicode="v" horiz-adv-x="489" d="M538 421Q538 395 524 376T489 337T448 296T413 246Q398 214 371 183T322 121Q316 113 310 103T296 83T283 64T272 49Q264 40 250 26T222 -2T196 -24T181 -34H154Q138 -34 118 -26T90 8Q85 24 82 45T77 89T73 137T67 182Q62 205 54 235T39 292T25 340T19 363Q19 377 25 391T43 416T68 433T97 440Q103 440 113 433T133 417T151 400T159 387Q163 370 165 361T169 343T171 325T175 298T181 251T193 177Q195 174 195 174T200 173Q206 173 230 197T284 253T340 317T375 366Q380 374 383 391T389 421Q393 439 405 449T431 465T459 471T481 472Q503 472 520 458T538 421Z"  />
<glyph unicode="w" horiz-adv-x="819" d="M805 438Q805 430 797 420T782 389Q766 336 757 303T741 248T730 214T722 191T714 170T701 140Q689 110 665 81T612 30T550 -7T490 -21Q447 -21 420 1T374 55T346 124T326 193Q301 167 274 128T217 50T159 -15T100 -42Q83 -42 72 -29T53 1T42 35T39 57Q39 80 42 112T50 178T59 246T63 307Q63 313 63 318T62 328V331Q62 341 66 355T76 381Q82 393 91 399T109 408T125 411T134 412Q168 412 185 391T202 344Q202 340 200 324T194 290T189 256T186 237V222Q233 256 259 289T305 349T341 392T387 409Q418 409 432 388T450 334T455 263T458 193T471 139T509 117Q528 117 548 133T588 175T625 231T654 291T674 344T682 379Q682 381 676 391T663 414T650 444T644 477Q644 497 653 511T675 534T704 547T733 552Q756 552 770 540T792 511T802 474T805 438Z"  />
<glyph unicode="x" horiz-adv-x="500" d="M520 438Q520 412 507 389T473 347T429 310T385 277T351 247T337 219Q337 201 353 184T388 148T424 111T441 68Q441 54 435 42T418 20T394 6T368 0Q332 0 314 20T285 64T265 109T240 129Q225 129 206 116T167 80T128 30T95 -30Q90 -41 80 -71T64 -143Q50 -151 35 -158T10 -165Q1 -165 -9 -161T-29 -151T-43 -135T-49 -116Q-49 -113 -49 -105T-47 -88T-44 -71T-38 -58Q13 -1 36 30T71 76Q86 94 103 113T135 151T158 183T168 205Q168 207 156 217T130 242T104 278T92 322Q92 338 100 349T121 368T146 378T171 381Q184 381 196 370T218 344T238 318T255 306Q269 306 284 319T317 353T352 397T389 441T427 475T466 489Q492 489 506 474T520 438Z"  />
<glyph unicode="y" horiz-adv-x="556" d="M536 379Q536 376 532 350T521 289T507 216T494 150Q488 118 482 82T470 8T454 -65T433 -135Q409 -200 371 -262T280 -373T158 -453T3 -483Q-8 -483 -32 -480T-81 -467T-124 -440T-143 -393Q-143 -352 -123 -328T-82 -294L-69 -301Q-60 -313 -48 -327T-21 -354T8 -375T38 -383Q76 -383 107 -374T166 -345T221 -294T279 -219Q289 -204 300 -184T322 -141T338 -92T344 -41Q344 -36 344 -30T342 -19Q350 -5 356 19T366 73T373 134T376 192Q376 196 376 200T377 209Q377 216 375 220Q353 198 324 175T262 132T194 99T123 86Q106 86 87 93T53 112T27 142T16 178Q16 191 21 212T35 259T54 310T74 357T92 394T106 412Q115 417 133 420T159 424Q174 424 185 417T205 400T217 377T221 355Q221 344 215 330T200 301T181 269T164 239V231Q166 228 169 225T179 222Q189 222 206 233T245 261T289 299T331 341T365 380T384 409Q389 423 406 434T437 455Q440 457 447 459T462 461Q479 461 492 454T516 434T531 408T536 379Z"  />
<glyph unicode="z" horiz-adv-x="561" d="M662 75Q662 56 646 40T600 10Q583 2 562 -2T521 -9T486 -13T464 -14Q458 -14 447 -13T427 -11Q391 -11 348 -23T261 -56T179 -108T115 -174Q113 -176 106 -178T91 -183T74 -186T62 -188Q49 -188 38 -177T20 -152T8 -125T3 -105Q3 -83 12 -70T37 -43T71 -11T109 38Q114 47 132 77T171 149T208 235T224 318Q224 332 216 343T192 360Q176 360 156 355T117 343T79 328T49 315Q20 331 14 346T8 379V388Q8 399 25 411T70 436T129 458T191 477T242 490T270 495Q291 495 305 480T328 446T340 407T344 379Q344 331 330 287T296 200T256 119T222 42Q254 53 276 59T317 71T358 81T409 93Q430 97 464 103T527 117Q553 125 577 138T619 165Q627 159 634 149T648 127T658 102T662 75Z"  />
<glyph unicode="{" horiz-adv-x="437" d="M393 27Q393 10 374 -4T331 -27T282 -42T248 -48Q246 -48 238 -48T219 -47T199 -45T184 -40Q171 -33 156 -17T126 20T101 59T88 91Q79 131 79 163Q79 189 86 208Q88 213 90 222T93 240T96 257T97 267Q97 285 86 296T61 316T36 336T25 365Q25 381 33 392T53 412T78 430T101 452Q103 455 108 461T118 473T126 484T130 491Q130 494 124 503T112 523T99 544T93 560V562Q75 573 72 589T69 621Q69 652 75 671T97 705T144 733T222 764Q228 766 237 769T255 775T271 780T283 782Q306 782 325 769T344 738V727Q344 719 339 709T312 681Q306 676 289 676T259 672Q211 661 192 647T172 603Q172 588 178 579T191 559T204 529T210 476Q210 451 204 437T190 414T176 394T170 368Q170 365 176 358T190 341T204 322T211 305V304L207 240Q206 225 201 214T191 192T181 168T176 133Q176 125 182 109T200 76T230 46T275 33Q297 33 310 34T331 38T345 41T359 43Q370 43 381 38T393 27Z"  />
<glyph unicode="|" horiz-adv-x="402" d="M307 841Q307 788 298 730T276 610T255 489T245 371Q242 360 239 341T232 301T226 264T224 243Q224 227 232 214T251 188T271 160T280 128Q280 123 276 115T272 102Q272 78 266 56T248 17T218 -11T174 -21Q156 -21 145 -4T128 35T120 77T117 102Q117 126 121 167T131 259T145 370T158 488T169 605T173 709Q173 713 169 735T161 782T152 829T148 853Q148 871 156 886T178 914T207 932T241 939Q263 939 276 929T296 903T305 871T307 841Z"  />
<glyph unicode="}" horiz-adv-x="424" d="M399 351Q399 342 391 331T373 309T352 289T337 272Q329 261 328 246T323 219L364 86Q360 59 354 41T341 10T326 -12T311 -30Q307 -37 292 -50T262 -69Q259 -71 242 -74T205 -82T167 -90T141 -93Q118 -93 101 -86T72 -69T54 -45T48 -20Q48 -9 62 -4T87 1Q95 1 97 0T103 -2T111 -5T132 -6H167Q180 -6 192 -5T215 3T233 22T246 57Q248 61 256 69T264 83Q264 87 261 97T258 117Q241 138 231 160T216 202T210 233T208 248Q208 264 213 274T224 291T235 304T240 318Q240 318 233 329T216 356T199 387T191 412Q191 433 196 453T210 490T229 521T248 544Q249 545 250 553T253 573T254 595T255 616V623Q254 628 248 639T232 663T210 684T186 693Q168 693 160 689T145 681T129 673T102 669Q86 669 75 674T57 688T47 705T44 721Q44 739 62 752T106 773T157 785T198 789Q204 789 215 788T240 785T263 781T277 776Q292 765 307 749T335 715T356 677T364 640Q364 617 359 601T347 572T330 547T313 519T300 484T293 435Q296 433 298 428T302 418T306 409T311 404Q318 404 323 405T335 407Q368 407 383 389T399 351Z"  />
<glyph unicode="~" horiz-adv-x="591" d="M560 298Q526 249 490 225T401 200Q376 200 347 206T288 231Q265 245 243 254T195 263Q178 263 166 256T144 237T127 215T115 195L30 295Q45 316 61 333T95 364T136 385T188 393Q220 393 247 385T301 363Q330 346 351 338T396 330Q411 330 423 337T444 354T461 376T475 398L560 298Z"  />
<glyph unicode="&#xA0;" horiz-adv-x="260" />
<glyph unicode="&#xA1;" horiz-adv-x="356" d="M313 469Q313 453 311 443T307 425Q304 417 302 412Q287 403 279 396T264 384T250 377T230 374Q207 374 193 382T170 402T160 427T157 452Q157 456 159 474T168 514T189 551T230 568Q258 568 274 561T299 540T310 508T313 469ZM270 245Q270 239 264 227T251 203Q233 134 225 93T210 19T199 -46T182 -126Q178 -143 172 -171T155 -228T126 -276T81 -296Q65 -296 53 -290T33 -273T20 -250T16 -224Q16 -214 20 -201T31 -175T45 -149T57 -126Q61 -116 63 -105T68 -81T73 -58T83 -39Q90 -9 95 7T105 36T115 69T130 124Q136 149 142 166T152 197T160 224T163 256Q163 261 163 266T162 278Q168 278 176 280T193 285T208 289T217 291Q235 291 252 279T270 245Z"  />
<glyph unicode="&#xA2;" horiz-adv-x="534" d="M531 542Q531 525 520 516T493 503T462 497T440 496H438Q432 496 425 498T411 500Q408 500 405 500T399 501Q394 501 389 498T378 480Q373 467 365 434T349 361T334 279T328 211V186Q328 170 330 154T342 121H353Q378 121 409 126T466 136Q472 127 472 113Q472 95 462 76T437 48Q426 41 409 39T377 35T350 31T339 23Q339 -7 343 -28T354 -67T364 -99T369 -131Q369 -148 366 -163T356 -189T335 -208T302 -215Q284 -215 270 -205T245 -179T228 -144T221 -106Q223 -100 226 -95T233 -81T238 -60T241 -30Q241 -24 239 -5T237 27Q195 41 164 57T111 95T80 146T69 215Q69 327 116 413T272 568Q276 571 276 577Q276 582 275 588T274 601V606Q277 625 278 639T279 665Q279 683 278 694T276 713Q276 721 279 727T291 741Q305 752 322 758T354 765Q364 765 374 757T393 739T406 718T412 701Q412 694 408 668T397 599Q403 594 417 592T450 590Q462 590 473 590T496 591Q509 591 514 590Q520 584 525 570T531 542ZM267 390Q267 399 265 415T260 441Q221 411 197 359T172 239Q172 232 177 211T191 173Q201 156 214 145T234 134H248L267 385V390Z"  />
<glyph unicode="&#xA3;" horiz-adv-x="917" d="M921 78Q921 51 899 30T847 -7T788 -30T743 -38Q740 -38 728 -38T701 -36T674 -35T658 -34Q652 -34 645 -28T632 -20Q622 -17 609 -14T582 -7T558 -2T544 0Q538 0 536 0T527 -1Q524 -1 499 5T445 18T391 31T363 37Q358 37 346 17T317 -27T278 -72T231 -92H178Q174 -92 157 -81T121 -55T85 -23T64 3Q61 11 48 30T29 66Q25 79 23 95T19 127T18 153T18 168Q18 183 26 196T46 219T71 235T93 241Q130 241 154 238T199 228T245 212T307 192Q308 193 316 210T333 248T349 291T356 322Q356 330 347 333T336 337Q331 337 331 335Q331 333 326 333Q312 333 298 339T272 357T253 385T245 419Q245 439 255 451T279 470T309 479T336 481Q339 481 345 481T359 481T373 480T383 480Q399 480 404 507T413 576T422 665T443 754T488 822T570 850Q573 850 578 846T589 838T601 830T611 826Q628 826 636 813T650 778T662 726T681 666Q684 658 688 647T693 627Q693 625 693 625T692 623V622Q692 617 694 604T696 573Q696 550 688 531T654 512Q641 512 629 520T606 542T586 571T570 600Q567 606 564 617T558 640Q555 653 553 668L543 652Q529 630 519 603T502 551T492 507T488 481Q488 475 489 470T499 465Q502 465 519 462T555 456T592 450T613 447Q616 447 624 451T643 459T662 468T675 472Q685 472 696 468T718 456T734 439T741 419Q741 410 735 399T720 379T701 362T681 355Q675 355 672 357T662 359Q659 359 635 358T579 355T512 350T451 340Q445 339 442 333T436 317T431 299T427 283Q422 267 420 259T417 246T414 236T408 221Q403 210 398 195T390 165Q407 154 451 140T548 113T655 90T745 81Q755 81 762 85T776 96T789 108T802 120Q814 134 833 139T868 150Q890 129 905 115T921 78ZM250 62Q250 67 247 70Q246 71 245 71Q234 75 220 80T192 89T168 97T154 101H136V100Q136 87 142 73T160 48T185 29T215 21Q218 21 224 26T235 37T245 51T250 62Z"  />
<glyph unicode="&#xA4;" horiz-adv-x="629" d="M556 175Q542 161 528 146T499 116Q482 133 465 150T430 184Q404 166 375 158T315 149Q289 149 259 156T199 184L131 116Q116 131 102 146T73 175L142 241Q124 270 116 299T107 354Q107 380 115 410T142 467Q125 484 108 500T73 534Q87 548 101 563T131 593L199 525Q228 545 258 552T315 560Q342 560 372 552T429 525Q447 542 464 559T499 593Q513 578 527 563T556 534Q539 517 522 501T487 467Q507 438 515 409T523 354Q523 328 515 299T487 241L556 175ZM440 355Q440 382 430 404T402 443T362 469T315 478Q288 478 265 468T225 442T199 403T189 355Q189 329 199 307T226 267T266 240T315 230Q341 230 363 240T403 267T430 306T440 355Z"  />
<glyph unicode="&#xA5;" horiz-adv-x="735" d="M738 745Q738 730 727 717T699 691T664 668T633 648Q597 622 570 601T522 561T483 528T452 498Q450 495 444 488T432 471T421 452T416 434V431Q421 426 435 425T457 423H462Q465 423 474 425T494 431T514 437T527 440Q555 440 568 423T582 383Q582 381 580 373T576 354T570 336T565 328Q553 328 537 329T504 330Q484 330 464 328T427 317T399 292T387 250Q395 249 406 247T429 244T451 241T470 240Q473 240 484 243T507 249T531 255T546 258Q562 258 575 256T599 247T614 226T620 189Q620 160 605 145T560 129Q557 129 549 130T532 132T515 135T504 136Q498 136 492 133T480 129Q472 129 468 131T455 133Q452 133 440 133T415 129T392 121T381 106Q381 103 383 94T389 75T395 56T398 44Q398 12 376 -7T326 -27Q289 -27 278 -11T267 26Q267 42 269 58T272 88Q272 102 267 110T245 119Q237 119 223 115T202 111Q189 111 174 115T147 126T126 144T117 167Q117 184 129 196T157 217T188 230T212 235Q218 235 233 235T256 234Q263 234 267 239T273 250T276 262T277 272Q277 278 272 291T261 304Q258 304 245 303T217 299T189 295T173 293Q155 293 136 297T102 308T78 327T68 352Q68 361 74 371T89 390T108 403T125 409Q129 409 136 409T157 409T195 407T254 405Q259 405 266 406T280 410T291 415T296 422Q296 425 293 433T284 452T272 473T258 490Q244 502 217 516T157 543T88 571T25 597Q21 599 12 608T-6 630T-22 653T-29 671Q-29 686 -21 699T0 721T27 735T52 741Q68 741 79 737T99 726T116 712T133 701Q178 681 218 655T290 604T342 563T369 546Q376 546 395 566T441 617T498 684T558 750T614 801T659 822Q676 822 690 814T715 794T732 769T738 745Z"  />
<glyph unicode="&#xA6;" horiz-adv-x="239" d="M54 318V765H184V318H54ZM54 -235V226H184V-235H54Z"  />
<glyph unicode="&#xA7;" horiz-adv-x="493" d="M475 318Q475 282 463 255T428 206T378 171T316 147Q331 127 342 105T354 59Q354 12 334 -21T281 -77T204 -112T112 -129Q105 -129 97 -130T80 -131Q73 -131 67 -129Q29 -115 18 -93T4 -48V-46Q4 -37 9 -28T21 -10T37 4T54 9Q77 1 92 -6T126 -13Q144 -13 163 -8T197 6T223 28T234 58Q234 78 215 103T169 151T118 194T83 222Q69 233 59 249T43 282T33 315T30 344Q30 367 39 396T65 456T105 515T157 566Q152 577 149 588T145 611Q145 645 166 683T222 753T301 807T392 829Q408 829 422 823T446 807T463 783T470 754Q470 744 466 733T450 720Q446 719 436 719Q427 719 417 719T395 720Q385 720 375 719T354 715Q319 704 297 677T274 610Q274 587 289 565T326 521T374 475T423 426T460 374T475 318ZM351 321Q351 337 338 356T305 394T264 431T226 462Q200 441 180 411T159 349Q159 323 179 297T226 244H238Q260 244 280 250T316 266T341 291T351 321Z"  />
<glyph unicode="&#xA8;" horiz-adv-x="500" d="M404 602Q404 593 403 580T395 554T376 533T343 524Q328 524 315 536T291 566T274 599T268 625Q268 635 275 644T293 660T313 671T328 676Q341 676 354 668T379 648T397 624T404 602ZM233 576Q233 568 227 557T212 535T193 517T172 509Q164 509 153 515T130 528T111 541T102 548Q101 557 100 568T98 585Q98 596 98 600T102 609T111 622T128 647Q130 647 134 646T143 644Q148 644 156 649T169 654Q184 654 196 645T216 624T228 599T233 576Z"  />
<glyph unicode="&#xA9;" horiz-adv-x="666" d="M608 299Q608 260 597 212T560 117T495 32T398 -23Q389 -25 384 -28T374 -34L368 -37Q364 -39 363 -39H362Q360 -37 359 -36T353 -34Q348 -34 344 -35T336 -38Q334 -38 334 -38T333 -39Q269 -39 218 -13T130 57T75 153T56 259Q56 274 59 291T70 326T89 359T115 384Q126 391 131 404T144 428Q152 439 160 453T180 481Q191 495 204 509T235 534Q243 539 250 545T265 556Q273 561 279 566T292 574Q296 575 309 578T338 585T365 591T379 594Q380 594 382 594T386 592Q388 591 391 590T397 589Q400 589 404 591Q408 593 409 593Q413 593 420 591T435 586T448 581T456 577Q498 563 527 531T574 459T600 377T608 299ZM538 310Q538 330 532 366T509 436T466 496T398 522Q394 522 389 521T380 517Q368 516 362 515T350 511Q348 510 345 509T339 507Q337 509 334 509Q329 509 327 508T322 503Q317 494 308 493T290 489Q287 488 284 488T278 485Q266 477 254 467T235 449Q222 433 205 411T172 362T145 310T134 260Q134 255 135 250T139 240Q140 238 140 236Q140 230 138 223T133 210Q131 206 131 203Q131 199 132 197T136 191Q137 190 137 188Q147 155 166 129T209 84T261 56T318 46Q374 46 415 72T484 137T524 223T538 310ZM439 193Q439 178 429 164T405 140T377 123T353 116H319Q308 116 292 123T260 142T234 170T223 203Q223 212 228 233T242 280T264 334T293 386T327 424T365 439Q368 439 375 436T390 427T403 414T409 400Q409 396 395 377Q385 364 371 347T345 311T323 273T314 238Q314 235 317 230T326 218T337 205T346 196Q356 202 364 209T380 225Q398 243 400 243Q413 243 420 238T432 226T437 209T439 193Z"  />
<glyph unicode="&#xAA;" horiz-adv-x="504" d="M474 513Q474 501 458 488T421 463T383 444T361 437H340Q335 437 326 441T308 452T291 466T280 480Q266 504 261 515T251 537Q234 516 215 493T175 451T134 420T97 408Q88 408 77 410T56 419T39 435T32 460Q32 468 40 487T60 527T82 565T95 585Q132 622 160 650T210 698T252 728T291 738Q314 738 334 719T354 675Q354 670 351 655T343 623T335 592T331 573Q331 550 342 534T379 517Q402 517 414 527T440 542Q446 544 448 544Q460 544 467 532T474 513ZM246 642Q236 638 217 620T178 578T140 531T117 493Q121 496 130 502T149 518T171 537T191 558Q212 582 228 607T246 642Z"  />
<glyph unicode="&#xAB;" horiz-adv-x="644" d="M572 139Q572 130 565 125T547 117T522 115T495 114Q483 114 472 118T449 129T422 144T387 162Q347 180 327 210T306 265Q306 273 310 279T321 291T338 305T359 326Q369 338 381 355T407 388T433 415T460 427Q470 427 480 419T499 400T513 377T519 360Q519 348 505 330T472 306Q462 303 456 291T450 265Q450 253 454 243T469 225Q472 223 488 215T523 195T557 169T572 139ZM321 157Q321 148 315 137T300 117T278 101T253 95Q228 95 202 112T136 148Q96 166 70 189T43 236Q43 248 49 259T64 281T85 303T107 326Q117 338 125 350T142 374T159 395T181 411Q191 418 208 418Q220 418 233 415T257 407T276 397T283 387Q283 381 277 369T262 344T242 320T222 306Q211 302 200 285T188 250Q188 239 195 232T219 225Q222 225 238 220T273 206T306 185T321 157Z"  />
<glyph unicode="&#xAC;" horiz-adv-x="591" d="M390 109V272H71V402H520V109H390Z"  />
<glyph unicode="&#xAD;" horiz-adv-x="527" d="M462 279Q462 277 459 267T452 244T444 221T435 211Q431 211 431 213Q431 215 426 215Q420 215 416 206T404 197Q398 197 395 199T385 201Q382 201 363 197T320 187T271 178T234 173Q218 173 209 172T192 171T179 169T164 168Q156 168 140 170T107 178T78 197T65 229Q65 278 94 295T164 312Q167 312 175 311T194 307T212 304T224 302Q240 302 254 302T286 303Q314 303 329 307T357 315T382 324T419 328Q423 328 430 322T445 308T457 292T462 279Z"  />
<glyph unicode="&#xAE;" horiz-adv-x="424" d="M394 464Q394 443 383 415T351 361T303 317T246 299H226Q209 299 188 306T147 326T113 355T95 390Q95 391 90 394Q85 396 82 400Q78 406 76 410T74 423Q74 425 75 435T79 459T84 483T89 499Q99 516 106 529T122 556Q137 582 162 601Q166 604 171 607T183 613Q189 616 196 619T208 624Q232 635 257 638T308 642Q310 642 321 639T340 634Q347 632 358 624T374 604Q376 600 379 587T386 560T391 532T394 512V464ZM363 516Q363 524 361 539T353 569T338 595T313 606Q290 606 260 603T203 583Q197 579 192 574T180 562Q174 556 168 550T155 539Q152 537 148 530L145 526Q144 524 144 524L143 523Q142 524 142 524Q141 524 138 521Q137 519 136 518Q134 513 131 507T125 494Q119 480 115 466T110 445V444Q110 443 111 442L113 437Q117 429 117 425Q120 402 132 385T162 355T198 336T236 329Q245 329 255 332T276 341T293 351T305 359Q321 372 332 391T350 432T360 476T363 516ZM320 430Q320 424 313 414T296 403Q292 403 285 405T270 411Q268 412 259 415T248 419H241L232 424Q234 417 235 407T237 390Q237 383 233 373T217 363Q213 363 209 366T200 375T193 384T190 390Q189 392 189 397Q189 401 191 407Q193 413 193 416V418Q192 426 190 441T188 464Q188 481 190 500T207 530Q209 532 215 539Q217 542 220 544T225 549Q234 558 246 562T268 567Q291 567 297 553T304 524Q304 516 300 508T290 490Q284 482 277 473T261 454H284Q285 454 285 454T286 453L287 452Q288 451 289 451Q300 451 310 444T320 430ZM271 518Q266 530 257 530H255Q251 528 246 523T235 512T225 500T221 491Q221 472 232 472Q235 472 240 475Q248 480 259 495T271 518Z"  />
<glyph unicode="&#xAF;" horiz-adv-x="500" d="M420 605Q420 572 403 561T355 549Q353 549 337 549T300 548T259 547T227 546Q201 546 191 544T167 541H159Q150 541 137 542T112 547T92 559T83 583Q83 604 89 616T107 634T134 641T167 643Q169 643 176 643T193 644T209 644T219 645Q233 645 245 645T271 646Q295 646 308 646T331 646T352 647T384 647Q388 647 394 642T406 630T416 616T420 605Z"  />
<glyph unicode="&#xB0;" horiz-adv-x="358" d="M328 562Q328 536 324 521T314 495Q313 492 298 480T263 454T223 430T193 419Q189 419 182 418T171 417Q158 417 135 426T88 449T47 479T30 509Q30 524 38 557T65 625T111 686T178 712Q202 712 228 693T276 649T313 599T328 562ZM251 538Q251 547 243 562T223 592T199 619T179 634Q164 626 153 612T135 582T124 553T120 534Q120 530 124 524T136 511T153 501T173 496Q177 496 190 499T216 509T240 522T251 538Z"  />
<glyph unicode="&#xB1;" horiz-adv-x="591" d="M71 0V130H519V0H71ZM359 367V181H229V367H71V497H229V684H359V497H519V367H359Z"  />
<glyph unicode="&#xB2;" horiz-adv-x="324" d="M298 332Q298 323 295 313T285 293T268 277T246 270H225Q222 270 215 272T198 278T180 284T167 289Q158 292 156 292Q138 292 129 287T108 271Q94 260 80 260Q71 260 63 265T47 277T36 294T32 312Q32 333 42 343T64 363T88 383T104 415Q125 454 139 505T164 601Q144 600 130 586T104 556T81 525T56 511Q46 511 36 516T24 527Q17 538 17 552Q17 560 19 568T23 584Q42 606 66 628T115 667T162 694T201 705Q214 705 223 696T239 673T248 648T251 628Q251 620 249 616T244 604Q241 599 239 591T237 569L167 394Q169 392 175 391T189 388T202 385T211 384Q212 384 217 384T229 385T242 386T251 387Q259 387 267 380T282 364T293 346T298 332Z"  />
<glyph unicode="&#xB3;" horiz-adv-x="309" d="M285 363Q285 361 283 356T278 343T272 328T265 316Q261 311 250 302T228 287Q225 285 207 278T167 262T122 247T90 240Q66 240 47 254T27 294Q27 299 29 307T37 324T50 338T69 344Q72 344 83 341T99 336Q110 333 117 331T126 329Q136 329 148 333T170 344T187 360T194 381Q194 390 190 400T179 420T161 435T138 441Q136 441 129 440T114 437Q109 436 102 435T89 433Q77 433 69 438T55 452T47 469T45 485Q45 488 48 500T59 518Q69 525 82 535T108 558T130 583T140 609H136Q130 609 123 605T106 596T87 587T66 583Q47 583 37 600T26 629Q26 644 41 658T76 682T115 699T145 705Q187 705 211 680T235 620Q235 598 228 582T212 553Q207 547 203 543T196 534Q191 527 191 524Q191 524 195 521Q208 510 221 499T244 473Q258 450 271 424T285 363Z"  />
<glyph unicode="&#xB4;" horiz-adv-x="500" d="M415 711Q415 702 409 689T394 662T373 633T350 603Q341 591 324 573T286 536T243 506T201 493Q193 493 187 500T180 513Q180 519 181 522T186 528T194 537T205 550Q218 569 225 580T237 600T244 613T252 627Q262 643 268 653T277 674T281 696T282 731Q282 741 292 751T316 769T346 783T373 789Q388 789 396 779T409 755T414 729T415 711Z"  />
<glyph unicode="&#xB5;" horiz-adv-x="590" d="M212 528L151 218Q145 189 145 167Q145 71 234 71Q297 71 330 116T383 257L436 528H546L475 167Q466 120 466 102Q466 85 473 78T499 70Q503 70 507 70T516 71L500 -7Q483 -12 465 -13T427 -15Q354 -15 354 46V53Q334 20 301 2T230 -16Q192 -16 164 -4T115 37L67 -210H-45L100 528H212Z"  />
<glyph unicode="&#xB6;" horiz-adv-x="675" d="M633 57Q633 44 629 30T616 3T596 -17T568 -25Q562 -25 554 -23T537 -17T522 -11T514 -6Q503 8 500 20T496 45Q496 60 499 74T504 102V116Q504 133 503 152T500 188Q498 240 494 285T486 377T479 479T476 606Q472 596 467 582T456 553T447 528T443 514Q443 512 452 502T461 472Q461 461 459 455T452 443T439 429T419 405Q418 404 416 391T412 359T407 315T403 268T400 226T398 196V176Q398 165 398 152T402 128Q406 111 416 96T427 72Q427 59 422 47T409 26T390 12T368 6Q353 6 341 14T321 35T307 61T302 86V306L296 311Q294 311 285 308T262 302T230 297T193 294Q168 294 141 308T91 343T53 391T38 440Q38 491 57 533T109 609T182 667T266 708T352 733T428 741Q436 741 446 734T465 717T481 698T491 682H500Q503 682 506 686T515 695T530 705T556 709Q595 709 608 691T621 646Q621 641 621 637T620 628Q611 564 605 502Q600 448 596 388T591 277Q591 271 594 255T597 224Q598 200 598 171T606 116Q610 102 615 96T624 85T630 75T633 57ZM328 572Q325 575 317 577L309 579Q305 577 283 570T236 550T190 517T169 470Q169 444 186 432T230 419Q273 419 290 430T312 462T318 511T328 572Z"  />
<glyph unicode="&#xB7;" horiz-adv-x="296" d="M229 272Q229 254 219 238T195 208T163 186T131 178Q114 178 101 188T79 213T66 241T61 265Q61 289 65 303T77 326T96 338T120 344Q126 344 130 349T140 354Q148 354 150 348T159 342Q167 342 166 344T171 346Q183 346 194 337T212 315T224 290T229 272Z"  />
<glyph unicode="&#xB8;" horiz-adv-x="500" d="M306 -113Q306 -139 292 -164T255 -213T207 -256T156 -287Q150 -290 142 -295T125 -307T110 -317T101 -321Q93 -321 85 -309T77 -290Q77 -286 81 -275T90 -254Q110 -251 128 -235T159 -197T180 -149T188 -101V-94Q188 -86 199 -76T215 -64Q218 -62 228 -60T249 -57Q258 -57 266 -60Q274 -63 281 -70T293 -85T302 -101T306 -113Z"  />
<glyph unicode="&#xB9;" horiz-adv-x="274" d="M217 678Q217 654 210 621T193 556Q190 546 187 532T179 502T173 473T170 449Q170 443 174 436T183 422T192 406T196 390Q196 381 192 365T181 332T163 303T139 291Q127 291 118 300T103 322T93 346T89 360Q89 374 93 402T102 463Q107 492 111 522T121 579Q121 578 120 577L116 571Q106 557 93 551T61 545Q44 545 32 553T19 585Q19 595 28 607T47 621Q70 631 92 650T126 695Q131 698 135 700T144 708L147 712Q150 717 155 717T171 718Q189 718 203 707T217 678Z"  />
<glyph unicode="&#xBA;" horiz-adv-x="451" d="M366 658Q366 638 361 614T347 568T324 526T294 495Q286 489 280 480T263 462Q257 457 248 452T227 443T204 435T181 432Q168 432 152 437T121 453T96 477T86 508Q86 528 90 541T101 566T112 593T119 632Q148 658 168 676T208 707T247 725T297 731Q311 731 323 724T345 705T360 681T366 658ZM297 644V645Q297 646 297 646T298 647Q298 649 296 649Q289 649 284 648T272 645T259 640T239 632Q229 627 217 613T203 590Q202 586 201 581T197 573Q192 565 188 561T182 553T178 544T177 529Q177 526 178 523L191 515Q192 514 195 514Q201 514 209 519T226 531T240 544T248 553Q253 557 261 568T278 593T291 621T297 644Z"  />
<glyph unicode="&#xBB;" horiz-adv-x="644" d="M604 236Q604 212 577 189T510 148Q490 139 465 127T415 104T367 85T333 77Q327 89 327 102Q327 116 332 129T347 153Q356 164 365 171T386 183T409 194T436 208Q455 219 464 232T474 256Q474 268 462 274Q436 285 417 304T384 344T363 380T356 403Q356 408 366 410T391 413Q411 413 433 409T466 395Q491 383 504 367T539 326Q549 314 560 303T582 282T598 260T604 236ZM313 250Q313 243 312 232T306 209T291 184T260 162Q240 153 217 142T171 120T128 102T96 95Q85 95 81 101T76 118Q76 132 81 147T92 172Q98 182 108 187T129 196T153 200T176 206Q184 209 194 215T214 228Q225 235 237 244Q230 250 222 259T205 279T188 296T174 306Q165 309 155 319T136 343T121 369T115 389V392Q118 402 130 405T156 408Q166 408 175 408T192 407Q205 407 218 399T243 379T266 352T288 326Q305 306 309 292T313 264V250Z"  />
<glyph unicode="&#xBC;" horiz-adv-x="741" d="M723 128Q723 113 711 98Q705 89 695 81T676 63T661 43T654 22Q654 14 657 6T665 -11T674 -27T678 -40Q678 -48 673 -57T659 -74T640 -87T622 -93Q604 -93 594 -86T578 -69T572 -45T571 -17V-6Q571 11 570 16Q562 14 558 14Q534 14 514 23T480 47T456 80T444 115V173Q448 181 448 196Q448 203 448 209T449 222Q458 237 462 261T466 303Q466 315 465 319Q473 336 475 352T482 386Q486 402 496 412T530 423Q545 423 555 416T573 400T583 379T586 359Q586 356 585 352T583 345Q581 340 581 336T579 326Q573 321 564 300T545 252T530 200T523 160Q523 152 524 141T531 120T545 103T570 96Q575 96 575 100T578 112Q580 124 581 143T587 180T600 210T629 223Q641 223 650 217T665 203T675 186T678 169Q678 167 677 162T674 150T671 139T670 132Q671 132 676 134T686 140T696 146T704 149Q713 149 718 143T723 128ZM581 656Q575 637 561 615T531 572Q523 561 515 551T500 532Q493 524 488 517T479 505Q457 471 443 450T420 414T406 391T395 373Q390 364 385 354T370 326T345 281T308 214Q295 191 285 170T264 132Q259 124 254 113T244 90Q242 86 240 83T236 75L227 57Q222 47 216 34T204 8T191 -17T180 -40Q177 -46 172 -55T162 -75Q156 -80 149 -84T134 -88Q132 -88 131 -88T127 -87Q116 -85 112 -75T107 -51Q107 -36 112 -21Q113 -18 117 -7T129 19T143 49T156 77Q162 88 166 95T174 110T183 126T194 148Q226 212 250 254T293 326Q315 362 329 385T354 428T377 469T405 522Q433 561 452 596Q462 614 471 630T488 661Q503 687 519 704T557 721Q559 721 561 721T565 720Q572 718 577 703T583 671Q583 664 581 656ZM240 678Q240 654 233 621T216 556Q213 546 210 532T202 502T196 473T193 449Q193 443 197 436T206 422T215 406T219 390Q219 381 215 365T204 332T186 303T162 291Q150 291 141 300T126 322T116 346T112 360Q112 374 116 402T125 463Q130 492 134 522T144 579Q144 578 144 578T143 577L139 571Q129 557 116 551T84 545Q66 545 54 553T42 585Q42 595 51 607T70 621Q93 631 115 650T149 695Q154 698 158 700T167 708L170 712Q173 717 178 717T194 718Q212 718 226 707T240 678Z"  />
<glyph unicode="&#xBD;" horiz-adv-x="713" d="M689 9Q689 0 686 -10T676 -30T659 -46T637 -53H616Q614 -53 606 -51T589 -45T571 -39T558 -34Q550 -31 547 -31Q530 -31 521 -36T499 -52Q485 -63 471 -63Q462 -63 454 -58T438 -46T427 -29T423 -11Q423 10 433 20T455 40T480 60T495 92Q516 131 530 182T555 278Q535 277 521 263T495 233T472 202T447 188Q437 188 428 193T415 204Q408 215 408 229Q408 237 410 245T414 261Q433 283 457 305T506 344T553 371T592 382Q605 382 614 373T630 350T639 325T642 305Q642 297 640 293T635 281Q633 276 631 268T628 246L558 71Q560 69 566 68T580 65T593 62T602 61Q604 61 609 61T621 62T634 63T642 64Q651 64 659 57T674 41T685 23T689 9ZM581 656Q575 637 561 615T531 572Q523 561 515 551T500 532Q493 524 488 517T479 505Q457 471 443 450T420 414T406 391T395 373Q390 364 385 354T370 326T345 281T308 214Q295 191 285 170T264 132Q259 124 254 113T244 90Q242 86 240 83T236 75L227 57Q222 47 216 34T204 8T191 -17T180 -40Q177 -46 172 -55T162 -75Q156 -80 149 -84T134 -88Q132 -88 131 -88T127 -87Q116 -85 112 -75T107 -51Q107 -36 112 -21Q113 -18 117 -7T129 19T143 49T156 77Q162 88 166 95T174 110T183 126T194 148Q226 212 250 254T293 326Q315 362 329 385T354 428T377 469T405 522Q433 561 452 596Q462 614 471 630T488 661Q503 687 519 704T557 721Q559 721 561 721T565 720Q572 718 577 703T583 671Q583 664 581 656ZM240 678Q240 654 233 621T216 556Q213 546 210 532T202 502T196 473T193 449Q193 443 197 436T206 422T215 406T219 390Q219 381 215 365T204 332T186 303T162 291Q150 291 141 300T126 322T116 346T112 360Q112 374 116 402T125 463Q130 492 134 522T144 579Q144 578 144 578T143 577L139 571Q129 557 116 551T84 545Q66 545 54 553T42 585Q42 595 51 607T70 621Q93 631 115 650T149 695Q154 698 158 700T167 708L170 712Q174 716 178 717T194 718Q212 718 226 707T240 678Z"  />
<glyph unicode="&#xBE;" horiz-adv-x="806" d="M788 128Q788 113 776 98Q770 89 760 81T741 63T726 43T719 22Q719 14 722 6T730 -11T739 -27T743 -40Q743 -48 738 -57T724 -74T705 -87T687 -93Q669 -93 659 -86T643 -69T637 -45T636 -17V-6Q636 11 635 16Q627 14 623 14Q599 14 579 23T545 47T521 80T509 115V173Q513 181 513 196V222Q523 238 527 263T531 305Q531 316 530 319Q538 336 540 352T547 386Q551 402 561 412T595 423Q610 423 620 416T638 400T648 379T651 359Q651 356 650 352T648 345Q646 340 646 336T644 326Q638 321 629 300T610 252T595 200T588 160Q588 152 589 141T596 120T610 103T635 96Q640 96 640 100T643 112Q645 124 646 143T652 180T665 210T694 223Q706 223 715 217T730 203T740 186T743 169Q743 167 742 162T739 150T736 139T735 132Q736 132 741 134T751 140T761 146T769 149Q778 149 783 143T788 128ZM646 656Q640 637 626 615T595 572Q587 561 580 551T565 532Q558 524 553 517T544 505Q522 471 508 450T485 414T471 391T460 373Q455 364 450 354T435 326T410 281T373 214Q360 191 350 170T329 132Q324 124 319 113T309 90Q307 86 305 83T301 75L292 57Q287 47 281 34T269 8T256 -17T245 -40Q242 -46 237 -55T227 -75Q221 -80 214 -84T199 -88Q197 -88 196 -88T192 -87Q181 -85 177 -75T172 -51Q172 -36 177 -21Q178 -18 182 -7T194 19T208 49T221 77Q227 88 231 95T239 110T248 126T259 148Q291 212 315 254T358 326Q380 362 394 385T419 428T442 469T470 522Q498 561 517 596Q527 614 536 630T553 661Q568 687 584 704T622 721Q624 721 626 721T630 720Q637 718 642 703T648 671Q648 664 646 656ZM302 363Q302 361 300 356T295 343T289 328T282 316Q278 311 267 302T245 287Q242 285 224 278T184 262T139 247T107 240Q84 240 64 254T44 294Q44 299 46 307T54 324T67 338T86 344Q89 344 100 341T116 336Q127 333 134 331T143 329Q153 329 165 333T187 344T204 360T211 381Q211 390 207 400T196 420T178 435T155 441Q153 441 147 440T131 437Q126 436 119 435T106 433Q94 433 86 438T72 452T64 469T62 485Q62 488 65 500T76 518Q86 525 99 535T125 558T147 583T157 609H153Q147 609 140 605T124 596T105 587T83 583Q64 583 54 600T43 629Q43 644 58 658T93 682T132 699T162 705Q204 705 228 680T252 620Q252 598 245 582T229 553Q224 547 220 543T213 534Q208 527 208 524Q208 525 212 521Q225 510 238 499T261 473Q275 450 288 424T302 363Z"  />
<glyph unicode="&#xBF;" horiz-adv-x="409" d="M315 417Q313 404 306 389T287 360T259 337T223 328Q205 328 193 334T175 350T166 369T163 388V393Q163 396 169 411T185 442T207 472T231 486H245Q254 486 266 482T289 470T307 450T315 423V417ZM359 -71Q356 -103 334 -140T279 -208T209 -261T135 -282Q103 -282 81 -263T45 -216T25 -158T18 -104Q18 -100 18 -97T19 -90Q22 -63 35 -37T66 13T106 60T145 103T175 140T189 171V172Q189 175 185 175Q182 175 179 174T174 173Q163 173 158 170T148 164T137 157T119 154Q96 154 87 165T78 193V200Q80 220 98 237T140 266T185 286T216 293Q242 293 260 285T290 263T307 234T312 201Q312 198 312 195T311 189Q307 153 280 121T221 55T162 -17T129 -101Q129 -103 129 -106T128 -112Q128 -126 134 -142T157 -158Q177 -158 191 -147T216 -120T235 -84T252 -49T272 -21T298 -10Q321 -10 340 -24T359 -64V-71Z"  />
<glyph unicode="&#xC0;" horiz-adv-x="633" d="M579 11Q578 3 571 -16T553 -56T528 -93T499 -109Q479 -109 467 -96T447 -62T437 -17T433 29T432 66T431 83Q429 98 428 109T426 134T423 162T416 201Q389 193 359 189T297 181T238 169T186 147Q173 139 165 122T150 84T135 40T116 -2T90 -33T52 -45Q38 -45 26 -37T3 -17T-12 8T-18 31V33Q-16 63 -1 85T35 130T75 179T106 243Q111 254 124 266T147 292Q152 299 156 310T165 334T175 360T186 383Q198 403 217 436T259 506T306 582T353 650T394 700T424 719Q449 719 463 710T485 684T494 643T496 591Q496 566 496 547T495 509Q495 484 497 453T504 371Q504 364 508 361T518 357T530 355T542 351Q555 341 559 323T563 295V292Q562 274 555 266T538 252T521 239T512 215Q512 212 514 203T518 182T524 157T531 133Q533 123 545 112T563 90Q567 81 570 69T575 46T578 25T579 11ZM419 423Q414 463 411 492T400 551Q388 537 377 521T355 488Q351 482 342 468T321 434T297 393T274 352T257 318T250 298Q250 290 256 288T271 286H281Q284 286 286 287Q295 288 315 294T356 308T393 322T412 330L419 423ZM474 762Q478 757 478 751Q478 735 453 735Q438 735 419 742T364 779Q364 789 355 793T340 804Q320 827 306 841T282 869T269 900T264 945V955Q284 961 299 970T331 979Q346 979 357 969T378 943T396 911T411 881Q434 840 447 812T474 762Z"  />
<glyph unicode="&#xC1;" horiz-adv-x="633" d="M579 11Q578 3 571 -16T553 -56T528 -93T499 -109Q479 -109 467 -96T447 -62T437 -17T433 29T432 66T431 83Q429 98 428 109T426 134T423 162T416 201Q389 193 359 189T297 181T238 169T186 147Q173 139 165 122T150 84T135 40T116 -2T90 -33T52 -45Q38 -45 26 -37T3 -17T-12 8T-18 31V33Q-16 63 -1 85T35 130T75 179T106 243Q111 254 124 266T147 292Q152 299 156 310T165 334T175 360T186 383Q198 403 217 436T259 506T306 582T353 650T394 700T424 719Q449 719 463 710T485 684T494 643T496 591Q496 566 496 547T495 509Q495 484 497 453T504 371Q504 364 508 361T518 357T530 355T542 351Q555 341 559 323T563 295V292Q562 274 555 266T538 252T521 239T512 215Q512 212 514 203T518 182T524 157T531 133Q533 123 545 112T563 90Q567 81 570 69T575 46T578 25T579 11ZM419 423Q414 463 411 492T400 551Q388 537 377 521T355 488Q351 482 342 468T321 434T297 393T274 352T257 318T250 298Q250 290 256 288T271 286H281Q284 286 286 287Q295 288 315 294T356 308T393 322T412 330L419 423ZM570 952Q570 943 564 930T549 903T528 874T505 844Q496 832 479 814T441 777T398 747T356 734Q348 734 342 741T335 754Q335 760 336 763T341 769T349 778T360 791Q373 810 380 821T392 841T399 854T407 868Q417 884 423 894T432 915T436 937T437 972Q437 982 447 992T471 1010T501 1024T528 1030Q543 1030 551 1020T564 996T569 970T570 952Z"  />
<glyph unicode="&#xC2;" horiz-adv-x="633" d="M579 11Q578 3 571 -16T553 -56T528 -93T499 -109Q479 -109 467 -96T447 -62T437 -17T433 29T432 66T431 83Q429 98 428 109T426 134T423 162T416 201Q389 193 359 189T297 181T238 169T186 147Q173 139 165 122T150 84T135 40T116 -2T90 -33T52 -45Q38 -45 26 -37T3 -17T-12 8T-18 31V33Q-16 63 -1 85T35 130T75 179T106 243Q111 254 124 266T147 292Q152 299 156 310T165 334T175 360T186 383Q198 403 217 436T259 506T306 582T353 650T394 700T424 719Q449 719 463 710T485 684T494 643T496 591Q496 566 496 547T495 509Q495 484 497 453T504 371Q504 364 508 361T518 357T530 355T542 351Q555 341 559 323T563 295V292Q562 274 555 266T538 252T521 239T512 215Q512 212 514 203T518 182T524 157T531 133Q533 123 545 112T563 90Q567 81 570 69T575 46T578 25T579 11ZM419 423Q414 463 411 492T400 551Q388 537 377 521T355 488Q351 482 342 468T321 434T297 393T274 352T257 318T250 298Q250 290 256 288T271 286H281Q284 286 286 287Q295 288 315 294T356 308T393 322T412 330L419 423ZM609 791Q609 765 603 759T579 753H557Q534 753 514 762T477 784T445 805T418 815Q403 815 386 806T351 783T313 758T273 738Q264 735 254 735Q237 735 227 745T216 773Q216 780 222 793T239 815Q249 822 271 838T312 870Q327 882 337 895T357 920T376 939T399 946Q404 946 415 940T438 926T460 911T474 902Q484 896 503 884T537 860Q543 857 554 851T573 841Q588 833 598 819T609 791Z"  />
<glyph unicode="&#xC3;" horiz-adv-x="633" d="M579 11Q578 3 571 -16T553 -56T528 -93T499 -109Q479 -109 467 -96T447 -62T437 -17T433 29T432 66T431 83Q429 98 428 109T426 134T423 162T416 201Q389 193 359 189T297 181T238 169T186 147Q173 139 165 122T150 84T135 40T116 -2T90 -33T52 -45Q38 -45 26 -37T3 -17T-12 8T-18 31V33Q-16 63 -1 85T35 130T75 179T106 243Q111 254 124 266T147 292Q152 299 156 310T165 334T175 360T186 383Q198 403 217 436T259 506T306 582T353 650T394 700T424 719Q449 719 463 710T485 684T494 643T496 591Q496 566 496 547T495 509Q495 484 497 453T504 371Q504 364 508 361T518 357T530 355T542 351Q555 341 559 323T563 295V292Q562 274 555 266T538 252T521 239T512 215Q512 212 514 203T518 182T524 157T531 133Q533 123 545 112T563 90Q567 81 570 69T575 46T578 25T579 11ZM419 423Q414 463 411 492T400 551Q388 537 377 521T355 488Q351 482 342 468T321 434T297 393T274 352T257 318T250 298Q250 290 256 288T271 286H281Q284 286 286 287Q295 288 315 294T356 308T393 322T412 330L419 423ZM551 843Q551 828 549 810T538 776T516 749T479 738Q459 738 445 747T419 771T400 803T385 835Q372 830 362 816T343 787T329 759T319 747H300Q291 747 284 752T272 764T263 779T260 792Q260 803 267 815T283 840T301 865T315 888Q335 897 343 902T355 909T363 912T380 913Q409 913 432 889T470 830H475Q478 835 480 841T482 851Q482 866 476 874T464 888T451 901T445 924Q445 929 450 935T463 948T477 958T490 962Q512 962 524 951T543 922T550 883T551 843Z"  />
<glyph unicode="&#xC4;" horiz-adv-x="633" d="M579 11Q578 3 571 -16T553 -56T528 -93T499 -109Q479 -109 467 -96T447 -62T437 -17T433 29T432 66T431 83Q429 98 428 109T426 134T423 162T416 201Q389 193 359 189T297 181T238 169T186 147Q173 139 165 122T150 84T135 40T116 -2T90 -33T52 -45Q38 -45 26 -37T3 -17T-12 8T-18 31V33Q-16 63 -1 85T35 130T75 179T106 243Q111 254 124 266T147 292Q152 299 156 310T165 334T175 360T186 383Q198 403 217 436T259 506T306 582T353 650T394 700T424 719Q449 719 463 710T485 684T494 643T496 591Q496 566 496 547T495 509Q495 484 497 453T504 371Q504 364 508 361T518 357T530 355T542 351Q555 341 559 323T563 295V292Q562 274 555 266T538 252T521 239T512 215Q512 212 514 203T518 182T524 157T531 133Q533 123 545 112T563 90Q567 81 570 69T575 46T578 25T579 11ZM419 423Q414 463 411 492T400 551Q388 537 377 521T355 488Q351 482 342 468T321 434T297 393T274 352T257 318T250 298Q250 290 256 288T271 286H281Q284 286 286 287Q295 288 315 294T356 308T393 322T412 330L419 423ZM559 843Q559 834 558 821T550 795T531 774T498 765Q483 765 470 777T446 807T429 840T423 866Q423 876 430 885T448 901T468 912T483 917Q496 917 509 909T534 889T552 865T559 843ZM388 817Q388 809 382 798T367 776T348 758T327 750Q319 750 308 756T285 769T266 782T257 789Q256 798 255 809T253 826Q253 837 253 841T257 850T266 863T283 888Q285 888 289 887T298 885Q303 885 311 890T324 895Q339 895 351 886T371 865T383 840T388 817Z"  />
<glyph unicode="&#xC5;" horiz-adv-x="633" d="M579 11Q578 3 571 -16T553 -56T528 -93T499 -109Q479 -109 467 -96T447 -62T437 -17T433 29T432 66T431 83Q429 98 428 109T426 134T423 162T416 201Q389 193 359 189T297 181T238 169T186 147Q173 139 165 122T150 84T135 40T116 -2T90 -33T52 -45Q38 -45 26 -37T3 -17T-12 8T-18 31V33Q-16 63 -1 85T35 130T75 179T106 243Q111 254 124 266T147 292Q152 299 156 310T165 334T175 360T186 383Q198 403 217 436T259 506T306 582T353 650T394 700T424 719Q449 719 463 710T485 684T494 643T496 591Q496 566 496 547T495 509Q495 484 497 453T504 371Q504 364 508 361T518 357T530 355T542 351Q555 341 559 323T563 295V292Q562 274 555 266T538 252T521 239T512 215Q512 212 514 203T518 182T524 157T531 133Q533 123 545 112T563 90Q567 81 570 69T575 46T578 25T579 11ZM419 423Q414 463 411 492T400 551Q388 537 377 521T355 488Q351 482 342 468T321 434T297 393T274 352T257 318T250 298Q250 290 256 288T271 286H281Q284 286 286 287Q295 288 315 294T356 308T393 322T412 330L419 423ZM563 885Q563 863 560 850T551 828Q550 826 543 816T524 794T502 773T481 764Q478 764 472 763T463 762Q452 762 437 770T408 789T384 814T374 840Q374 853 376 881T388 939T416 990T468 1013Q488 1013 505 997T535 960T555 917T563 885ZM500 865Q500 872 498 883T491 904T482 923T469 935Q464 927 457 918T442 898T430 880T425 867Q425 864 426 858T432 845T441 833T456 828Q460 828 467 831T481 840T494 852T500 865Z"  />
<glyph unicode="&#xC6;" horiz-adv-x="905" d="M893 701Q892 695 890 686T884 669T876 653T866 644Q822 624 796 611T750 590T716 579T680 576Q674 576 661 576T636 575Q633 561 634 547T629 515Q626 506 622 499T614 481T607 458T601 424V421Q601 410 609 407T620 404Q627 404 633 402T647 400Q693 400 718 412T760 438T790 464T828 476Q841 476 852 466T870 443T882 418T886 400Q884 387 877 375T861 352T843 334T828 325Q814 320 792 318T752 309Q747 307 735 301T709 287T680 275T654 269Q646 269 647 270T642 272Q636 272 631 268T620 261H602Q594 261 586 260T568 254Q563 251 560 241T556 220T554 198T553 181Q553 177 553 171T552 156Q552 146 553 135T559 115T572 101T594 95Q620 95 642 105T684 130T719 163T748 196T774 221T799 231Q828 231 841 214T855 173V171Q855 168 856 165T857 156Q857 148 851 138T822 114Q770 82 720 45T623 -21Q614 -23 603 -24T581 -27T562 -29T551 -30Q522 -30 499 -17T461 16T437 62T428 113V121Q429 125 430 135T434 157T437 181T440 201Q413 193 382 189T319 181T258 169T203 147Q189 139 179 122T158 84T136 40T112 -2T81 -33T41 -45Q28 -45 17 -38T-1 -20T-13 3T-18 26Q-18 28 -18 29T-17 33Q-11 63 7 85T49 130T95 179T136 243Q143 254 157 266T184 292Q190 299 196 310T208 334T221 360T236 383Q251 403 275 436T326 506T384 582T440 650T488 700T521 719Q547 719 580 718T642 714T693 711T718 709Q744 709 756 715T777 728T798 741T836 747Q859 747 876 740T893 703V701ZM488 565Q474 551 455 526T423 485Q416 476 395 449T351 391T309 333T289 298V297Q289 290 295 288T308 286H318Q321 286 322 287Q331 288 353 294T400 308T443 322T464 330L486 423Q486 454 487 482T489 536Q489 544 489 551T488 565Z"  />
<glyph unicode="&#xC7;" horiz-adv-x="515" d="M496 158Q496 155 489 148T474 133T458 118T447 106Q426 76 399 52T343 10T285 -17T231 -27Q210 -27 186 -23T138 -8T95 20T63 61Q59 69 56 81T50 105T46 127T44 140Q46 170 52 207T67 285T87 364T111 436T135 495T158 531Q177 551 198 573T243 613T294 644T352 656Q367 656 389 648T434 625T471 592T487 550V546Q486 528 476 512T451 484T420 466T393 459Q377 459 366 465T346 477T331 490T321 496Q293 496 270 477T229 427T198 361T176 292T163 234T158 200V191Q158 146 179 114T246 82Q291 82 320 101T371 145T413 188T458 208Q465 208 471 201T483 184T492 166T496 158ZM306 -113Q306 -139 292 -164T255 -213T207 -256T156 -287Q150 -290 141 -295T124 -307T109 -317T100 -321Q92 -321 85 -309T77 -290Q77 -286 81 -275T89 -254Q109 -251 127 -235T158 -197T180 -148T188 -100V-94Q188 -86 199 -76T215 -64Q218 -62 228 -60T249 -57Q258 -57 266 -60Q274 -63 281 -70T293 -85T302 -101T306 -113Z"  />
<glyph unicode="&#xC8;" horiz-adv-x="527" d="M514 669Q513 663 511 654T505 636T498 621T488 613Q447 603 421 598T376 589T345 586T318 585H295Q289 585 275 585T250 584Q247 570 248 551T243 515Q240 506 236 499T228 481T221 458T215 424V421Q215 410 223 407T234 404Q241 404 248 402T262 400Q293 400 314 405T349 419T374 438T394 456T415 470T442 476Q455 476 466 466T484 443T496 418T500 400Q498 387 491 375T475 352T457 334T442 325Q428 320 406 318T367 309Q362 307 350 301T324 287T294 275T268 269Q264 269 263 269T262 270T261 271T257 272Q251 272 246 268T234 261H216Q208 261 200 260T182 254Q177 251 174 241T170 220T168 198T167 181Q167 177 167 171T166 158Q166 148 167 137T173 117T186 101T209 95Q249 95 282 102T342 117T392 133T432 140Q462 140 475 130T488 96Q488 92 489 89T490 80Q490 72 484 63T455 39Q429 23 401 17T344 8T288 -1T238 -21Q229 -23 218 -24T196 -27T177 -29T166 -30Q137 -30 114 -17T75 16T51 62T42 113V121Q43 125 46 144T52 187T58 232T63 260Q72 307 76 335T84 385T88 424T90 469Q92 517 101 544T122 584T143 603T152 614V615Q152 623 146 630T139 651V654Q141 674 151 687T175 708T206 719T238 723Q241 723 255 721T285 716T315 711T332 709Q358 709 371 710T394 712T418 714T457 715Q480 715 497 708T514 671V669ZM371 762Q375 757 375 751Q375 735 350 735Q335 735 316 742T261 779Q261 789 252 793T237 804Q217 827 203 841T179 869T166 900T161 945V955Q181 961 196 970T228 979Q243 979 254 969T275 943T293 911T308 881Q331 840 344 812T371 762Z"  />
<glyph unicode="&#xC9;" horiz-adv-x="527" d="M514 669Q513 663 511 654T505 636T498 621T488 613Q447 603 421 598T376 589T345 586T318 585H295Q289 585 275 585T250 584Q247 570 248 551T243 515Q240 506 236 499T228 481T221 458T215 424V421Q215 410 223 407T234 404Q241 404 248 402T262 400Q293 400 314 405T349 419T374 438T394 456T415 470T442 476Q455 476 466 466T484 443T496 418T500 400Q498 387 491 375T475 352T457 334T442 325Q428 320 406 318T367 309Q362 307 350 301T324 287T294 275T268 269Q264 269 263 269T262 270T261 271T257 272Q251 272 246 268T234 261H216Q208 261 200 260T182 254Q177 251 174 241T170 220T168 198T167 181Q167 177 167 171T166 158Q166 148 167 137T173 117T186 101T209 95Q249 95 282 102T342 117T392 133T432 140Q462 140 475 130T488 96Q488 92 489 89T490 80Q490 72 484 63T455 39Q429 23 401 17T344 8T288 -1T238 -21Q229 -23 218 -24T196 -27T177 -29T166 -30Q137 -30 114 -17T75 16T51 62T42 113V121Q43 125 46 144T52 187T58 232T63 260Q72 307 76 335T84 385T88 424T90 469Q92 517 101 544T122 584T143 603T152 614V615Q152 623 146 630T139 651V654Q141 674 151 687T175 708T206 719T238 723Q241 723 255 721T285 716T315 711T332 709Q358 709 371 710T394 712T418 714T457 715Q480 715 497 708T514 671V669ZM467 952Q467 943 461 930T446 903T425 874T402 844Q393 832 376 814T338 777T295 747T253 734Q245 734 239 741T232 754Q232 760 233 763T238 769T246 778T257 791Q270 810 277 821T289 841T296 854T304 868Q314 884 320 894T329 915T333 937T334 972Q334 982 344 992T368 1010T398 1024T425 1030Q440 1030 448 1020T461 996T466 970T467 952Z"  />
<glyph unicode="&#xCA;" horiz-adv-x="527" d="M514 669Q513 663 511 654T505 636T498 621T488 613Q447 603 421 598T376 589T345 586T318 585H295Q289 585 275 585T250 584Q247 570 248 551T243 515Q240 506 236 499T228 481T221 458T215 424V421Q215 410 223 407T234 404Q241 404 248 402T262 400Q293 400 314 405T349 419T374 438T394 456T415 470T442 476Q455 476 466 466T484 443T496 418T500 400Q498 387 491 375T475 352T457 334T442 325Q428 320 406 318T367 309Q362 307 350 301T324 287T294 275T268 269Q264 269 263 269T262 270T261 271T257 272Q251 272 246 268T234 261H216Q208 261 200 260T182 254Q177 251 174 241T170 220T168 198T167 181Q167 177 167 171T166 158Q166 148 167 137T173 117T186 101T209 95Q249 95 282 102T342 117T392 133T432 140Q462 140 475 130T488 96Q488 92 489 89T490 80Q490 72 484 63T455 39Q429 23 401 17T344 8T288 -1T238 -21Q229 -23 218 -24T196 -27T177 -29T166 -30Q137 -30 114 -17T75 16T51 62T42 113V121Q43 125 46 144T52 187T58 232T63 260Q72 307 76 335T84 385T88 424T90 469Q92 517 101 544T122 584T143 603T152 614V615Q152 623 146 630T139 651V654Q141 674 151 687T175 708T206 719T238 723Q241 723 255 721T285 716T315 711T332 709Q358 709 371 710T394 712T418 714T457 715Q480 715 497 708T514 671V669ZM506 791Q506 765 500 759T476 753H454Q431 753 411 762T374 784T342 805T315 815Q300 815 283 806T248 783T210 758T170 738Q161 735 151 735Q134 735 124 745T113 773Q113 780 119 793T136 815Q146 822 168 838T209 870Q224 882 234 895T254 920T273 939T296 946Q301 946 312 940T335 926T357 911T371 902Q381 896 400 884T434 860Q440 857 451 851T470 841Q485 833 495 819T506 791Z"  />
<glyph unicode="&#xCB;" horiz-adv-x="527" d="M514 669Q513 663 511 654T505 636T498 621T488 613Q447 603 421 598T376 589T345 586T318 585H295Q289 585 275 585T250 584Q247 570 248 551T243 515Q240 506 236 499T228 481T221 458T215 424V421Q215 410 223 407T234 404Q241 404 248 402T262 400Q293 400 314 405T349 419T374 438T394 456T415 470T442 476Q455 476 466 466T484 443T496 418T500 400Q498 387 491 375T475 352T457 334T442 325Q428 320 406 318T367 309Q362 307 350 301T324 287T294 275T268 269Q264 269 263 269T262 270T261 271T257 272Q251 272 246 268T234 261H216Q208 261 200 260T182 254Q177 251 174 241T170 220T168 198T167 181Q167 177 167 171T166 158Q166 148 167 137T173 117T186 101T209 95Q249 95 282 102T342 117T392 133T432 140Q462 140 475 130T488 96Q488 92 489 89T490 80Q490 72 484 63T455 39Q429 23 401 17T344 8T288 -1T238 -21Q229 -23 218 -24T196 -27T177 -29T166 -30Q137 -30 114 -17T75 16T51 62T42 113V121Q43 125 46 144T52 187T58 232T63 260Q72 307 76 335T84 385T88 424T90 469Q92 517 101 544T122 584T143 603T152 614V615Q152 623 146 630T139 651V654Q141 674 151 687T175 708T206 719T238 723Q241 723 255 721T285 716T315 711T332 709Q358 709 371 710T394 712T418 714T457 715Q480 715 497 708T514 671V669ZM456 843Q456 834 455 821T447 795T428 774T395 765Q380 765 367 777T343 807T326 840T320 866Q320 876 327 885T345 901T365 912T380 917Q393 917 406 909T431 889T449 865T456 843ZM285 817Q285 809 279 798T264 776T245 758T224 750Q216 750 205 756T182 769T163 782T154 789Q153 798 152 809T150 826Q150 837 150 841T154 850T163 863T180 888Q182 888 186 887T195 885Q200 885 208 890T221 895Q236 895 248 886T268 865T280 840T285 817Z"  />
<glyph unicode="&#xCC;" horiz-adv-x="299" d="M253 527Q253 524 247 495T233 426T217 345T205 277Q198 228 196 203T193 171V169Q193 149 202 124T212 69V59Q211 47 201 32T177 5T149 -16T124 -25Q121 -25 113 -22T96 -13T78 -1T64 14Q61 18 58 30T52 57T47 86T45 110Q47 116 56 127T68 147Q82 244 89 316T99 435L106 541Q107 553 115 566T135 590T162 609T189 616Q208 616 220 606T239 582T250 554T253 530V527ZM245 762Q249 757 249 751Q249 735 224 735Q209 735 190 742T135 779Q135 789 126 793T111 804Q91 827 77 841T53 869T40 900T35 945V955Q55 961 70 970T102 979Q117 979 128 969T149 943T167 911T182 881Q205 840 218 812T245 762Z"  />
<glyph unicode="&#xCD;" horiz-adv-x="299" d="M253 527Q253 524 247 495T233 426T217 345T205 277Q198 228 196 203T193 171V169Q193 149 202 124T212 69V59Q211 47 201 32T177 5T149 -16T124 -25Q121 -25 113 -22T96 -13T78 -1T64 14Q61 18 58 30T52 57T47 86T45 110Q47 116 56 127T68 147Q82 244 89 316T99 435L106 541Q107 553 115 566T135 590T162 609T189 616Q208 616 220 606T239 582T250 554T253 530V527ZM341 952Q341 943 335 930T320 903T299 874T276 844Q267 832 250 814T212 777T169 747T127 734Q119 734 113 741T106 754Q106 760 107 763T112 769T120 778T131 791Q144 810 151 821T163 841T170 854T178 868Q188 884 194 894T203 915T207 937T208 972Q208 982 218 992T242 1010T272 1024T299 1030Q314 1030 322 1020T335 996T340 970T341 952Z"  />
<glyph unicode="&#xCE;" horiz-adv-x="299" d="M253 527Q253 524 247 495T233 426T217 345T205 277Q198 228 196 203T193 171V169Q193 149 202 124T212 69V59Q211 47 201 32T177 5T149 -16T124 -25Q121 -25 113 -22T96 -13T78 -1T64 14Q61 18 58 30T52 57T47 86T45 110Q47 116 56 127T68 147Q82 244 89 316T99 435L106 541Q107 553 115 566T135 590T162 609T189 616Q208 616 220 606T239 582T250 554T253 530V527ZM380 791Q380 765 374 759T350 753H328Q305 753 285 762T248 784T216 805T189 815Q174 815 157 806T122 783T84 758T44 738Q35 735 25 735Q8 735 -2 745T-13 773Q-13 780 -7 793T10 815Q20 822 42 838T83 870Q98 882 108 895T128 920T147 939T170 946Q175 946 186 940T209 926T231 911T245 902Q255 896 274 884T308 860Q314 857 325 851T344 841Q359 833 369 819T380 791Z"  />
<glyph unicode="&#xCF;" horiz-adv-x="299" d="M253 527Q253 524 247 495T233 426T217 345T205 277Q198 228 196 203T193 171V169Q193 149 202 124T212 69V59Q211 47 201 32T177 5T149 -16T124 -25Q121 -25 113 -22T96 -13T78 -1T64 14Q61 18 58 30T52 57T47 86T45 110Q47 116 56 127T68 147Q82 244 89 316T99 435L106 541Q107 553 115 566T135 590T162 609T189 616Q208 616 220 606T239 582T250 554T253 530V527ZM330 843Q330 834 329 821T321 795T302 774T269 765Q254 765 241 777T217 807T200 840T194 866Q194 876 201 885T219 901T239 912T254 917Q267 917 280 909T305 889T323 865T330 843ZM159 817Q159 809 153 798T138 776T119 758T98 750Q90 750 79 756T56 769T37 782T28 789Q27 798 26 809T24 826Q24 837 24 841T28 850T37 863T54 888Q56 888 60 887T69 885Q74 885 82 890T95 895Q110 895 122 886T142 865T154 840T159 817Z"  />
<glyph unicode="&#xD0;" horiz-adv-x="541" d="M516 419Q516 416 514 402T509 369T503 330T498 294Q490 224 470 179T421 105T360 62T292 38T226 23T167 4Q164 4 161 1T153 -7T145 -16T137 -21Q125 -25 108 -25Q95 -25 83 -23T58 -18Q47 -15 35 -11T12 0T-5 15T-12 35V38Q-12 45 -12 53T-8 68T3 81T24 86Q30 86 37 89T52 92Q61 92 68 103T80 131T89 169T95 207T98 238T99 254L98 296Q81 294 72 293T48 291H36Q27 291 17 292T-3 298T-18 312T-25 339Q-25 359 -23 370T-15 388T-2 395T19 397H47Q52 397 63 397T95 392L92 472Q95 509 116 549T171 621T244 675T324 696Q380 696 417 667T476 597T507 511T516 433V419ZM407 379Q407 389 405 407T400 445T392 481T383 504Q379 510 373 519T360 537T347 552T338 559Q324 557 313 556Q303 554 294 554T281 553Q260 553 248 536T230 495T221 444T216 398Q237 398 262 400T305 402Q309 402 316 396T331 382T343 366T348 352Q348 350 345 344T338 331T330 319T321 313Q317 313 317 315Q317 317 312 317Q306 317 302 308T290 299Q284 299 281 301T271 303Q268 303 248 302T202 299Q199 279 196 257T189 216T184 184T182 167Q182 164 185 157T192 142T201 130T209 124Q239 124 272 136T334 172T380 235T399 325Q399 336 402 353T407 376V379Z"  />
<glyph unicode="&#xD1;" horiz-adv-x="771" d="M776 537Q775 516 765 504T742 483T718 470T705 457Q697 440 691 408T679 338T668 265T659 205Q655 185 655 160T651 112Q645 92 636 71T613 29Q607 20 594 5T566 -23T540 -47T525 -57H474Q444 -57 422 -49T384 -24T354 16T328 71Q326 77 322 90T315 118T308 147T302 171Q299 185 297 211T290 266T278 319T258 356Q243 325 230 285T204 205T177 132T148 80Q148 69 142 53T125 22T97 -4T57 -15H40Q33 -15 25 -5T8 17T-5 40T-11 53Q-10 74 2 95T30 137T58 174T76 205Q89 221 103 251T132 318T161 395T187 470T210 533T227 572Q230 576 238 581T257 590T278 598T294 601Q314 601 327 591T349 564T362 527T369 489T373 456T378 435Q380 430 385 403T397 337T413 256T432 177T455 117T481 93Q496 93 510 120T538 189T562 279T580 370T592 442T597 474V475Q597 479 596 488T592 509T589 532T587 550V552Q588 564 594 580T612 611T641 636T682 647Q695 647 711 634T742 604T766 568T776 538V537ZM600 843Q600 828 598 810T587 776T565 749T528 738Q508 738 494 747T468 771T449 803T434 835Q421 830 411 816T392 787T378 759T368 747H349Q340 747 333 752T321 764T312 779T309 792Q309 803 316 815T332 840T350 865T364 888Q384 897 392 902T404 909T412 912T429 913Q458 913 481 889T519 830H524Q527 835 529 841T531 851Q531 866 525 874T513 888T500 901T494 924Q494 929 499 935T512 948T526 958T539 962Q561 962 573 951T592 922T599 883T600 843Z"  />
<glyph unicode="&#xD2;" horiz-adv-x="566" d="M536 533Q534 504 527 464T510 380T489 290T466 205T444 137T426 97Q418 83 401 61T340 10Q328 2 313 -4T281 -14T248 -21T219 -23Q188 -23 166 -10T128 23T103 68T87 115T77 156T69 181Q72 187 74 190T77 200V202Q77 207 74 214T71 227Q74 234 74 242Q74 244 74 245T73 249Q70 253 70 266Q70 280 73 302T81 348T91 398T103 444T113 479T120 495Q130 505 149 521T177 560Q188 586 205 602T236 618Q239 618 247 619T264 621T282 623T293 624Q305 624 317 627T346 635T386 644T445 648Q466 648 482 637T511 609T529 573T536 538V533ZM421 498Q416 505 408 512T390 523T373 531T361 534Q312 534 279 504T226 427T198 327T189 224Q189 220 191 202T200 163T216 126T244 109Q269 109 292 131T334 188T370 267T397 354T415 436T421 498ZM400 762Q404 757 404 751Q404 735 379 735Q364 735 345 742T290 779Q290 789 281 793T266 804Q246 827 232 841T208 869T195 900T190 945V955Q210 961 225 970T257 979Q272 979 283 969T304 943T322 911T337 881Q360 840 373 812T400 762Z"  />
<glyph unicode="&#xD3;" horiz-adv-x="566" d="M536 533Q534 504 527 464T510 380T489 290T466 205T444 137T426 97Q418 83 401 61T340 10Q328 2 313 -4T281 -14T248 -21T219 -23Q188 -23 166 -10T128 23T103 68T87 115T77 156T69 181Q72 187 74 190T77 200V202Q77 207 74 214T71 227Q74 234 74 242Q74 244 74 245T73 249Q70 253 70 266Q70 280 73 302T81 348T91 398T103 444T113 479T120 495Q130 505 149 521T177 560Q188 586 205 602T236 618Q239 618 247 619T264 621T282 623T293 624Q305 624 317 627T346 635T386 644T445 648Q466 648 482 637T511 609T529 573T536 538V533ZM421 498Q416 505 408 512T390 523T373 531T361 534Q312 534 279 504T226 427T198 327T189 224Q189 220 191 202T200 163T216 126T244 109Q269 109 292 131T334 188T370 267T397 354T415 436T421 498ZM496 952Q496 943 490 930T475 903T454 874T431 844Q422 832 405 814T367 777T324 747T282 734Q274 734 268 741T261 754Q261 760 262 763T267 769T275 778T286 791Q299 810 306 821T318 841T325 854T333 868Q343 884 349 894T358 915T362 937T363 972Q363 982 373 992T397 1010T427 1024T454 1030Q469 1030 477 1020T490 996T495 970T496 952Z"  />
<glyph unicode="&#xD4;" horiz-adv-x="566" d="M536 533Q534 504 527 464T510 380T489 290T466 205T444 137T426 97Q418 83 401 61T340 10Q328 2 313 -4T281 -14T248 -21T219 -23Q188 -23 166 -10T128 23T103 68T87 115T77 156T69 181Q72 187 74 190T77 200V202Q77 207 74 214T71 227Q74 234 74 242Q74 244 74 245T73 249Q70 253 70 266Q70 280 73 302T81 348T91 398T103 444T113 479T120 495Q130 505 149 521T177 560Q188 586 205 602T236 618Q239 618 247 619T264 621T282 623T293 624Q305 624 317 627T346 635T386 644T445 648Q466 648 482 637T511 609T529 573T536 538V533ZM421 498Q416 505 408 512T390 523T373 531T361 534Q312 534 279 504T226 427T198 327T189 224Q189 220 191 202T200 163T216 126T244 109Q269 109 292 131T334 188T370 267T397 354T415 436T421 498ZM535 791Q535 765 529 759T505 753H483Q460 753 440 762T403 784T371 805T344 815Q329 815 312 806T277 783T239 758T199 738Q190 735 180 735Q163 735 153 745T142 773Q142 780 148 793T165 815Q175 822 197 838T238 870Q253 882 263 895T283 920T302 939T325 946Q330 946 341 940T364 926T386 911T400 902Q410 896 429 884T463 860Q469 857 480 851T499 841Q514 833 524 819T535 791Z"  />
<glyph unicode="&#xD5;" horiz-adv-x="566" d="M536 533Q534 504 527 464T510 380T489 290T466 205T444 137T426 97Q418 83 401 61T340 10Q328 2 313 -4T281 -14T248 -21T219 -23Q188 -23 166 -10T128 23T103 68T87 115T77 156T69 181Q72 187 74 190T77 200V202Q77 207 74 214T71 227Q74 234 74 242Q74 244 74 245T73 249Q70 253 70 266Q70 280 73 302T81 348T91 398T103 444T113 479T120 495Q130 505 149 521T177 560Q188 586 205 602T236 618Q239 618 247 619T264 621T282 623T293 624Q305 624 317 627T346 635T386 644T445 648Q466 648 482 637T511 609T529 573T536 538V533ZM421 498Q416 505 408 512T390 523T373 531T361 534Q312 534 279 504T226 427T198 327T189 224Q189 220 191 202T200 163T216 126T244 109Q269 109 292 131T334 188T370 267T397 354T415 436T421 498ZM477 843Q477 828 475 810T464 776T442 749T405 738Q385 738 371 747T345 771T326 803T311 835Q298 830 288 816T269 787T255 759T245 747H226Q217 747 210 752T198 764T189 779T186 792Q186 803 193 815T209 840T227 865T241 888Q261 897 269 902T281 909T289 912T306 913Q335 913 358 889T396 830H401Q404 835 406 841T408 851Q408 866 402 874T390 888T377 901T371 924Q371 929 376 935T389 948T403 958T416 962Q438 962 450 951T469 922T476 883T477 843Z"  />
<glyph unicode="&#xD6;" horiz-adv-x="566" d="M536 533Q534 504 527 464T510 380T489 290T466 205T444 137T426 97Q418 83 401 61T340 10Q328 2 313 -4T281 -14T248 -21T219 -23Q188 -23 166 -10T128 23T103 68T87 115T77 156T69 181Q72 187 74 190T77 200V202Q77 207 74 214T71 227Q74 234 74 242Q74 244 74 245T73 249Q70 253 70 266Q70 280 73 302T81 348T91 398T103 444T113 479T120 495Q130 505 149 521T177 560Q188 586 205 602T236 618Q239 618 247 619T264 621T282 623T293 624Q305 624 317 627T346 635T386 644T445 648Q466 648 482 637T511 609T529 573T536 538V533ZM421 498Q416 505 408 512T390 523T373 531T361 534Q312 534 279 504T226 427T198 327T189 224Q189 220 191 202T200 163T216 126T244 109Q269 109 292 131T334 188T370 267T397 354T415 436T421 498ZM485 843Q485 834 484 821T476 795T457 774T424 765Q409 765 396 777T372 807T355 840T349 866Q349 876 356 885T374 901T394 912T409 917Q422 917 435 909T460 889T478 865T485 843ZM314 817Q314 809 308 798T293 776T274 758T253 750Q245 750 234 756T211 769T192 782T183 789Q182 798 181 809T179 826Q179 837 179 841T183 850T192 863T209 888Q211 888 215 887T224 885Q229 885 237 890T250 895Q265 895 277 886T297 865T309 840T314 817Z"  />
<glyph unicode="&#xD7;" horiz-adv-x="591" d="M443 63L297 212L147 62L54 154L203 301L64 440L153 534L297 395L438 535L528 440L388 301L536 154L443 63Z"  />
<glyph unicode="&#xD8;" horiz-adv-x="556" d="M538 729Q538 706 521 674T486 614Q500 596 508 573T518 533Q520 516 521 499T522 464Q522 395 508 335T474 227T436 146T408 97Q400 83 383 61T322 10Q305 -1 279 -9T227 -21Q225 -26 223 -36T219 -56T214 -76T211 -90Q208 -109 192 -128T153 -148Q138 -148 127 -142T109 -126T97 -105T93 -85Q93 -83 97 -71T106 -42T117 -12T124 9Q104 28 92 54T73 106T61 152T52 181Q52 198 54 215T56 249Q56 257 59 277T67 324T77 379T88 432T97 474T102 495Q110 514 124 533T155 568T189 597T219 618Q221 619 229 621T246 626T263 631T275 634Q286 636 295 638T316 642T341 645T375 647Q387 675 398 701T423 746T453 777T493 789Q499 789 507 783T521 768T533 749T538 729ZM407 476Q372 407 342 342T291 222Q280 196 277 173T267 129Q266 126 264 123T261 117Q291 130 318 162T365 238T398 331T410 430Q410 453 407 476ZM325 537Q283 529 254 497T207 418T181 321T172 224Q172 222 172 215T173 197T175 175T179 155Q197 215 213 256T243 328Q259 364 273 399T299 464T318 512T325 537Z"  />
<glyph unicode="&#xD9;" horiz-adv-x="553" d="M542 561Q542 554 539 538T530 502T519 460T508 420T499 389T495 375Q496 372 496 364Q496 343 488 307T465 227T428 140T377 60T313 2T237 -21Q181 -21 148 6T96 74T72 163T64 253Q65 254 67 279T73 343T78 428T83 519Q86 537 93 556T112 592T141 618T181 629Q188 629 198 625T217 612T232 594T239 571V568Q239 567 236 547T227 496T216 427T204 354T194 288T189 243Q189 240 189 236T188 227Q188 211 190 191T197 152T212 122T237 109Q271 109 298 141T343 215T371 297T383 356Q383 360 383 365T384 376Q384 393 383 417T381 467T379 514T378 550V560Q379 577 385 599T403 642T430 676T466 690Q488 690 500 677T519 648T526 616T527 595V592Q527 584 534 576T542 563V561ZM370 762Q374 757 374 751Q374 735 349 735Q334 735 315 742T260 779Q260 789 251 793T236 804Q216 827 202 841T178 869T165 900T160 945V955Q180 961 195 970T227 979Q242 979 253 969T274 943T292 911T307 881Q330 840 343 812T370 762Z"  />
<glyph unicode="&#xDA;" horiz-adv-x="553" d="M542 561Q542 554 539 538T530 502T519 460T508 420T499 389T495 375Q496 372 496 364Q496 343 488 307T465 227T428 140T377 60T313 2T237 -21Q181 -21 148 6T96 74T72 163T64 253Q65 254 67 279T73 343T78 428T83 519Q86 537 93 556T112 592T141 618T181 629Q188 629 198 625T217 612T232 594T239 571V568Q239 567 236 547T227 496T216 427T204 354T194 288T189 243Q189 240 189 236T188 227Q188 211 190 191T197 152T212 122T237 109Q271 109 298 141T343 215T371 297T383 356Q383 360 383 365T384 376Q384 393 383 417T381 467T379 514T378 550V560Q379 577 385 599T403 642T430 676T466 690Q488 690 500 677T519 648T526 616T527 595V592Q527 584 534 576T542 563V561ZM466 952Q466 943 460 930T445 903T424 874T401 844Q392 832 375 814T337 777T294 747T252 734Q244 734 238 741T231 754Q231 760 232 763T237 769T245 778T256 791Q269 810 276 821T288 841T295 854T303 868Q313 884 319 894T328 915T332 937T333 972Q333 982 343 992T367 1010T397 1024T424 1030Q439 1030 447 1020T460 996T465 970T466 952Z"  />
<glyph unicode="&#xDB;" horiz-adv-x="553" d="M542 561Q542 554 539 538T530 502T519 460T508 420T499 389T495 375Q496 372 496 364Q496 343 488 307T465 227T428 140T377 60T313 2T237 -21Q181 -21 148 6T96 74T72 163T64 253Q65 254 67 279T73 343T78 428T83 519Q86 537 93 556T112 592T141 618T181 629Q188 629 198 625T217 612T232 594T239 571V568Q239 567 236 547T227 496T216 427T204 354T194 288T189 243Q189 240 189 236T188 227Q188 211 190 191T197 152T212 122T237 109Q271 109 298 141T343 215T371 297T383 356Q383 360 383 365T384 376Q384 393 383 417T381 467T379 514T378 550V560Q379 577 385 599T403 642T430 676T466 690Q488 690 500 677T519 648T526 616T527 595V592Q527 584 534 576T542 563V561ZM505 791Q505 765 499 759T475 753H453Q430 753 410 762T373 784T341 805T314 815Q299 815 282 806T247 783T209 758T169 738Q160 735 150 735Q133 735 123 745T112 773Q112 780 118 793T135 815Q145 822 167 838T208 870Q223 882 233 895T253 920T272 939T295 946Q300 946 311 940T334 926T356 911T370 902Q380 896 399 884T433 860Q439 857 450 851T469 841Q484 833 494 819T505 791Z"  />
<glyph unicode="&#xDC;" horiz-adv-x="553" d="M542 561Q542 554 539 538T530 502T519 460T508 420T499 389T495 375Q496 372 496 364Q496 343 488 307T465 227T428 140T377 60T313 2T237 -21Q181 -21 148 6T96 74T72 163T64 253Q65 254 67 279T73 343T78 428T83 519Q86 537 93 556T112 592T141 618T181 629Q188 629 198 625T217 612T232 594T239 571V568Q239 567 236 547T227 496T216 427T204 354T194 288T189 243Q189 240 189 236T188 227Q188 211 190 191T197 152T212 122T237 109Q271 109 298 141T343 215T371 297T383 356Q383 360 383 365T384 376Q384 393 383 417T381 467T379 514T378 550V560Q379 577 385 599T403 642T430 676T466 690Q488 690 500 677T519 648T526 616T527 595V592Q527 584 534 576T542 563V561ZM455 843Q455 834 454 821T446 795T427 774T394 765Q379 765 366 777T342 807T325 840T319 866Q319 876 326 885T344 901T364 912T379 917Q392 917 405 909T430 889T448 865T455 843ZM284 817Q284 809 278 798T263 776T244 758T223 750Q215 750 204 756T181 769T162 782T153 789Q152 798 151 809T149 826Q149 837 149 841T153 850T162 863T179 888Q181 888 185 887T194 885Q199 885 207 890T220 895Q235 895 247 886T267 865T279 840T284 817Z"  />
<glyph unicode="&#xDD;" horiz-adv-x="529" d="M548 613Q545 589 538 576T520 553T496 529T466 491Q464 488 459 483T446 470T432 455T419 440Q398 414 390 396T379 363T377 335T374 307Q369 297 363 287T345 268Q313 235 298 206T274 146T262 84T249 14Q244 6 232 -2T215 -14Q195 -27 188 -30T173 -33H158Q132 -33 113 -19T94 19Q94 21 94 23T95 27Q99 58 117 93T157 167T196 243T216 318Q202 330 186 349T152 388T115 425T76 450Q70 452 63 459T47 475T31 495T15 515Q15 529 12 545T8 568Q9 575 14 585T26 605T44 622T68 629Q71 629 78 629T94 626T110 621T121 613Q134 593 152 575T193 537T239 496T288 451Q289 452 301 470T331 513T371 568T415 623T457 664T491 681Q521 681 535 670T550 632Q550 627 550 623T548 613ZM429 952Q429 943 423 930T408 903T387 874T364 844Q355 832 338 814T300 777T257 747T215 734Q207 734 201 741T194 754Q194 760 195 763T200 769T208 778T219 791Q232 810 239 821T251 841T258 854T266 868Q276 884 282 894T291 915T295 937T296 972Q296 982 306 992T330 1010T360 1024T387 1030Q402 1030 410 1020T423 996T428 970T429 952Z"  />
<glyph unicode="&#xDE;" horiz-adv-x="580" d="M553 513Q550 454 529 417T476 358T406 324T329 302T258 280T202 246Q176 220 172 189Q172 187 172 185T171 180Q171 168 175 159T183 141T192 120T196 92Q196 89 196 86T195 77Q194 69 186 53T164 21T135 -8T104 -21Q90 -21 77 -14T53 5T36 32T30 64V72Q30 75 33 82T39 97T46 113T49 127Q49 134 44 136L74 381Q81 393 84 418T89 472T96 528T108 572Q109 573 109 579T109 594Q109 605 109 619T109 648T108 677T108 702V719Q109 725 113 735T124 755T139 772T154 779Q161 779 172 778T194 774T215 763T230 745Q228 734 228 728T226 709Q225 703 224 691T222 662T218 627T215 590Q252 611 279 626T330 650T378 664T436 668Q467 668 489 652T525 613T546 564T553 519V513ZM424 493Q424 499 422 508T415 526T406 541T393 548Q385 548 365 541T320 523T268 499T220 472L223 442Q229 436 229 427Q229 419 226 410T218 393L240 383Q242 384 256 385T291 391T334 401T376 419T409 448T424 491V493Z"  />
<glyph unicode="&#xDF;" horiz-adv-x="757" d="M730 627Q730 589 716 561T681 513T640 480T603 457Q589 448 573 440T544 421T521 399T512 369Q512 346 525 330T557 301T599 274T641 246T674 209T687 159Q687 112 666 79T611 23T531 -12T438 -29Q433 -29 426 -35T413 -42Q407 -42 402 -37T393 -29Q375 -23 364 -14T347 6T339 29T337 52Q337 61 343 71T357 89T375 103T393 109Q415 109 422 106T432 98T440 91T462 87Q480 87 498 92T530 106T554 128T563 159Q563 179 546 192T505 216T460 234T429 253Q424 259 419 261T409 268T399 279T388 302Q386 308 385 317T384 335T383 351T383 360Q383 385 395 408T427 451T471 489T522 522Q533 529 547 537T574 557T595 582T604 611Q604 629 596 643T574 666T543 681T507 686Q428 686 369 626T283 442Q237 233 202 55T141 -282Q138 -300 131 -325T110 -374T77 -415T30 -432Q24 -432 19 -425T3 -412Q-1 -410 -6 -409T-18 -405Q-21 -399 -25 -391T-33 -375T-40 -360T-43 -349Q-43 -334 -36 -316T-18 -284Q-7 -274 5 -267T34 -248Q39 -228 50 -185T74 -86T103 29T130 142T149 235T157 289V304Q138 311 128 311Q121 311 106 308T83 304Q70 304 57 306T34 315T17 332T10 360Q10 378 19 389T42 405T68 411T88 413Q94 413 108 411T130 409Q135 409 145 411T165 415T183 421T192 428Q196 448 200 466T209 504T220 546T235 596Q251 648 281 685T350 747T432 782T520 793Q531 793 551 792T594 784T642 767T685 738T717 692T730 627Z"  />
<glyph unicode="&#xE0;" horiz-adv-x="676" d="M728 110Q728 97 716 84T685 57T644 33T602 13T568 -1T549 -6H514Q507 -6 494 1T466 17T440 38T423 59Q409 84 401 100T388 129T378 152T370 174Q343 138 310 98T243 25T174 -31T110 -53Q97 -53 80 -50T48 -38T22 -15T11 21Q11 29 17 46T34 85T57 128T81 170T102 204T115 221Q175 282 220 329T301 408T369 457T432 474Q449 474 466 466T496 445T518 415T527 379Q527 371 521 347T508 295T495 243T489 212Q489 169 510 138T579 106Q599 106 614 110T642 122T665 136T685 148Q692 152 699 152Q707 152 712 147T721 135T726 121T728 110ZM350 311Q338 311 320 299T282 268T242 225T206 177T178 130T163 91Q173 97 183 102T205 118T232 143T270 183Q311 230 330 259T350 306V311ZM431 521Q435 516 435 510Q435 494 410 494Q395 494 376 501T321 538Q321 548 312 552T297 563Q277 586 263 600T239 628T226 659T221 704V714Q241 720 256 729T288 738Q303 738 314 728T335 702T353 670T368 640Q391 599 404 571T431 521Z"  />
<glyph unicode="&#xE1;" horiz-adv-x="676" d="M728 110Q728 97 716 84T685 57T644 33T602 13T568 -1T549 -6H514Q507 -6 494 1T466 17T440 38T423 59Q409 84 401 100T388 129T378 152T370 174Q343 138 310 98T243 25T174 -31T110 -53Q97 -53 80 -50T48 -38T22 -15T11 21Q11 29 17 46T34 85T57 128T81 170T102 204T115 221Q175 282 220 329T301 408T369 457T432 474Q449 474 466 466T496 445T518 415T527 379Q527 371 521 347T508 295T495 243T489 212Q489 169 510 138T579 106Q599 106 614 110T642 122T665 136T685 148Q692 152 699 152Q707 152 712 147T721 135T726 121T728 110ZM350 311Q338 311 320 299T282 268T242 225T206 177T178 130T163 91Q173 97 183 102T205 118T232 143T270 183Q311 230 330 259T350 306V311ZM527 711Q527 702 521 689T506 662T485 633T462 603Q453 591 436 573T398 536T355 506T313 493Q305 493 299 500T292 513Q292 519 293 522T298 528T306 537T317 550Q330 569 337 580T349 600T356 613T364 627Q374 643 380 653T389 674T393 696T394 731Q394 741 404 751T428 769T458 783T485 789Q500 789 508 779T521 755T526 729T527 711Z"  />
<glyph unicode="&#xE2;" horiz-adv-x="676" d="M728 110Q728 97 716 84T685 57T644 33T602 13T568 -1T549 -6H514Q507 -6 494 1T466 17T440 38T423 59Q409 84 401 100T388 129T378 152T370 174Q343 138 310 98T243 25T174 -31T110 -53Q97 -53 80 -50T48 -38T22 -15T11 21Q11 29 17 46T34 85T57 128T81 170T102 204T115 221Q175 282 220 329T301 408T369 457T432 474Q449 474 466 466T496 445T518 415T527 379Q527 371 521 347T508 295T495 243T489 212Q489 169 510 138T579 106Q599 106 614 110T642 122T665 136T685 148Q692 152 699 152Q707 152 712 147T721 135T726 121T728 110ZM350 311Q338 311 320 299T282 268T242 225T206 177T178 130T163 91Q173 97 183 102T205 118T232 143T270 183Q311 230 330 259T350 306V311ZM566 550Q566 524 560 518T536 512H514Q491 512 471 521T434 543T402 564T375 574Q360 574 343 565T308 542T270 517T230 497Q221 494 211 494Q194 494 184 504T173 532Q173 539 179 552T196 574Q206 581 228 597T269 629Q284 641 294 654T314 679T333 698T356 705Q361 705 372 699T395 685T417 670T431 661Q441 655 460 643T494 619Q500 616 511 610T530 600Q545 592 555 578T566 550Z"  />
<glyph unicode="&#xE3;" horiz-adv-x="676" d="M728 110Q728 97 716 84T685 57T644 33T602 13T568 -1T549 -6H514Q507 -6 494 1T466 17T440 38T423 59Q409 84 401 100T388 129T378 152T370 174Q343 138 310 98T243 25T174 -31T110 -53Q97 -53 80 -50T48 -38T22 -15T11 21Q11 29 17 46T34 85T57 128T81 170T102 204T115 221Q175 282 220 329T301 408T369 457T432 474Q449 474 466 466T496 445T518 415T527 379Q527 371 521 347T508 295T495 243T489 212Q489 169 510 138T579 106Q599 106 614 110T642 122T665 136T685 148Q692 152 699 152Q707 152 712 147T721 135T726 121T728 110ZM350 311Q338 311 320 299T282 268T242 225T206 177T178 130T163 91Q173 97 183 102T205 118T232 143T270 183Q311 230 330 259T350 306V311ZM508 602Q508 587 506 569T495 535T473 508T436 497Q416 497 402 506T376 530T357 562T342 594Q329 589 319 575T300 546T286 518T276 506H257Q248 506 241 511T229 523T220 538T217 551Q217 562 224 574T240 599T258 624T272 647Q292 656 300 661T312 668T320 671T337 672Q366 672 389 648T427 589H432Q435 594 437 600T439 610Q439 625 433 633T421 647T408 660T402 683Q402 688 407 694T420 707T434 717T447 721Q469 721 481 710T500 681T507 642T508 602Z"  />
<glyph unicode="&#xE4;" horiz-adv-x="676" d="M728 110Q728 97 716 84T685 57T644 33T602 13T568 -1T549 -6H514Q507 -6 494 1T466 17T440 38T423 59Q409 84 401 100T388 129T378 152T370 174Q343 138 310 98T243 25T174 -31T110 -53Q97 -53 80 -50T48 -38T22 -15T11 21Q11 29 17 46T34 85T57 128T81 170T102 204T115 221Q175 282 220 329T301 408T369 457T432 474Q449 474 466 466T496 445T518 415T527 379Q527 371 521 347T508 295T495 243T489 212Q489 169 510 138T579 106Q599 106 614 110T642 122T665 136T685 148Q692 152 699 152Q707 152 712 147T721 135T726 121T728 110ZM350 311Q338 311 320 299T282 268T242 225T206 177T178 130T163 91Q173 97 183 102T205 118T232 143T270 183Q311 230 330 259T350 306V311ZM516 602Q516 593 515 580T507 554T488 533T455 524Q440 524 427 536T403 566T386 599T380 625Q380 635 387 644T405 660T425 671T440 676Q453 676 466 668T491 648T509 624T516 602ZM345 576Q345 568 339 557T324 535T305 517T284 509Q276 509 265 515T242 528T223 541T214 548Q213 557 212 568T210 585Q210 596 210 600T214 609T223 622T240 647Q242 647 246 646T255 644Q260 644 268 649T281 654Q296 654 308 645T328 624T340 599T345 576Z"  />
<glyph unicode="&#xE5;" horiz-adv-x="676" d="M728 110Q728 97 716 84T685 57T644 33T602 13T568 -1T549 -6H514Q507 -6 494 1T466 17T440 38T423 59Q409 84 401 100T388 129T378 152T370 174Q343 138 310 98T243 25T174 -31T110 -53Q97 -53 80 -50T48 -38T22 -15T11 21Q11 29 17 46T34 85T57 128T81 170T102 204T115 221Q175 282 220 329T301 408T369 457T432 474Q449 474 466 466T496 445T518 415T527 379Q527 371 521 347T508 295T495 243T489 212Q489 169 510 138T579 106Q599 106 614 110T642 122T665 136T685 148Q692 152 699 152Q707 152 712 147T721 135T726 121T728 110ZM350 311Q338 311 320 299T282 268T242 225T206 177T178 130T163 91Q173 97 183 102T205 118T232 143T270 183Q311 230 330 259T350 306V311ZM532 642Q532 620 529 607T520 585Q519 583 512 573T493 551T471 530T450 521Q447 521 441 520T432 519Q421 519 406 527T377 546T353 571T343 597Q343 610 345 638T357 696T385 747T437 770Q457 770 474 754T504 717T524 674T532 642ZM469 622Q469 629 467 640T460 661T451 680T438 692Q433 684 426 675T411 655T399 637T394 624Q394 621 395 615T401 602T410 590T425 585Q429 585 436 588T450 597T463 609T469 622Z"  />
<glyph unicode="&#xE6;" horiz-adv-x="789" d="M773 398Q773 378 760 354T727 305T681 257T630 214T581 183T542 167Q539 167 534 160T524 143T516 123T512 105Q512 91 519 81T536 71Q554 71 573 82T611 107T646 132T676 144Q682 144 688 139T699 126T708 111T712 99Q712 85 699 69T666 35T621 1T575 -28T535 -49T512 -57Q481 -57 460 -41T424 -3T402 44T390 87Q387 101 386 115T385 144V168Q385 181 384 186Q357 150 322 108T250 31T176 -29T110 -53Q97 -53 80 -50T48 -38T22 -15T11 21Q11 29 16 48T28 90T45 138T64 185T80 222T91 241Q151 302 199 346T289 418T365 460T432 474Q449 474 466 465T496 440T518 407T527 370Q531 373 551 390T596 428T644 464T676 480Q715 480 744 459T773 398ZM350 311Q312 311 280 283T222 217T182 143T163 91Q173 97 183 102T205 118T232 143T270 183Q311 230 330 259T350 306V311Z"  />
<glyph unicode="&#xE7;" horiz-adv-x="392" d="M448 124Q448 105 435 87T383 42Q353 22 320 7T253 -19T190 -36T136 -42Q109 -42 90 -33T57 -7T37 31T30 75Q30 95 33 119T41 168T52 219T66 268Q70 280 82 296T100 330Q106 354 125 383T168 437T220 478T270 495Q281 495 294 491T318 479T337 458T345 427Q345 410 330 395T291 362T240 322T189 271T150 203T134 112Q134 92 143 77T176 61Q233 61 298 85T433 148Q435 149 437 149Q441 149 443 145T446 137T447 128T448 124ZM296 -113Q296 -139 282 -164T245 -213T197 -256T146 -287Q140 -290 132 -295T115 -307T100 -317T91 -321Q83 -321 75 -309T67 -290Q67 -286 71 -275T80 -254Q100 -251 118 -235T149 -197T170 -149T178 -101V-94Q178 -86 189 -76T205 -64Q208 -62 218 -60T239 -57Q248 -57 256 -60Q264 -63 271 -70T283 -85T292 -101T296 -113Z"  />
<glyph unicode="&#xE8;" horiz-adv-x="432" d="M416 398Q416 378 403 354T370 305T323 257T272 214T223 183T184 167Q181 167 176 160T166 143T158 123T154 105Q154 91 161 81T178 71Q196 71 215 82T253 107T288 132T318 144Q324 144 330 139T342 126T351 111T355 99Q355 85 342 69T309 35T264 1T217 -28T177 -49T154 -57Q123 -57 102 -41T68 -1T50 48T44 90Q44 104 46 115T52 135T58 153T61 174Q61 182 57 189T47 203T38 221T33 245Q33 273 41 286T62 304T91 310T122 317T149 333T169 370Q169 370 178 378T202 399T234 425T268 452T298 472T318 480Q357 480 386 459T416 398ZM361 521Q365 516 365 510Q365 494 340 494Q325 494 306 501T251 538Q251 548 242 552T227 563Q207 586 193 600T169 628T156 659T151 704V714Q171 720 186 729T218 738Q233 738 244 728T265 702T283 670T298 640Q321 599 334 571T361 521Z"  />
<glyph unicode="&#xE9;" horiz-adv-x="432" d="M416 398Q416 378 403 354T370 305T323 257T272 214T223 183T184 167Q181 167 176 160T166 143T158 123T154 105Q154 91 161 81T178 71Q196 71 215 82T253 107T288 132T318 144Q324 144 330 139T342 126T351 111T355 99Q355 85 342 69T309 35T264 1T217 -28T177 -49T154 -57Q123 -57 102 -41T68 -1T50 48T44 90Q44 104 46 115T52 135T58 153T61 174Q61 182 57 189T47 203T38 221T33 245Q33 273 41 286T62 304T91 310T122 317T149 333T169 370Q169 370 178 378T202 399T234 425T268 452T298 472T318 480Q357 480 386 459T416 398ZM457 711Q457 702 451 689T436 662T415 633T392 603Q383 591 366 573T328 536T285 506T243 493Q235 493 229 500T222 513Q222 519 223 522T228 528T236 537T247 550Q260 569 267 580T279 600T286 613T294 627Q304 643 310 653T319 674T323 696T324 731Q324 741 334 751T358 769T388 783T415 789Q430 789 438 779T451 755T456 729T457 711Z"  />
<glyph unicode="&#xEA;" horiz-adv-x="432" d="M416 398Q416 378 403 354T370 305T323 257T272 214T223 183T184 167Q181 167 176 160T166 143T158 123T154 105Q154 91 161 81T178 71Q196 71 215 82T253 107T288 132T318 144Q324 144 330 139T342 126T351 111T355 99Q355 85 342 69T309 35T264 1T217 -28T177 -49T154 -57Q123 -57 102 -41T68 -1T50 48T44 90Q44 104 46 115T52 135T58 153T61 174Q61 182 57 189T47 203T38 221T33 245Q33 273 41 286T62 304T91 310T122 317T149 333T169 370Q169 370 178 378T202 399T234 425T268 452T298 472T318 480Q357 480 386 459T416 398ZM496 550Q496 524 490 518T466 512H444Q421 512 401 521T364 543T332 564T305 574Q290 574 273 565T238 542T200 517T160 497Q151 494 141 494Q124 494 114 504T103 532Q103 539 109 552T126 574Q136 581 158 597T199 629Q214 641 224 654T244 679T263 698T286 705Q291 705 302 699T325 685T347 670T361 661Q371 655 390 643T424 619Q430 616 441 610T460 600Q475 592 485 578T496 550Z"  />
<glyph unicode="&#xEB;" horiz-adv-x="432" d="M416 398Q416 378 403 354T370 305T323 257T272 214T223 183T184 167Q181 167 176 160T166 143T158 123T154 105Q154 91 161 81T178 71Q196 71 215 82T253 107T288 132T318 144Q324 144 330 139T342 126T351 111T355 99Q355 85 342 69T309 35T264 1T217 -28T177 -49T154 -57Q123 -57 102 -41T68 -1T50 48T44 90Q44 104 46 115T52 135T58 153T61 174Q61 182 57 189T47 203T38 221T33 245Q33 273 41 286T62 304T91 310T122 317T149 333T169 370Q169 370 178 378T202 399T234 425T268 452T298 472T318 480Q357 480 386 459T416 398ZM446 602Q446 593 445 580T437 554T418 533T385 524Q370 524 357 536T333 566T316 599T310 625Q310 635 317 644T335 660T355 671T370 676Q383 676 396 668T421 648T439 624T446 602ZM275 576Q275 568 269 557T254 535T235 517T214 509Q206 509 195 515T172 528T153 541T144 548Q143 557 142 568T140 585Q140 596 140 600T144 609T153 622T170 647Q172 647 176 646T185 644Q190 644 198 649T211 654Q226 654 238 645T258 624T270 599T275 576Z"  />
<glyph unicode="&#xEC;" horiz-adv-x="374" d="M440 178Q440 160 420 135T375 84T325 40T294 14Q292 12 279 4T250 -13T217 -29T193 -37Q190 -37 183 -37T166 -36T150 -35T139 -34Q135 -34 125 -24T105 0T86 25T78 38Q67 64 65 92T61 143V150Q61 169 63 198T71 261T86 328T109 389T139 433T178 450Q186 450 195 441T212 421T225 398T231 383Q231 380 224 355T207 295T190 224T182 165Q182 158 184 147T188 123T192 102T197 91H204Q223 91 244 98T286 116T324 140T355 165Q359 169 368 175T387 188T405 198T416 203Q424 203 432 195T440 178ZM257 521Q261 516 261 510Q261 494 236 494Q221 494 202 501T147 538Q147 548 138 552T123 563Q103 586 89 600T65 628T52 659T47 704V714Q67 720 82 729T114 738Q129 738 140 728T161 702T179 670T194 640Q217 599 230 571T257 521Z"  />
<glyph unicode="&#xED;" horiz-adv-x="374" d="M440 178Q440 160 420 135T375 84T325 40T294 14Q292 12 279 4T250 -13T217 -29T193 -37Q190 -37 183 -37T166 -36T150 -35T139 -34Q135 -34 125 -24T105 0T86 25T78 38Q67 64 65 92T61 143V150Q61 169 63 198T71 261T86 328T109 389T139 433T178 450Q186 450 195 441T212 421T225 398T231 383Q231 380 224 355T207 295T190 224T182 165Q182 158 184 147T188 123T192 102T197 91H204Q223 91 244 98T286 116T324 140T355 165Q359 169 368 175T387 188T405 198T416 203Q424 203 432 195T440 178ZM353 711Q353 702 347 689T332 662T311 633T288 603Q279 591 262 573T224 536T181 506T139 493Q131 493 125 500T118 513Q118 519 119 522T124 528T132 537T143 550Q156 569 163 580T175 600T182 613T190 627Q200 643 206 653T215 674T219 696T220 731Q220 741 230 751T254 769T284 783T311 789Q326 789 334 779T347 755T352 729T353 711Z"  />
<glyph unicode="&#xEE;" horiz-adv-x="374" d="M440 178Q440 160 420 135T375 84T325 40T294 14Q292 12 279 4T250 -13T217 -29T193 -37Q190 -37 183 -37T166 -36T150 -35T139 -34Q135 -34 125 -24T105 0T86 25T78 38Q67 64 65 92T61 143V150Q61 169 63 198T71 261T86 328T109 389T139 433T178 450Q186 450 195 441T212 421T225 398T231 383Q231 380 224 355T207 295T190 224T182 165Q182 158 184 147T188 123T192 102T197 91H204Q223 91 244 98T286 116T324 140T355 165Q359 169 368 175T387 188T405 198T416 203Q424 203 432 195T440 178ZM392 550Q392 524 386 518T362 512H340Q317 512 297 521T260 543T228 564T201 574Q186 574 169 565T134 542T96 517T56 497Q47 494 37 494Q20 494 10 504T-1 532Q-1 539 5 552T22 574Q32 581 54 597T95 629Q110 641 120 654T140 679T159 698T182 705Q187 705 198 699T221 685T243 670T257 661Q267 655 286 643T320 619Q326 616 337 610T356 600Q371 592 381 578T392 550Z"  />
<glyph unicode="&#xEF;" horiz-adv-x="374" d="M440 178Q440 160 420 135T375 84T325 40T294 14Q292 12 279 4T250 -13T217 -29T193 -37Q190 -37 183 -37T166 -36T150 -35T139 -34Q135 -34 125 -24T105 0T86 25T78 38Q67 64 65 92T61 143V150Q61 169 63 198T71 261T86 328T109 389T139 433T178 450Q186 450 195 441T212 421T225 398T231 383Q231 380 224 355T207 295T190 224T182 165Q182 158 184 147T188 123T192 102T197 91H204Q223 91 244 98T286 116T324 140T355 165Q359 169 368 175T387 188T405 198T416 203Q424 203 432 195T440 178ZM342 602Q342 593 341 580T333 554T314 533T281 524Q266 524 253 536T229 566T212 599T206 625Q206 635 213 644T231 660T251 671T266 676Q279 676 292 668T317 648T335 624T342 602ZM171 576Q171 568 165 557T150 535T131 517T110 509Q102 509 91 515T68 528T49 541T40 548Q39 557 38 568T36 585Q36 596 36 600T40 609T49 622T66 647Q68 647 72 646T81 644Q86 644 94 649T107 654Q122 654 134 645T154 624T166 599T171 576Z"  />
<glyph unicode="&#xF0;" horiz-adv-x="462" d="M416 133Q416 95 407 71T370 42Q367 34 354 22T323 -1T286 -20T250 -28H226Q202 -28 171 -16T113 20T66 81T47 165Q47 192 54 222T75 278T113 319T168 336Q182 336 196 329T217 322Q224 322 227 324T234 330Q234 331 231 341T220 368T204 403T182 442Q179 441 171 436T153 425T135 414T123 407Q111 402 99 397T74 392Q63 392 54 398T37 419Q32 431 32 439Q32 451 38 460T54 476T72 487T86 495Q89 497 102 500T123 508Q115 515 105 520T83 528Q76 530 71 533T59 541Q50 546 44 557T34 579T29 601T27 615Q27 618 30 629T39 651T54 671T76 680Q95 680 115 670T155 644T193 606T229 562Q232 563 240 570T258 586T276 601T288 610Q296 614 302 615T316 616Q338 616 353 603T374 579Q376 576 376 569Q376 555 364 541T340 520Q334 518 330 517T318 512Q314 510 303 506T277 495Q281 489 284 484T291 474Q309 440 327 405Q342 375 357 340T383 275Q389 255 395 240T405 209T413 176T416 133ZM298 129Q298 143 289 162T267 198T237 228T204 240H201Q193 237 187 235Q182 233 178 232T171 231Q167 218 163 205Q160 194 158 182T155 158Q155 133 166 116T193 89T224 74T249 69Q252 69 260 75T276 91T291 111T298 129Z"  />
<glyph unicode="&#xF1;" horiz-adv-x="692" d="M755 101Q746 89 728 71T690 35T649 2T616 -19Q614 -20 607 -23T591 -29T571 -35T552 -38Q508 -38 476 -15T411 53Q406 72 399 105T384 171T371 226T361 250Q359 250 344 231T305 183T252 120T191 58T132 10T81 -10Q65 -10 52 0T29 26T14 56T8 82Q8 88 19 120T44 193T69 271T81 323V326Q90 349 94 370T105 409T128 436T173 447Q190 447 201 440T220 420T231 394T234 366Q234 352 225 329T203 281T182 235T172 203Q172 195 173 194T177 192Q190 209 211 234T255 286T300 342T335 393Q345 410 360 414T392 419Q425 419 443 395T472 334T488 255T502 176T525 116T567 91Q599 91 623 99T666 119T700 143T730 162Q733 163 735 163T741 164Q753 164 761 156T770 135Q770 127 767 119T755 101ZM444 602Q444 587 442 569T431 535T409 508T372 497Q352 497 338 506T312 530T293 562T278 594Q265 589 255 575T236 546T222 518T212 506H193Q184 506 177 511T165 523T156 538T153 551Q153 562 160 574T176 599T194 624T208 647Q228 656 236 661T248 668T256 671T273 672Q302 672 325 648T363 589H368Q371 594 373 600T375 610Q375 625 369 633T357 647T344 660T338 683Q338 688 343 694T356 707T370 717T383 721Q405 721 417 710T436 681T443 642T444 602Z"  />
<glyph unicode="&#xF2;" horiz-adv-x="479" d="M455 345Q455 313 448 276T426 203T392 136T345 87Q331 77 318 61T289 33Q280 26 265 18T233 3T197 -9T163 -14Q143 -14 119 -7T72 15T34 50T19 95Q19 129 26 150T44 191T62 232T73 291Q118 333 150 363T213 414T276 443T356 453Q376 453 394 442T425 415T447 380T455 345ZM371 325Q370 331 367 336Q365 340 362 343T354 347Q342 347 333 344T313 335T288 321T254 304Q245 300 234 291T212 271T193 249T184 231Q182 225 180 219T177 210Q168 197 161 190T150 175T143 159T140 131Q140 123 142 117T148 105H178Q188 105 204 112T237 129T267 146T284 158Q294 165 308 186T337 232T361 283T371 325ZM359 521Q363 516 363 510Q363 494 338 494Q323 494 304 501T249 538Q249 548 240 552T225 563Q205 586 191 600T167 628T154 659T149 704V714Q169 720 184 729T216 738Q231 738 242 728T263 702T281 670T296 640Q319 599 332 571T359 521Z"  />
<glyph unicode="&#xF3;" horiz-adv-x="479" d="M455 345Q455 313 448 276T426 203T392 136T345 87Q331 77 318 61T289 33Q280 26 265 18T233 3T197 -9T163 -14Q143 -14 119 -7T72 15T34 50T19 95Q19 129 26 150T44 191T62 232T73 291Q118 333 150 363T213 414T276 443T356 453Q376 453 394 442T425 415T447 380T455 345ZM371 325Q370 331 367 336Q365 340 362 343T354 347Q342 347 333 344T313 335T288 321T254 304Q245 300 234 291T212 271T193 249T184 231Q182 225 180 219T177 210Q168 197 161 190T150 175T143 159T140 131Q140 123 142 117T148 105H178Q188 105 204 112T237 129T267 146T284 158Q294 165 308 186T337 232T361 283T371 325ZM455 711Q455 702 449 689T434 662T413 633T390 603Q381 591 364 573T326 536T283 506T241 493Q233 493 227 500T220 513Q220 519 221 522T226 528T234 537T245 550Q258 569 265 580T277 600T284 613T292 627Q302 643 308 653T317 674T321 696T322 731Q322 741 332 751T356 769T386 783T413 789Q428 789 436 779T449 755T454 729T455 711Z"  />
<glyph unicode="&#xF4;" horiz-adv-x="479" d="M455 345Q455 313 448 276T426 203T392 136T345 87Q331 77 318 61T289 33Q280 26 265 18T233 3T197 -9T163 -14Q143 -14 119 -7T72 15T34 50T19 95Q19 129 26 150T44 191T62 232T73 291Q118 333 150 363T213 414T276 443T356 453Q376 453 394 442T425 415T447 380T455 345ZM371 325Q370 331 367 336Q365 340 362 343T354 347Q342 347 333 344T313 335T288 321T254 304Q245 300 234 291T212 271T193 249T184 231Q182 225 180 219T177 210Q168 197 161 190T150 175T143 159T140 131Q140 123 142 117T148 105H178Q188 105 204 112T237 129T267 146T284 158Q294 165 308 186T337 232T361 283T371 325ZM494 550Q494 524 488 518T464 512H442Q419 512 399 521T362 543T330 564T303 574Q288 574 271 565T236 542T198 517T158 497Q149 494 139 494Q122 494 112 504T101 532Q101 539 107 552T124 574Q134 581 156 597T197 629Q212 641 222 654T242 679T261 698T284 705Q289 705 300 699T323 685T345 670T359 661Q369 655 388 643T422 619Q428 616 439 610T458 600Q473 592 483 578T494 550Z"  />
<glyph unicode="&#xF5;" horiz-adv-x="479" d="M455 345Q455 313 448 276T426 203T392 136T345 87Q331 77 318 61T289 33Q280 26 265 18T233 3T197 -9T163 -14Q143 -14 119 -7T72 15T34 50T19 95Q19 129 26 150T44 191T62 232T73 291Q118 333 150 363T213 414T276 443T356 453Q376 453 394 442T425 415T447 380T455 345ZM371 325Q370 331 367 336Q365 340 362 343T354 347Q342 347 333 344T313 335T288 321T254 304Q245 300 234 291T212 271T193 249T184 231Q182 225 180 219T177 210Q168 197 161 190T150 175T143 159T140 131Q140 123 142 117T148 105H178Q188 105 204 112T237 129T267 146T284 158Q294 165 308 186T337 232T361 283T371 325ZM436 602Q436 587 434 569T423 535T401 508T364 497Q344 497 330 506T304 530T285 562T270 594Q257 589 247 575T228 546T214 518T204 506H185Q176 506 169 511T157 523T148 538T145 551Q145 562 152 574T168 599T186 624T200 647Q220 656 228 661T240 668T248 671T265 672Q294 672 317 648T355 589H360Q363 594 365 600T367 610Q367 625 361 633T349 647T336 660T330 683Q330 688 335 694T348 707T362 717T375 721Q397 721 409 710T428 681T435 642T436 602Z"  />
<glyph unicode="&#xF6;" horiz-adv-x="479" d="M455 345Q455 313 448 276T426 203T392 136T345 87Q331 77 318 61T289 33Q280 26 265 18T233 3T197 -9T163 -14Q143 -14 119 -7T72 15T34 50T19 95Q19 129 26 150T44 191T62 232T73 291Q118 333 150 363T213 414T276 443T356 453Q376 453 394 442T425 415T447 380T455 345ZM371 325Q370 331 367 336Q365 340 362 343T354 347Q342 347 333 344T313 335T288 321T254 304Q245 300 234 291T212 271T193 249T184 231Q182 225 180 219T177 210Q168 197 161 190T150 175T143 159T140 131Q140 123 142 117T148 105H178Q188 105 204 112T237 129T267 146T284 158Q294 165 308 186T337 232T361 283T371 325ZM444 602Q444 593 443 580T435 554T416 533T383 524Q368 524 355 536T331 566T314 599T308 625Q308 635 315 644T333 660T353 671T368 676Q381 676 394 668T419 648T437 624T444 602ZM273 576Q273 568 267 557T252 535T233 517T212 509Q204 509 193 515T170 528T151 541T142 548Q141 557 140 568T138 585Q138 596 138 600T142 609T151 622T168 647Q170 647 174 646T183 644Q188 644 196 649T209 654Q224 654 236 645T256 624T268 599T273 576Z"  />
<glyph unicode="&#xF7;" horiz-adv-x="591" d="M377 514Q377 474 352 453T296 432Q279 432 264 438T237 456T218 481T211 513Q211 548 234 573T296 599Q334 599 355 575T377 514ZM71 238V368H519V238H71ZM377 89Q377 48 352 27T296 6Q261 6 236 30T211 88Q211 122 234 147T296 172Q334 172 355 148T377 89Z"  />
<glyph unicode="&#xF8;" horiz-adv-x="491" d="M465 558Q465 538 458 520T442 486T424 456T409 432Q430 415 442 390T455 345Q455 313 448 274T426 197T392 127T345 76Q331 66 318 50T289 21Q284 17 273 13T250 4T228 -4T212 -9Q208 -21 205 -32T198 -63Q192 -92 188 -115T179 -168Q170 -175 163 -178T150 -183T139 -185T126 -186Q111 -186 101 -180T85 -164T76 -143T73 -123Q73 -120 76 -112T84 -94T94 -73T104 -52Q109 -41 112 -32T121 -9Q104 -3 86 7T53 32T29 62T19 95Q19 129 22 154T31 200T49 242T76 288Q117 353 167 393T284 447Q288 447 292 448T301 450Q317 488 326 513T345 556T368 588T404 619Q405 620 409 620Q415 620 424 614T443 597T458 577T465 558ZM371 325Q368 331 365 336Q360 347 354 351Q341 331 331 311T310 265T285 202T250 112Q260 117 270 125T284 136Q294 143 308 165T337 216T361 274T371 325ZM256 344Q245 339 232 330T207 308T183 283T164 256Q147 227 142 211T137 180Q137 169 138 158T140 131Q140 123 145 115T157 105Q168 140 178 164T200 212Q220 254 232 287T256 344Z"  />
<glyph unicode="&#xF9;" horiz-adv-x="565" d="M536 -34Q536 -54 526 -66T503 -86T475 -96T452 -99Q433 -99 419 -84T396 -45T380 6T371 58T366 100T365 121Q365 129 361 142T354 171Q351 171 350 173T345 178Q336 167 319 150T281 112T237 72T190 35T146 8T110 -3Q71 -3 46 23T20 86Q20 109 25 140T39 206T58 274T77 335T92 380T100 400Q104 406 112 410T128 418T143 422T155 424Q165 424 175 420T194 407T207 389T213 366Q213 355 203 326T179 265T156 206T145 173V163L149 158Q221 205 274 250T357 341Q360 347 368 351T385 359T404 364T421 366Q443 366 455 357T474 334T481 301T482 265V251Q482 244 482 238T483 226Q485 201 485 171T485 110Q486 109 488 105T493 97Q493 87 491 78T489 59Q489 47 496 34Q502 23 509 16T522 2T532 -13T536 -34ZM374 521Q378 516 378 510Q378 494 353 494Q338 494 319 501T264 538Q264 548 255 552T240 563Q220 586 206 600T182 628T169 659T164 704V714Q184 720 199 729T231 738Q246 738 257 728T278 702T296 670T311 640Q334 599 347 571T374 521Z"  />
<glyph unicode="&#xFA;" horiz-adv-x="565" d="M536 -34Q536 -54 526 -66T503 -86T475 -96T452 -99Q433 -99 419 -84T396 -45T380 6T371 58T366 100T365 121Q365 129 361 142T354 171Q351 171 350 173T345 178Q336 167 319 150T281 112T237 72T190 35T146 8T110 -3Q71 -3 46 23T20 86Q20 109 25 140T39 206T58 274T77 335T92 380T100 400Q104 406 112 410T128 418T143 422T155 424Q165 424 175 420T194 407T207 389T213 366Q213 355 203 326T179 265T156 206T145 173V163L149 158Q221 205 274 250T357 341Q360 347 368 351T385 359T404 364T421 366Q443 366 455 357T474 334T481 301T482 265V251Q482 244 482 238T483 226Q485 201 485 171T485 110Q486 109 488 105T493 97Q493 87 491 78T489 59Q489 47 496 34Q502 23 509 16T522 2T532 -13T536 -34ZM470 711Q470 702 464 689T449 662T428 633T405 603Q396 591 379 573T341 536T298 506T256 493Q248 493 242 500T235 513Q235 519 236 522T241 528T249 537T260 550Q273 569 280 580T292 600T299 613T307 627Q317 643 323 653T332 674T336 696T337 731Q337 741 347 751T371 769T401 783T428 789Q443 789 451 779T464 755T469 729T470 711Z"  />
<glyph unicode="&#xFB;" horiz-adv-x="565" d="M536 -34Q536 -54 526 -66T503 -86T475 -96T452 -99Q433 -99 419 -84T396 -45T380 6T371 58T366 100T365 121Q365 129 361 142T354 171Q351 171 350 173T345 178Q336 167 319 150T281 112T237 72T190 35T146 8T110 -3Q71 -3 46 23T20 86Q20 109 25 140T39 206T58 274T77 335T92 380T100 400Q104 406 112 410T128 418T143 422T155 424Q165 424 175 420T194 407T207 389T213 366Q213 355 203 326T179 265T156 206T145 173V163L149 158Q221 205 274 250T357 341Q360 347 368 351T385 359T404 364T421 366Q443 366 455 357T474 334T481 301T482 265V251Q482 244 482 238T483 226Q485 201 485 171T485 110Q486 109 488 105T493 97Q493 87 491 78T489 59Q489 47 496 34Q502 23 509 16T522 2T532 -13T536 -34ZM509 550Q509 524 503 518T479 512H457Q434 512 414 521T377 543T345 564T318 574Q303 574 286 565T251 542T213 517T173 497Q164 494 154 494Q137 494 127 504T116 532Q116 539 122 552T139 574Q149 581 171 597T212 629Q227 641 237 654T257 679T276 698T299 705Q304 705 315 699T338 685T360 670T374 661Q384 655 403 643T437 619Q443 616 454 610T473 600Q488 592 498 578T509 550Z"  />
<glyph unicode="&#xFC;" horiz-adv-x="565" d="M536 -34Q536 -54 526 -66T503 -86T475 -96T452 -99Q433 -99 419 -84T396 -45T380 6T371 58T366 100T365 121Q365 129 361 142T354 171Q351 171 350 173T345 178Q336 167 319 150T281 112T237 72T190 35T146 8T110 -3Q71 -3 46 23T20 86Q20 109 25 140T39 206T58 274T77 335T92 380T100 400Q104 406 112 410T128 418T143 422T155 424Q165 424 175 420T194 407T207 389T213 366Q213 355 203 326T179 265T156 206T145 173V163L149 158Q221 205 274 250T357 341Q360 347 368 351T385 359T404 364T421 366Q443 366 455 357T474 334T481 301T482 265V251Q482 244 482 238T483 226Q485 201 485 171T485 110Q486 109 488 105T493 97Q493 87 491 78T489 59Q489 47 496 34Q502 23 509 16T522 2T532 -13T536 -34ZM459 602Q459 593 458 580T450 554T431 533T398 524Q383 524 370 536T346 566T329 599T323 625Q323 635 330 644T348 660T368 671T383 676Q396 676 409 668T434 648T452 624T459 602ZM288 576Q288 568 282 557T267 535T248 517T227 509Q219 509 208 515T185 528T166 541T157 548Q156 557 155 568T153 585Q153 596 153 600T157 609T166 622T183 647Q185 647 189 646T198 644Q203 644 211 649T224 654Q239 654 251 645T271 624T283 599T288 576Z"  />
<glyph unicode="&#xFD;" horiz-adv-x="556" d="M536 379Q536 376 532 350T521 289T507 216T494 150Q488 118 482 82T470 8T454 -65T433 -135Q409 -200 371 -262T280 -373T158 -453T3 -483Q-8 -483 -32 -480T-81 -467T-124 -440T-143 -393Q-143 -352 -123 -328T-82 -294L-69 -301Q-60 -313 -48 -327T-21 -354T8 -375T38 -383Q76 -383 107 -374T166 -345T221 -294T279 -219Q289 -204 300 -184T322 -141T338 -92T344 -41Q344 -36 344 -30T342 -19Q350 -5 356 19T366 73T373 134T376 192Q376 196 376 200T377 209Q377 216 375 220Q353 198 324 175T262 132T194 99T123 86Q106 86 87 93T53 112T27 142T16 178Q16 191 21 212T35 259T54 310T74 357T92 394T106 412Q115 417 133 420T159 424Q174 424 185 417T205 400T217 377T221 355Q221 344 215 330T200 301T181 269T164 239V231Q166 228 169 225T179 222Q189 222 206 233T245 261T289 299T331 341T365 380T384 409Q389 423 406 434T437 455Q440 457 447 459T462 461Q479 461 492 454T516 434T531 408T536 379ZM469 711Q469 702 463 689T448 662T427 633T404 603Q395 591 378 573T340 536T297 506T255 493Q247 493 241 500T234 513Q234 519 235 522T240 528T248 537T259 550Q272 569 279 580T291 600T298 613T306 627Q316 643 322 653T331 674T335 696T336 731Q336 741 346 751T370 769T400 783T427 789Q442 789 450 779T463 755T468 729T469 711Z"  />
<glyph unicode="&#xFE;" horiz-adv-x="477" d="M450 352Q450 341 448 325T442 293T436 267T431 253Q429 230 415 198T376 132T322 63T261 3T199 -40T143 -57Q137 -57 123 -51T101 -44Q96 -44 92 -53T82 -78T72 -113T63 -153Q52 -201 42 -261Q42 -269 51 -279T71 -302T92 -328T101 -356Q101 -364 94 -386T75 -432T45 -474T8 -493Q-3 -493 -13 -484T-32 -465T-44 -445T-49 -435Q-49 -364 -46 -314T-35 -221T-19 -140T3 -54T30 55T61 205Q66 214 71 235T83 284T98 346T117 414Q123 448 132 489T151 567T171 633T187 671Q190 676 195 683T207 697T219 709T232 714Q245 714 259 712T284 704T303 688T311 661Q311 655 306 643T293 616T277 586T265 560Q260 549 253 528T237 483T221 432T207 383Q215 393 222 403Q228 411 234 419T243 432Q257 451 277 469T332 488Q362 488 384 475T421 442T443 397T450 352ZM349 326Q348 338 344 348Q341 356 337 363T325 370Q308 370 287 351T244 302T201 237T164 169T138 112T128 80Q128 74 130 71T135 64Q143 64 153 63T169 61Q187 61 214 83T268 136T312 199T331 249Q331 251 331 251T330 254Q330 255 333 264T339 285T346 308T349 326Z"  />
<glyph unicode="&#xFF;" horiz-adv-x="556" d="M536 379Q536 376 532 350T521 289T507 216T494 150Q488 118 482 82T470 8T454 -65T433 -135Q409 -200 371 -262T280 -373T158 -453T3 -483Q-8 -483 -32 -480T-81 -467T-124 -440T-143 -393Q-143 -352 -123 -328T-82 -294L-69 -301Q-60 -313 -48 -327T-21 -354T8 -375T38 -383Q76 -383 107 -374T166 -345T221 -294T279 -219Q289 -204 300 -184T322 -141T338 -92T344 -41Q344 -36 344 -30T342 -19Q350 -5 356 19T366 73T373 134T376 192Q376 196 376 200T377 209Q377 216 375 220Q353 198 324 175T262 132T194 99T123 86Q106 86 87 93T53 112T27 142T16 178Q16 191 21 212T35 259T54 310T74 357T92 394T106 412Q115 417 133 420T159 424Q174 424 185 417T205 400T217 377T221 355Q221 344 215 330T200 301T181 269T164 239V231Q166 228 169 225T179 222Q189 222 206 233T245 261T289 299T331 341T365 380T384 409Q389 423 406 434T437 455Q440 457 447 459T462 461Q479 461 492 454T516 434T531 408T536 379ZM458 602Q458 593 457 580T449 554T430 533T397 524Q382 524 369 536T345 566T328 599T322 625Q322 635 329 644T347 660T367 671T382 676Q395 676 408 668T433 648T451 624T458 602ZM287 576Q287 568 281 557T266 535T247 517T226 509Q218 509 207 515T184 528T165 541T156 548Q155 557 154 568T152 585Q152 596 152 600T156 609T165 622T182 647Q184 647 188 646T197 644Q202 644 210 649T223 654Q238 654 250 645T270 624T282 599T287 576Z"  />
<glyph unicode="&#x131;" horiz-adv-x="374" d="M440 178Q440 160 420 135T375 84T325 40T294 14Q292 12 279 4T250 -13T217 -29T193 -37Q190 -37 183 -37T166 -36T150 -35T139 -34Q135 -34 125 -24T105 0T86 25T78 38Q67 64 65 92T61 143V150Q61 169 63 198T71 261T86 328T109 389T139 433T178 450Q186 450 195 441T212 421T225 398T231 383Q231 380 224 355T207 295T190 224T182 165Q182 158 184 147T188 123T192 102T197 91H204Q223 91 244 98T286 116T324 140T355 165Q359 169 368 175T387 188T405 198T416 203Q424 203 432 195T440 178Z"  />
<glyph unicode="&#x152;" horiz-adv-x="850" d="M837 701Q836 695 834 686T828 669T820 653T811 644Q767 624 741 611T695 590T661 579T625 576Q619 576 606 576T581 575Q578 561 578 547T573 515Q570 506 566 499T559 481T552 458T546 424V421Q546 410 554 407T565 404Q572 404 578 402T592 400Q638 400 663 412T705 438T735 464T773 476Q786 476 797 466T815 443T827 418T831 400Q829 387 822 375T806 352T788 334T773 325Q759 320 737 318T697 309Q692 307 680 301T654 287T625 275T599 269Q591 269 592 270T587 272Q581 272 576 268T565 261H547Q539 261 531 260T513 254Q508 251 505 241T501 220T499 198T498 181Q498 177 498 171T497 156Q497 146 498 135T504 115T517 101T539 95Q565 95 587 105T629 130T664 163T693 196T719 221T744 231Q773 231 786 214T800 173V171Q800 168 801 165T802 156Q802 148 796 138T767 114Q715 82 665 45T568 -21Q559 -23 548 -24T526 -27T507 -29T496 -30Q453 -30 428 -10T388 47Q378 39 367 30T340 10Q328 2 313 -4T281 -14T248 -21T219 -23Q188 -23 166 -10T128 23T103 68T87 115T77 156T69 181Q72 187 74 190T77 200V202Q77 207 74 214T71 227Q74 234 74 242Q74 244 74 245T73 249Q72 250 72 262Q72 275 73 295T75 334T77 369T78 387Q79 394 83 405T92 428T103 448T111 461Q116 466 123 475T139 496T154 519T165 543Q177 590 203 619T263 664T337 685T419 691Q423 691 430 678T446 649T461 619T472 604Q480 610 482 614T484 622V624Q484 631 477 635T470 651V654Q472 674 482 687T506 708T536 719T568 723Q571 723 585 721T615 716T646 711T663 709Q689 709 701 715T722 728T743 741T781 747Q804 747 820 740T837 703V701ZM427 481Q427 490 422 498T409 513T395 524T384 529Q346 529 313 496T254 414T214 314T196 224V220Q196 211 197 193T204 156T219 123T244 109Q267 109 289 132T332 190T369 269T400 353T420 428T427 478V481Z"  />
<glyph unicode="&#x153;" horiz-adv-x="702" d="M686 398Q686 378 673 354T640 305T594 257T543 214T494 183T455 167Q452 167 447 160T437 143T428 123T424 105Q424 91 431 81T448 71Q466 71 485 82T523 107T559 132T589 144Q595 144 601 139T612 126T621 111T625 99Q625 85 612 69T579 35T534 1T487 -28T447 -49T424 -57Q401 -57 383 -46T352 -17T330 20T317 59Q310 52 304 46T289 33Q280 26 265 18T233 2T197 -9T163 -14Q143 -14 119 -7T72 15T34 50T19 95Q19 129 26 150T44 191T62 232T73 291Q118 333 150 363T213 414T276 443T356 453Q388 453 412 430T447 378Q448 378 467 394T510 429T557 464T589 480Q628 480 657 459T686 398ZM371 325Q370 331 367 336Q365 340 362 343T354 347Q342 347 333 342T314 330T291 313T258 294Q249 290 240 281T223 262T208 240T201 222Q199 216 197 210T193 201Q184 188 175 182T158 171T145 157T140 131Q140 123 142 117T148 105H178Q188 105 204 112T237 129T267 146T284 158Q294 165 308 186T337 232T361 283T371 325Z"  />
<glyph unicode="&#x160;" horiz-adv-x="440" d="M423 639Q423 629 417 618T399 605Q381 602 360 598T313 577Q296 566 279 552T248 522T225 487T216 448Q216 425 228 403T260 359T300 314T341 266T372 215T385 159Q385 112 363 79T305 23T223 -12T128 -29Q123 -29 116 -35T102 -42Q96 -42 91 -37T82 -29Q64 -23 53 -14T36 6T29 29T27 52Q27 61 32 71T46 89T64 103T82 109Q104 109 111 106T121 98T130 91T152 87Q170 87 189 92T224 106T250 128T261 159Q261 179 244 203T204 250T160 293T129 322Q124 328 120 332T111 343T103 360T92 385Q90 391 89 400T88 418T87 434T87 443Q87 477 111 523T172 610T257 681T350 710Q382 710 402 690T423 639ZM507 908Q507 901 501 888T484 866Q474 859 452 843T411 811Q396 799 386 786T366 761T347 742T324 735Q319 735 308 741T285 755T263 770T249 779Q239 785 219 797T185 821Q179 824 168 830T150 840Q135 848 125 862T114 890Q114 913 125 920T166 928Q189 928 210 917T249 891T284 866T312 854Q324 860 339 872T373 897T410 923T450 943Q459 946 469 946Q486 946 496 936T507 908Z"  />
<glyph unicode="&#x161;" horiz-adv-x="350" d="M385 537Q385 521 382 503T371 472Q352 469 331 465T290 452T255 427T234 381Q228 351 224 317T220 247Q220 235 220 224T222 201Q219 187 216 166T212 128Q212 97 208 64T193 -4T163 -71T114 -136Q101 -143 85 -155T52 -180T20 -202T-4 -211Q-40 -211 -63 -193T-87 -143Q-87 -125 -79 -109T-63 -86Q-55 -87 -47 -88T-28 -89Q-6 -89 17 -80T61 -38Q89 5 98 53T112 148Q113 153 113 158T113 170Q113 193 111 224T109 291Q109 323 112 356T126 423T155 486T205 543Q209 548 213 555T225 568Q229 571 241 575T266 582T292 588T309 590Q321 590 334 587T359 578T378 562T385 537ZM488 817Q488 810 482 797T465 775Q455 768 433 752T392 720Q377 708 367 695T347 670T328 651T305 644Q300 644 289 650T266 664T244 679T230 688Q220 694 200 706T166 730Q160 733 149 739T131 749Q116 757 106 771T95 799Q95 822 106 829T147 837Q170 837 191 826T230 800T265 775T293 763Q305 769 320 781T354 806T391 832T431 852Q440 855 450 855Q467 855 477 845T488 817Z"  />
<glyph unicode="&#x178;" horiz-adv-x="529" d="M548 613Q545 589 538 576T520 553T496 529T466 491Q464 488 459 483T446 470T432 455T419 440Q398 414 390 396T379 363T377 335T374 307Q369 297 363 287T345 268Q313 235 298 206T274 146T262 84T249 14Q244 6 232 -2T215 -14Q195 -27 188 -30T173 -33H158Q132 -33 113 -19T94 19Q94 21 94 23T95 27Q99 58 117 93T157 167T196 243T216 318Q202 330 186 349T152 388T115 425T76 450Q70 452 63 459T47 475T31 495T15 515Q15 529 12 545T8 568Q9 575 14 585T26 605T44 622T68 629Q71 629 78 629T94 626T110 621T121 613Q134 593 152 575T193 537T239 496T288 451Q289 452 301 470T331 513T371 568T415 623T457 664T491 681Q521 681 535 670T550 632Q550 627 550 623T548 613ZM418 843Q418 834 417 821T409 795T390 774T357 765Q342 765 329 777T305 807T288 840T282 866Q282 876 289 885T307 901T327 912T342 917Q355 917 368 909T393 889T411 865T418 843ZM247 817Q247 809 241 798T226 776T207 758T186 750Q178 750 167 756T144 769T125 782T116 789Q115 798 114 809T112 826Q112 837 112 841T116 850T125 863T142 888Q144 888 148 887T157 885Q162 885 170 890T183 895Q198 895 210 886T230 865T242 840T247 817Z"  />
<glyph unicode="&#x17D;" horiz-adv-x="754" d="M739 117Q739 69 708 44T633 19Q618 19 598 26T554 41T502 57T442 64Q374 64 318 47T217 10T142 -27T95 -44Q78 -44 66 -34T46 -9T34 21T30 48Q30 63 37 73T55 91T75 108T90 125Q95 135 111 164T147 234T190 318T232 403T263 475T275 518Q275 529 269 538T245 548Q236 548 212 538T160 517T111 495T86 485Q69 485 59 495T44 520T37 549T35 570Q35 587 55 602T105 631T173 656T244 674T306 686T344 690Q382 690 408 666T435 599Q435 574 423 539T390 462T346 377T297 293T253 217T220 158Q223 155 225 152T235 148Q241 148 261 154T298 163Q336 171 375 174T450 178Q472 178 493 176T537 174Q555 174 575 177Q582 177 593 179T614 183T634 187T647 189Q664 189 680 182T710 165T731 141T739 117ZM456 908Q456 901 450 888T433 866Q423 859 401 843T360 811Q345 799 335 786T315 761T296 742T273 735Q268 735 257 741T234 755T212 770T198 779Q188 785 168 797T134 821Q128 824 117 830T99 840Q84 848 74 862T63 890Q63 913 74 920T115 928Q138 928 159 917T198 891T233 866T261 854Q273 860 288 872T322 897T359 923T399 943Q408 946 418 946Q435 946 445 936T456 908Z"  />
<glyph unicode="&#x17E;" horiz-adv-x="561" d="M662 75Q662 56 646 40T600 10Q583 2 562 -2T521 -9T486 -13T464 -14Q458 -14 447 -13T427 -11Q391 -11 348 -23T261 -56T179 -108T115 -174Q113 -176 106 -178T91 -183T74 -186T62 -188Q49 -188 38 -177T20 -152T8 -125T3 -105Q3 -83 12 -70T37 -43T71 -11T109 38Q114 47 132 77T171 149T208 235T224 318Q224 332 216 343T192 360Q176 360 156 355T117 343T79 328T49 315Q20 331 14 346T8 379V388Q8 399 25 411T70 436T129 458T191 477T242 490T270 495Q291 495 305 480T328 446T340 407T344 379Q344 331 330 287T296 200T256 119T222 42Q254 53 276 59T317 71T358 81T409 93Q430 97 464 103T527 117Q553 125 577 138T619 165Q627 159 634 149T648 127T658 102T662 75ZM411 667Q411 660 405 647T388 625Q378 618 356 602T315 570Q300 558 290 545T270 520T251 501T228 494Q223 494 212 500T189 514T167 529T153 538Q143 544 123 556T89 580Q83 583 72 589T54 599Q39 607 29 621T18 649Q18 672 29 679T70 687Q93 687 114 676T153 650T188 625T216 613Q228 619 243 631T277 656T314 682T354 702Q363 705 373 705Q390 705 400 695T411 667Z"  />
<glyph unicode="&#x192;" horiz-adv-x="453" d="M615 865Q614 854 609 841T594 815T572 794T543 783Q539 788 536 795T525 810Q480 793 446 765T387 692Q372 665 355 629T322 556T295 489T283 442V441Q283 431 292 429T302 427Q306 427 317 429T341 433T365 438T380 440Q385 440 387 439T398 438Q401 438 411 440T433 446T455 452T469 455Q486 455 497 447T515 427T524 402T527 379V374Q526 365 520 355T505 336T486 321T469 315H446Q442 315 436 318T421 326T397 335T361 339Q323 339 290 336T241 309Q228 291 213 242T178 124T136 -24T86 -183Q70 -230 45 -274T-9 -355T-65 -420T-116 -464Q-146 -485 -177 -485Q-202 -485 -225 -472Q-242 -463 -250 -446T-258 -409Q-258 -389 -250 -369T-226 -336Q-215 -333 -208 -332T-192 -331Q-181 -331 -170 -332T-139 -333Q-123 -333 -105 -321T-70 -290T-39 -245T-14 -195Q2 -154 19 -106T54 -9T87 87T115 175T135 245T144 289L145 304Q126 311 116 311Q113 311 104 310T85 308T66 305T53 304Q29 304 7 314T-15 354V360Q-14 378 -4 389T20 405T47 411T67 413Q73 413 87 411T109 409Q114 409 127 411T154 416T179 422T191 428Q204 463 213 496T232 563T254 634T287 715Q309 763 336 805T396 878T467 927T549 945Q565 945 577 938T597 920T610 896T615 871V865Z"  />
<glyph unicode="&#x2C6;" horiz-adv-x="500" d="M454 550Q454 524 448 518T424 512H402Q379 512 359 521T322 543T290 564T263 574Q248 574 231 565T196 542T158 517T118 497Q109 494 99 494Q82 494 72 504T61 532Q61 539 67 552T84 574Q94 581 116 597T157 629Q172 641 182 654T202 679T221 698T244 705Q249 705 260 699T283 685T305 670T319 661Q329 655 348 643T382 619Q388 616 399 610T418 600Q433 592 443 578T454 550Z"  />
<glyph unicode="&#x2C7;" horiz-adv-x="500" d="M459 667Q459 660 453 647T436 625Q426 618 404 602T363 570Q348 558 338 545T318 520T299 501T276 494Q271 494 260 500T237 514T215 529T201 538Q191 544 171 556T137 580Q131 583 120 589T102 599Q87 607 77 621T66 649Q66 672 77 679T118 687Q141 687 162 676T201 650T236 625T264 613Q276 619 291 631T325 656T362 682T402 702Q411 705 421 705Q438 705 448 695T459 667Z"  />
<glyph unicode="&#x2DA;" horiz-adv-x="500" d="M360 617Q360 595 357 582T348 560Q347 558 340 548T321 526T299 505T278 496Q275 496 269 495T260 494Q249 494 234 502T205 521T181 546T171 572Q171 585 173 613T185 671T213 722T265 745Q285 745 302 729T332 692T352 649T360 617ZM297 597Q297 604 295 615T288 636T279 655T266 667Q261 659 254 650T239 630T227 612T222 599Q222 596 223 590T229 577T238 565T253 560Q257 560 264 563T278 572T291 584T297 597Z"  />
<glyph unicode="&#x2DC;" horiz-adv-x="500" d="M396 602Q396 587 394 569T383 535T361 508T324 497Q304 497 290 506T264 530T245 562T230 594Q217 589 207 575T188 546T174 518T164 506H145Q136 506 129 511T117 523T108 538T105 551Q105 562 112 574T128 599T146 624T160 647Q180 656 188 661T200 668T208 671T225 672Q254 672 277 648T315 589H320Q323 594 325 600T327 610Q327 625 321 633T309 647T296 660T290 683Q290 688 295 694T308 707T322 717T335 721Q357 721 369 710T388 681T395 642T396 602Z"  />
<glyph unicode="&#x2013;" horiz-adv-x="736" d="M671 283Q671 281 669 271T662 248T654 225T645 215Q641 215 641 217Q641 219 636 219Q630 219 625 210T613 201Q607 201 604 203T594 205Q592 205 575 203T533 197T479 189T422 182T373 176T343 173Q327 173 301 172T247 171T196 169T164 168Q156 168 140 170T107 178T78 197T65 229Q65 278 94 295T164 312Q167 312 192 311T248 307T304 304T333 302Q339 302 346 303T362 305T377 307T388 308Q394 308 398 310T411 312Q417 312 423 310T438 308Q466 308 490 311T537 319T582 328T628 332Q632 332 639 326T654 312T666 296T671 283Z"  />
<glyph unicode="&#x2014;" horiz-adv-x="927" d="M862 283Q862 281 860 271T853 248T845 225T836 215Q832 215 832 217Q832 219 827 219Q821 219 816 210T804 201Q798 201 795 203T785 205Q783 205 752 204T675 200T574 195T471 190T387 186T343 184Q327 184 301 183T247 182T196 180T164 179Q156 179 140 181T107 189T78 208T65 240Q65 289 94 306T164 323Q167 323 192 322T248 318T304 315T333 313Q339 313 349 313T370 313T390 312T404 312H577Q583 312 589 310T603 308Q631 308 659 311T715 319T769 328T819 332Q823 332 830 326T845 312T857 296T862 283Z"  />
<glyph unicode="&#x2018;" horiz-adv-x="309" d="M246 487Q246 478 240 459T225 428Q214 428 199 443T168 479T139 520T120 552Q107 576 94 599T69 645T51 690T44 735Q44 744 46 755T53 777T67 795T91 803Q112 803 132 799T168 783T193 748T203 688Q203 679 202 669T201 645Q201 628 205 608T221 562Q232 538 237 520T246 489V487Z"  />
<glyph unicode="&#x2019;" horiz-adv-x="374" d="M330 724Q330 702 323 680T305 634T281 588T254 541Q248 531 235 511T207 469T177 433T151 417H149Q145 418 140 425T131 441T123 459T120 473V474Q123 486 132 506T153 551Q167 580 172 600T177 638Q177 653 175 664T173 686Q173 717 180 738T201 771T230 789T264 795Q277 795 291 792Q305 789 313 782T324 765T329 744T330 724Z"  />
<glyph unicode="&#x201A;" horiz-adv-x="318" d="M264 116Q264 94 257 72T239 26T215 -20T188 -67Q182 -77 169 -97T141 -139T111 -175T85 -191H83Q79 -190 74 -183T65 -167T57 -149T54 -135V-134Q57 -122 66 -102T87 -57Q101 -28 106 -8T111 30Q111 45 109 56T107 78Q107 109 114 130T135 163T164 181T198 187Q211 187 225 184Q239 181 247 174T258 157T263 136T264 116Z"  />
<glyph unicode="&#x201C;" horiz-adv-x="600" d="M538 484Q538 479 535 470T528 452T518 435T509 428Q498 428 483 443T452 479T423 520T404 552Q391 576 378 599T353 645T335 690T328 735Q328 744 330 755T337 777T351 795T375 803Q396 803 416 798T453 779T479 741T489 680Q489 670 488 660T486 636Q486 622 490 604T505 562Q516 538 525 518T538 485V484ZM273 488Q273 478 266 459T251 428Q240 428 225 443T195 479T166 520T147 552Q134 576 121 599T96 645T78 690T71 735Q71 744 73 755T80 777T94 795T117 803Q138 803 158 799T194 783T220 748T230 688Q230 679 229 669T228 645Q228 628 232 608T248 562Q259 538 264 520T273 489V488Z"  />
<glyph unicode="&#x201D;" horiz-adv-x="620" d="M574 733Q574 711 567 689T549 643T525 597T498 549Q492 538 479 518T450 477T419 442T393 426Q385 437 378 456T371 485V486Q374 498 380 517T397 560Q409 585 412 604T416 641Q416 655 415 665T414 686Q414 723 424 745T449 780T485 797T527 801Q541 801 550 794T564 776T572 754T574 733ZM316 733Q316 711 309 689T291 643T267 597T240 549Q234 538 221 518T192 477T161 442T135 426Q131 426 126 433T117 449T109 468T106 482V483Q109 495 118 515T139 560Q150 584 154 601T158 633Q158 646 157 656T155 677Q155 714 165 738T191 776T227 795T269 801Q283 801 292 794T306 776T314 754T316 733Z"  />
<glyph unicode="&#x201E;" horiz-adv-x="584" d="M517 116Q517 94 510 72T492 26T468 -20T441 -67Q435 -77 422 -97T394 -139T364 -175T338 -191H336Q332 -190 327 -183T318 -167T310 -149T307 -135V-134Q310 -122 319 -102T340 -57Q354 -28 359 -8T364 30Q364 45 362 56T360 78Q360 115 369 137T392 170T426 184T467 188Q481 188 490 180T506 161T514 138T517 116ZM264 116Q264 94 257 72T239 26T215 -20T188 -67Q182 -77 169 -97T141 -139T111 -175T85 -191H83Q79 -190 74 -183T65 -167T57 -149T54 -135V-134Q57 -122 66 -102T87 -57Q101 -28 106 -8T111 30Q111 45 109 56T107 78Q107 115 116 137T140 170T174 184T215 188Q229 188 238 180T253 161T261 138T264 116Z"  />
<glyph unicode="&#x2020;" horiz-adv-x="517" d="M498 514Q498 512 495 502T488 479T480 456T471 446Q467 446 467 448Q467 450 462 450Q456 450 452 441T440 432Q434 432 431 434T421 436H417Q411 436 397 436T365 434T328 430T291 422Q288 402 287 381T285 339T284 303T282 277Q274 228 272 203T270 171V165Q270 154 271 135T272 94T274 49T275 7Q275 -3 275 -10T274 -24Q273 -36 265 -51T245 -79T220 -100T197 -109Q194 -109 187 -106T170 -97T152 -84T138 -69Q135 -65 134 -53T131 -26T130 3T130 27Q131 30 135 47T143 84T152 121T157 143Q162 179 167 218T178 293T186 362T192 416Q181 414 166 411T137 404T110 398T93 395Q85 395 72 397T46 404T23 417T13 438Q13 463 20 477T41 500T71 510T109 513Q114 513 124 512T148 509T174 506T198 505L188 618V621Q188 633 196 645T217 668T245 686T272 693Q291 693 303 683T322 660T332 631T335 607V604Q335 603 332 594T325 571T315 541T303 508Q324 513 341 520T376 534T412 546T455 551Q459 551 466 547T481 538T493 526T498 514Z"  />
<glyph unicode="&#x2021;" horiz-adv-x="558" d="M523 514Q523 512 520 502T513 479T505 456T496 446H493Q492 446 492 447V449H491Q490 449 490 449T488 450Q482 450 477 441T465 432Q459 432 456 434T446 436H442Q436 436 422 436T390 434T353 430T316 422Q313 402 312 381T310 339T309 303T307 277Q306 268 305 264T304 257T303 252T302 243Q323 248 342 254T379 266T417 276T461 280Q481 280 492 268T504 244Q504 218 497 201T477 176Q463 168 448 167T403 165Q401 165 390 166T362 168Q348 168 332 166T298 159Q299 134 299 96T300 24Q300 9 300 -3T299 -24Q298 -36 290 -51T270 -79T245 -100T222 -109Q219 -109 212 -106T195 -97T177 -84T163 -69Q160 -65 159 -53T156 -26T155 3T155 27Q156 29 161 45T173 82T186 123T196 155Q185 153 170 150T141 143T114 136T97 133H88Q83 133 79 133T73 135Q72 136 70 137T62 140Q59 141 51 143Q40 147 28 154T16 173Q16 214 36 228T86 246H89Q95 246 101 245T114 243Q118 243 123 244T136 246Q152 244 172 243T208 240Q215 298 218 340T224 416Q213 414 197 411T166 404T137 398T119 395Q111 395 98 397T71 404T48 417T38 438Q38 463 45 477T66 500T96 510T134 513Q139 513 150 512T173 509T199 506T224 505L213 618V621Q213 633 221 645T242 668T270 686T297 693Q316 693 328 683T347 660T357 631T360 607V604Q360 603 357 594T350 571T340 541T328 508Q349 513 366 520T401 534T437 546T480 551Q484 551 491 547T506 538T518 526T523 514Z"  />
<glyph unicode="&#x2022;" horiz-adv-x="448" d="M363 317Q377 297 377 277Q377 254 364 232T335 181Q328 167 317 159T293 145T266 138T239 136Q228 136 218 137T202 140Q193 142 181 148T155 164T131 185T110 210Q98 229 98 255Q98 275 105 294T123 330Q136 356 161 366T215 376Q237 376 260 371T304 358T340 339T363 317Z"  />
<glyph unicode="&#x2026;" horiz-adv-x="791" d="M736 37Q736 32 733 24T726 7T719 -11T715 -26V-27Q700 -33 692 -36T679 -42T672 -44T667 -45H647Q631 -45 617 -40T591 -26T574 -6T567 18Q567 69 595 99T669 129Q686 129 698 119T719 94T732 63T736 37ZM469 34Q469 26 468 20T464 5T454 -16T435 -48Q427 -49 415 -51T394 -53Q372 -53 356 -45T329 -24T313 5T307 38Q307 47 312 60T327 86T348 108T375 117Q392 117 408 113T438 99T460 74T469 34ZM230 72Q230 52 222 33T201 0T171 -24T136 -33Q119 -33 105 -25T82 -3T67 27T61 57Q61 70 68 85T88 113T114 134T143 143Q149 143 150 141T159 139Q165 139 170 143T181 150Q183 147 191 136T207 112T223 88T230 72Z"  />
<glyph unicode="&#x2030;" horiz-adv-x="965" d="M937 210Q937 187 929 157T901 99T853 47T783 13Q773 11 762 11Q749 11 736 14T720 27Q716 29 713 32Q707 36 704 44Q702 49 694 65T686 107Q686 113 688 124T693 149T699 177T706 205Q709 216 715 235T731 269Q743 285 755 301T782 332T814 355T854 364Q879 364 895 346T920 303T933 252T937 210ZM672 227Q672 204 662 166T629 92T575 30T499 3Q493 3 483 6T462 14T442 25T431 39Q431 38 432 38V39Q432 40 432 41T433 44Q433 49 425 65T416 107Q416 113 418 123T424 147T432 174T442 201Q447 211 449 232T461 269Q473 285 485 301T512 332T544 355T584 364Q609 364 625 349T652 312T667 267T672 227ZM272 605Q272 580 264 551T243 494T210 440T169 397Q164 393 154 388T134 378T114 370T99 366H72Q61 366 52 378T35 404T24 432T20 447Q20 469 27 497T46 554T75 612T113 662T157 698T206 712Q226 712 239 701T259 674T269 640T272 605ZM498 648Q498 637 487 608T460 546T429 479T407 427Q400 393 386 350T353 260T317 168T283 83Q290 65 290 47Q290 28 283 12T266 -15T242 -33T217 -40Q204 -40 193 -33T173 -16T159 8T154 33Q154 53 165 73T190 115T217 158T237 201Q243 224 258 256T285 326Q299 362 308 389T325 438T337 480T346 522T356 570T369 633Q371 635 376 647T391 674T411 700T435 712Q468 712 483 692T498 648ZM855 254Q855 258 853 259T848 265Q846 262 839 253T822 232T805 208T792 187Q787 177 785 164T781 137T779 114T779 101Q786 98 792 98Q809 98 821 116T840 159T851 210T855 254ZM597 231Q597 235 595 237T590 243Q588 240 574 225T543 192T514 156T501 129Q501 123 502 116T504 102Q520 105 536 118T566 151T588 191T597 231ZM188 601Q158 579 147 554T136 502Q136 496 137 487T139 472Q144 477 151 490T167 519T182 549T192 571L188 601Z"  />
<glyph unicode="&#x2039;" horiz-adv-x="375" d="M321 157Q321 148 315 137T300 117T278 101T253 95Q228 95 202 112T136 148Q96 166 70 189T43 236Q43 248 49 259T64 281T85 303T107 326Q117 338 125 350T142 374T159 395T181 411Q191 418 208 418Q220 418 233 415T257 407T276 397T283 387Q283 381 277 370T260 346T240 322T222 306Q201 292 185 277T169 249Q169 238 183 232T219 225Q222 225 238 220T273 206T306 185T321 157Z"  />
<glyph unicode="&#x203A;" horiz-adv-x="387" d="M321 250Q321 243 319 232T311 209T292 184T260 162Q240 153 214 139T161 111T111 87T76 77Q65 77 61 83T56 100Q56 114 61 129T72 154Q78 164 91 172T119 187T150 197T176 206Q184 209 195 215T218 228Q231 235 245 244Q238 250 229 259T209 279T189 296T174 306Q165 309 151 323T124 354T101 388T91 411V413Q94 423 106 426T132 429Q142 429 151 429T168 428Q181 428 197 417T230 389T262 356T288 326Q310 301 315 284T321 250Z"  />
<glyph unicode="&#x20AC;" horiz-adv-x="776" d="M745 651Q745 615 724 596T669 576Q663 576 656 581T643 587Q641 587 641 587T639 586H638Q638 584 633 584Q626 584 619 594T605 605Q585 605 553 593T488 565T430 532T400 507Q401 504 402 502T409 500Q412 500 421 501T442 505T464 508T481 510Q484 510 491 510T508 509T525 508T537 507Q543 507 551 510T565 514Q580 514 591 507T609 489T620 466T624 443Q624 417 610 409T580 400Q576 400 569 401T554 404T539 407T529 409Q495 409 462 403T396 389T330 370T260 351Q252 348 249 340T237 318H246Q264 318 286 319T328 321T363 324T381 325L451 322L415 324H416Q422 324 444 323T491 319T539 314T568 307Q568 299 566 284T558 263Q544 253 522 244T482 231Q453 225 438 221T416 217Q413 217 408 217T395 218Q381 218 360 215Q348 213 329 207T302 200Q296 200 296 201T288 203Q285 203 277 202T256 198T231 192T205 186Q205 183 203 183T201 177Q201 157 211 138T238 102T277 77T322 67Q328 67 333 71T344 75Q373 75 407 85T478 110T549 145T616 184T673 220T716 249Q722 243 726 238T731 227Q731 225 725 214T709 188T688 158T667 133Q653 119 624 100T562 62T496 26T440 0Q407 -14 386 -21T350 -33T326 -39T305 -40H280Q241 -40 213 -25T162 17T123 81T90 162Q88 168 76 168T56 169Q47 171 38 179T22 198T9 220T4 239Q4 257 23 266T66 282T109 298T129 325Q129 335 124 338T111 342Q102 342 91 339T72 336Q60 336 50 343T32 361T20 383T15 404Q15 413 20 426T33 451T51 471T72 480Q75 480 82 479T96 476T111 473T121 472Q127 472 132 476T144 480Q152 480 160 476T177 472H180Q189 472 206 474T234 488Q287 545 340 591T444 670T546 721T644 739Q663 739 681 734T714 717T736 689T745 651Z"  />
<glyph unicode="&#x2122;" horiz-adv-x="560" d="M512 617Q510 591 508 570T503 529Q502 523 502 517T502 504Q502 475 508 439Q489 402 470 402Q459 402 452 413T445 441Q445 453 450 471Q449 474 449 485Q449 492 449 500T451 516Q453 530 454 543T456 568Q442 553 431 539T409 511Q398 498 388 488T369 471Q360 465 353 465Q341 465 330 484T311 551Q306 546 302 536Q300 531 297 525T291 510Q285 496 277 480T261 449Q252 433 243 423T226 413Q211 413 203 448Q207 459 220 483T248 533T278 584T301 619Q313 635 326 635Q337 635 344 627T352 605Q352 601 350 593L356 563Q359 547 366 532Q374 540 381 548T395 566Q402 575 409 584T424 603Q438 620 454 632T490 645H492Q498 642 503 633T512 617ZM280 636Q276 625 261 614T217 603Q214 603 211 603T205 604L187 595Q184 569 179 538T167 481Q173 461 173 447Q173 435 167 426T144 406Q127 406 121 413T115 431Q115 437 116 443T119 456Q121 461 122 466T124 476L133 592Q126 590 120 590T106 587Q100 585 94 583T83 577Q74 580 65 586T55 604V605Q56 619 82 626T143 639Q160 641 176 643T207 648Q221 650 230 652T244 658Q253 661 260 661Q271 661 276 656T281 643Q281 638 280 636Z"  />

</font>
</defs>
</svg>
